<svg id="svg" version="1.1" xmlns="http://www.w3.org/2000/svg" xmlns:xlink="http://www.w3.org/1999/xlink" width="400" height="225" viewBox="0, 0, 400,225"><g id="svgg"><path id="path0" d="M345.729 72.954 C 345.500 73.082,345.297 73.196,345.277 73.208 C 345.258 73.220,345.180 73.477,345.104 73.779 C 344.857 74.767,345.532 75.128,347.935 75.294 C 363.480 76.364,378.921 85.424,387.432 98.467 C 388.523 100.140,388.829 100.417,389.585 100.417 C 390.964 100.417,390.897 99.138,389.400 96.912 C 380.466 83.626,365.266 74.558,349.197 72.927 C 346.549 72.659,346.254 72.661,345.729 72.954 M340.417 87.215 C 340.130 87.257,339.052 87.392,338.021 87.516 C 325.341 89.043,312.136 94.755,301.042 103.515 C 296.746 106.906,288.535 115.761,288.545 116.992 C 288.557 118.526,290.253 118.611,291.254 117.128 C 300.540 103.372,321.191 91.715,339.688 89.788 C 342.859 89.458,342.977 89.441,343.364 89.281 C 343.727 89.130,343.922 88.480,343.793 87.853 C 343.657 87.197,342.308 86.942,340.417 87.215 M378.229 101.673 C 368.535 102.476,359.845 105.798,353.591 111.092 C 351.821 112.590,349.307 115.417,348.996 116.259 C 348.398 117.875,350.222 118.651,351.241 117.214 C 356.678 109.542,367.421 104.663,380.265 104.034 C 383.287 103.886,383.701 103.757,383.852 102.916 C 384.103 101.521,383.002 101.278,378.229 101.673 M337.708 104.523 C 331.924 105.538,323.065 109.940,320.000 113.323 C 319.943 113.386,319.286 113.990,318.542 114.665 C 314.542 118.292,310.366 123.684,306.503 130.208 C 304.059 134.335,303.727 135.547,304.893 136.078 C 305.721 136.456,306.292 135.869,307.709 133.188 C 315.189 119.029,326.236 109.251,337.083 107.191 C 338.057 107.006,339.059 106.812,339.308 106.760 C 339.973 106.622,340.417 106.092,340.417 105.435 C 340.417 104.550,339.437 104.220,337.708 104.523 M377.188 124.803 C 371.721 125.182,366.447 126.903,362.468 129.605 C 360.805 130.734,360.555 131.700,361.781 132.259 C 362.385 132.534,362.288 132.571,364.207 131.314 C 370.433 127.234,379.947 126.068,389.199 128.250 C 391.282 128.741,392.735 127.374,391.198 126.370 C 390.565 125.957,385.940 125.042,383.750 124.898 C 380.123 124.658,379.427 124.648,377.188 124.803 M289.663 129.867 C 272.878 137.038,260.842 152.922,252.228 179.271 C 249.538 187.501,249.269 188.859,250.243 189.324 C 251.391 189.873,251.741 189.437,252.605 186.383 C 260.824 157.318,274.271 138.338,291.286 131.787 C 293.248 131.032,293.542 130.798,293.542 129.995 C 293.542 128.775,292.314 128.735,289.663 129.867 M325.914 134.166 C 319.573 135.096,303.715 146.806,298.893 154.120 C 294.062 161.447,291.731 169.953,294.882 168.755 C 295.365 168.572,295.417 168.443,295.417 167.428 C 295.417 165.547,296.512 162.556,298.709 158.438 C 302.752 150.859,314.725 140.443,324.583 135.928 C 328.423 134.170,328.738 133.753,325.914 134.166 M344.477 134.684 C 336.360 136.875,328.784 143.713,323.907 153.249 C 321.482 157.991,321.091 159.538,322.193 160.041 C 323.034 160.424,323.617 160.003,324.171 158.613 C 328.730 147.178,337.243 138.696,346.079 136.787 C 347.271 136.529,347.707 135.314,346.829 134.699 C 346.277 134.313,345.863 134.310,344.477 134.684 M362.428 144.291 C 352.297 146.121,341.839 155.114,334.161 168.595 C 332.528 171.463,332.355 172.259,333.238 172.837 C 334.105 173.405,334.603 172.993,335.828 170.694 C 344.533 154.359,357.412 145.178,369.688 146.559 C 371.579 146.771,372.534 145.552,371.241 144.577 C 370.347 143.902,365.456 143.744,362.428 144.291 M368.958 158.839 C 365.458 159.616,363.542 160.582,363.542 161.570 C 363.542 162.633,364.266 162.933,365.594 162.421 C 372.099 159.911,378.814 160.583,385.147 164.377 C 388.142 166.171,391.933 169.819,393.099 172.029 C 393.778 173.315,395.625 173.189,395.625 171.857 C 395.625 170.925,394.209 168.964,391.789 166.543 C 385.697 160.448,376.179 157.236,368.958 158.839 M313.641 160.867 C 303.407 169.006,298.613 182.894,298.192 205.628 C 298.023 214.769,298.215 215.758,299.964 214.775 L 300.521 214.463 300.550 209.992 C 300.709 185.247,304.260 173.054,313.973 163.891 C 316.211 161.779,316.558 161.101,315.715 160.485 C 315.119 160.049,314.535 160.156,313.641 160.867 M281.012 166.720 C 279.967 167.688,276.656 173.498,275.025 177.225 C 268.939 191.130,267.251 207.266,270.344 221.979 C 270.960 224.907,271.018 225.000,272.213 225.000 L 273.125 225.000 273.125 224.183 C 273.125 223.734,272.898 222.304,272.621 221.006 C 269.019 204.131,272.587 184.265,281.798 169.912 C 283.227 167.686,283.384 167.080,282.662 166.574 C 282.028 166.130,281.609 166.167,281.012 166.720 M371.563 174.289 C 354.740 176.679,344.762 191.588,349.404 207.396 C 349.935 209.206,351.882 213.323,352.416 213.766 C 353.742 214.866,355.967 215.408,356.591 214.784 C 356.710 214.665,357.044 214.525,357.334 214.473 C 358.032 214.346,359.626 213.445,360.124 212.896 C 360.545 212.430,360.548 212.357,360.393 206.875 C 360.195 199.867,366.694 193.575,376.250 191.526 C 378.737 190.992,384.519 191.006,386.458 191.550 C 388.136 192.021,389.182 192.104,389.563 191.797 C 389.724 191.668,389.889 191.588,389.930 191.619 C 390.205 191.827,392.292 190.339,392.292 189.934 C 392.292 189.823,392.638 189.432,393.061 189.067 C 393.776 188.449,393.836 188.306,393.917 187.034 C 394.050 184.955,393.803 184.487,391.294 182.048 C 385.605 176.516,377.717 173.414,371.563 174.289 M316.589 176.281 C 315.371 176.988,311.594 186.737,310.547 191.875 C 308.550 201.668,309.372 211.720,312.804 219.481 C 314.214 222.667,316.260 221.349,314.935 218.108 C 310.148 206.398,310.939 193.181,317.214 180.054 C 318.485 177.394,318.602 176.647,317.803 176.283 C 317.163 175.992,317.087 175.992,316.589 176.281 M341.627 179.976 C 330.683 188.791,326.435 206.824,332.716 217.802 C 333.806 219.706,334.521 220.225,335.328 219.696 C 335.987 219.265,335.992 218.368,335.341 217.337 C 328.780 206.943,332.573 190.954,343.916 181.196 C 344.734 180.492,344.824 179.567,344.120 179.074 C 343.430 178.590,343.281 178.644,341.627 179.976 M285.785 181.198 C 283.841 183.403,281.047 192.179,280.006 199.353 C 279.059 205.874,279.016 218.210,279.919 224.219 L 280.037 225.000 281.195 225.000 L 282.353 225.000 282.210 223.177 C 281.732 217.081,281.645 215.295,281.639 211.354 C 281.621 200.330,283.400 191.274,286.979 184.167 C 287.813 182.510,287.931 181.384,287.305 181.049 C 286.711 180.731,286.148 180.786,285.785 181.198 M257.840 184.261 C 255.820 186.440,252.997 194.328,251.796 201.146 C 251.168 204.714,249.792 218.967,249.792 221.908 C 249.792 222.828,250.395 223.280,251.316 223.049 C 252.077 222.858,252.168 222.374,252.593 216.250 C 252.661 215.276,252.759 214.010,252.812 213.438 C 252.865 212.865,252.961 211.740,253.025 210.938 C 253.878 200.347,256.109 191.734,259.372 186.431 C 260.614 184.413,259.353 182.628,257.840 184.261 M376.694 193.125 C 374.420 193.662,374.792 194.893,377.169 194.695 C 378.770 194.562,379.026 194.596,380.239 195.103 C 384.337 196.817,385.738 197.040,385.583 195.956 C 385.509 195.440,384.916 195.125,381.622 193.857 C 379.147 192.904,378.217 192.765,376.694 193.125 M367.302 196.407 C 364.266 197.895,361.667 202.971,361.667 207.410 C 361.667 209.875,361.968 210.393,362.942 209.605 C 363.387 209.244,363.419 209.080,363.364 207.411 C 363.240 203.570,365.694 198.974,368.698 197.422 C 370.091 196.703,368.725 195.709,367.302 196.407 M388.035 198.661 C 387.855 198.841,387.708 199.063,387.708 199.154 C 387.708 201.383,386.586 204.545,384.730 207.545 C 382.824 210.627,382.500 211.314,382.500 212.283 C 382.500 213.567,383.443 213.348,384.252 211.876 C 384.377 211.649,385.195 210.314,386.071 208.909 C 388.071 205.697,388.224 205.389,388.742 203.519 C 389.585 200.476,389.158 197.539,388.035 198.661 M395.585 202.240 C 394.892 203.048,394.373 204.594,394.070 206.751 C 393.511 210.736,391.159 214.397,387.511 216.963 C 384.846 218.837,384.548 219.449,386.590 218.855 C 391.246 217.502,395.166 212.508,395.826 207.089 C 395.945 206.119,396.242 204.691,396.486 203.915 C 397.044 202.148,396.512 201.158,395.585 202.240 M376.851 210.179 C 376.578 210.391,375.563 210.977,374.596 211.481 L 372.838 212.396 368.502 212.460 C 366.118 212.495,364.167 212.601,364.167 212.697 C 364.167 213.409,367.006 214.063,370.101 214.063 L 373.229 214.063 375.104 213.051 C 377.808 211.593,378.583 210.750,377.875 210.042 C 377.543 209.709,377.435 209.724,376.851 210.179 M380.854 211.571 C 379.323 213.819,369.659 221.667,368.422 221.667 C 366.635 221.667,366.019 222.667,367.440 223.261 C 369.163 223.981,370.128 223.478,375.252 219.191 C 381.509 213.955,382.398 212.856,381.749 211.163 C 381.564 210.682,381.412 210.752,380.854 211.571 M363.674 217.805 C 360.127 220.320,358.817 220.713,355.521 220.253 C 352.309 219.806,352.399 221.285,355.625 221.963 C 358.975 222.666,361.970 221.624,365.482 218.532 C 368.585 215.801,367.256 215.267,363.674 217.805 M397.489 217.674 C 396.979 217.999,396.328 218.464,396.042 218.708 C 393.184 221.145,392.170 221.820,390.365 222.486 C 389.638 222.755,389.634 223.076,390.355 223.350 C 391.724 223.870,393.837 222.841,396.568 220.324 C 399.351 217.760,399.919 216.125,397.489 217.674 " stroke="none" fill="#fce404" fill-rule="evenodd"></path><path id="path1" d="M345.833 2.285 C 343.459 2.647,342.972 2.745,341.103 3.245 C 337.046 4.330,333.060 6.368,333.236 7.268 C 333.272 7.453,333.309 7.724,333.317 7.870 C 333.364 8.646,334.444 8.585,336.080 7.713 C 343.819 3.590,354.560 3.392,365.329 7.173 C 369.498 8.637,375.846 12.033,377.915 13.905 C 378.200 14.164,378.500 14.375,378.582 14.375 C 378.663 14.375,379.367 14.945,380.146 15.641 C 382.590 17.824,384.473 17.998,383.836 15.982 C 383.690 15.518,383.590 15.415,381.875 13.960 C 372.085 5.650,356.628 0.644,345.833 2.285 M264.352 3.634 C 264.302 3.684,263.798 3.788,263.232 3.865 C 261.277 4.130,258.425 5.216,256.095 6.583 C 255.332 7.031,255.170 7.924,255.739 8.553 C 256.107 8.959,257.259 8.812,257.880 8.278 C 259.766 6.658,266.843 5.466,270.521 6.149 C 273.161 6.640,274.364 6.888,274.952 7.062 C 275.326 7.174,275.654 7.263,275.681 7.261 C 276.128 7.228,280.901 8.735,284.634 10.089 C 285.750 10.493,286.875 10.866,287.134 10.917 C 287.392 10.967,287.994 11.150,288.471 11.322 C 289.482 11.687,289.727 11.673,290.387 11.211 C 291.174 10.660,290.850 9.722,289.728 9.310 C 284.228 7.285,274.875 4.417,272.604 4.059 C 269.806 3.618,269.036 3.550,266.858 3.546 C 265.530 3.544,264.403 3.583,264.352 3.634 M222.500 8.564 C 214.238 8.956,204.507 10.919,197.396 13.628 C 196.594 13.934,195.469 14.359,194.896 14.574 C 192.123 15.615,185.687 18.748,183.527 20.109 C 177.078 24.173,172.708 27.573,172.708 28.529 C 172.708 29.934,174.111 30.178,175.208 28.964 C 176.175 27.895,185.054 21.667,185.612 21.667 C 185.734 21.667,185.833 21.557,185.833 21.424 C 185.833 21.290,185.889 21.236,185.956 21.303 C 186.023 21.371,186.516 21.172,187.050 20.861 C 189.184 19.620,194.442 17.160,196.221 16.571 C 196.836 16.367,197.586 16.072,197.888 15.914 C 198.190 15.757,198.583 15.627,198.760 15.626 C 198.938 15.626,199.196 15.513,199.333 15.375 C 199.471 15.238,199.583 15.185,199.583 15.258 C 199.583 15.332,200.263 15.157,201.094 14.871 C 202.527 14.376,205.874 13.408,206.771 13.228 C 207.000 13.183,207.469 13.090,207.813 13.023 C 208.156 12.956,208.719 12.819,209.063 12.718 C 209.406 12.618,210.016 12.480,210.417 12.413 C 210.818 12.345,211.380 12.242,211.667 12.182 C 211.953 12.123,212.609 12.028,213.125 11.971 C 213.641 11.914,214.266 11.822,214.515 11.767 C 214.764 11.712,215.373 11.617,215.869 11.555 C 216.365 11.493,217.005 11.406,217.292 11.362 C 217.733 11.292,218.976 11.199,223.021 10.931 C 223.365 10.909,224.558 10.877,225.672 10.862 C 227.881 10.831,228.566 10.436,228.232 9.385 C 227.944 8.478,227.040 8.348,222.500 8.564 M302.604 17.206 C 295.501 18.192,288.161 20.733,282.153 24.284 C 281.294 24.793,280.537 25.208,280.471 25.208 C 280.406 25.208,280.045 25.443,279.669 25.729 C 279.293 26.016,278.936 26.250,278.875 26.250 C 278.749 26.250,274.814 28.928,274.450 29.262 C 274.320 29.381,273.953 29.667,273.635 29.896 C 269.884 32.601,265.625 36.715,265.625 37.633 C 265.625 39.451,267.276 38.908,269.792 36.265 C 270.306 35.724,273.714 32.834,274.905 31.928 C 282.363 26.257,288.787 22.991,296.979 20.705 C 297.094 20.673,297.469 20.591,297.813 20.524 C 298.156 20.456,298.578 20.359,298.750 20.308 C 302.116 19.311,308.435 19.060,314.271 19.693 C 314.385 19.705,314.760 19.781,315.104 19.862 C 315.448 19.942,316.010 20.049,316.354 20.100 C 317.380 20.249,318.082 20.411,318.658 20.630 C 319.935 21.115,320.971 19.287,319.783 18.645 C 317.120 17.207,308.063 16.448,302.604 17.206 M357.969 17.298 C 357.711 17.402,357.493 17.607,357.485 17.754 C 357.476 17.901,357.432 18.217,357.387 18.458 C 357.278 19.031,358.454 19.593,360.316 19.859 C 364.533 20.460,372.107 23.550,377.917 27.040 C 380.670 28.693,380.834 28.804,383.408 30.745 C 384.308 31.424,385.301 32.167,385.613 32.396 C 385.926 32.625,386.324 32.953,386.499 33.125 C 386.673 33.297,387.509 34.046,388.356 34.789 C 391.225 37.306,393.039 39.287,395.549 42.640 C 396.891 44.435,398.542 44.674,398.542 43.074 C 398.542 42.376,398.515 42.337,395.777 38.975 C 394.519 37.430,390.511 33.362,389.194 32.292 C 388.700 31.891,388.047 31.348,387.742 31.085 C 387.209 30.625,385.205 29.095,383.021 27.479 C 382.448 27.055,381.651 26.522,381.250 26.294 C 380.849 26.066,379.630 25.337,378.542 24.673 C 373.609 21.669,365.400 18.312,361.250 17.602 C 360.849 17.533,360.146 17.391,359.688 17.285 C 358.688 17.055,358.571 17.056,357.969 17.298 M254.896 18.970 C 254.094 19.051,252.734 19.185,251.875 19.267 C 249.466 19.496,244.952 20.328,242.188 21.051 C 241.271 21.290,240.289 21.533,240.006 21.589 C 235.794 22.427,226.923 26.417,221.875 29.743 C 216.405 33.347,210.417 39.116,210.417 40.780 C 210.417 42.090,212.247 42.292,212.909 41.056 C 213.293 40.338,217.248 36.183,218.574 35.104 C 218.856 34.875,219.372 34.453,219.722 34.167 C 220.072 33.880,220.571 33.505,220.830 33.333 C 221.089 33.161,221.407 32.925,221.536 32.807 C 221.907 32.470,224.357 30.833,224.491 30.833 C 224.558 30.833,225.004 30.566,225.483 30.239 C 226.499 29.546,232.380 26.636,233.750 26.150 C 234.266 25.966,235.297 25.623,236.042 25.386 C 236.786 25.149,237.490 24.898,237.604 24.827 C 237.719 24.757,237.906 24.676,238.021 24.648 C 238.135 24.621,238.885 24.401,239.688 24.161 C 241.367 23.657,247.203 22.334,248.438 22.177 C 248.896 22.119,249.411 22.033,249.583 21.985 C 250.661 21.687,256.575 21.217,260.153 21.145 C 264.624 21.054,264.989 20.957,264.997 19.856 C 265.004 18.767,260.661 18.386,254.896 18.970 M303.750 31.160 C 302.203 31.784,300.469 32.515,299.896 32.785 C 299.323 33.055,298.620 33.346,298.333 33.432 C 297.476 33.689,289.228 37.773,286.875 39.105 C 283.525 41.001,277.426 44.881,276.690 45.585 C 276.530 45.737,276.155 46.018,275.856 46.208 C 275.277 46.576,272.675 48.536,272.500 48.735 C 272.443 48.801,271.740 49.411,270.938 50.092 C 267.380 53.112,260.000 61.385,260.000 62.354 C 260.000 62.423,259.706 62.915,259.346 63.449 C 256.860 67.132,253.600 75.905,254.165 77.391 C 254.785 79.023,256.155 78.145,256.769 75.723 C 257.812 71.608,259.805 67.143,262.207 63.536 C 264.390 60.258,265.661 58.694,268.616 55.647 C 271.548 52.624,277.964 47.186,279.375 46.528 C 279.547 46.448,280.156 46.045,280.729 45.632 C 281.635 44.978,282.798 44.242,285.484 42.622 C 288.862 40.584,294.607 37.652,298.958 35.746 C 300.734 34.968,302.483 34.201,302.844 34.041 C 303.205 33.881,303.566 33.750,303.646 33.750 C 303.726 33.750,304.133 33.600,304.552 33.416 C 305.820 32.860,306.124 32.741,306.667 32.587 C 308.038 32.200,308.590 31.360,308.033 30.511 C 307.551 29.775,306.967 29.863,303.750 31.160 M189.479 34.781 C 179.755 37.296,165.451 44.206,161.875 48.115 C 161.818 48.178,161.115 48.784,160.313 49.461 C 158.101 51.330,154.368 55.249,153.032 57.104 C 148.191 63.827,145.626 69.850,147.412 70.298 C 148.318 70.525,148.683 70.257,149.176 69.003 C 149.965 66.996,152.470 62.039,152.760 61.910 C 152.846 61.872,152.917 61.755,152.917 61.652 C 152.917 60.488,160.952 51.593,163.774 49.633 C 164.276 49.283,164.895 48.801,165.148 48.561 C 165.401 48.321,165.673 48.125,165.753 48.125 C 165.833 48.125,166.376 47.765,166.960 47.324 C 167.931 46.591,169.496 45.622,172.663 43.791 C 173.763 43.155,175.040 42.528,176.875 41.723 C 177.276 41.547,177.973 41.228,178.425 41.014 C 178.876 40.800,179.322 40.625,179.416 40.625 C 179.511 40.625,179.985 40.452,180.471 40.240 C 181.861 39.633,183.521 39.024,185.104 38.538 C 187.472 37.812,190.897 36.845,191.458 36.744 C 192.868 36.491,193.385 36.101,193.385 35.291 C 193.385 34.068,192.621 33.968,189.479 34.781 M102.697 39.531 L 101.979 40.313 102.760 39.595 C 103.190 39.200,103.542 38.848,103.542 38.813 C 103.542 38.654,103.365 38.804,102.697 39.531 M344.063 39.101 C 343.112 39.159,340.837 39.439,339.271 39.692 C 335.901 40.237,329.809 41.948,327.396 43.028 C 327.052 43.181,326.161 43.558,325.417 43.864 C 323.486 44.657,317.865 47.595,317.083 48.220 C 316.911 48.358,316.402 48.681,315.952 48.938 C 312.927 50.665,308.750 54.226,308.750 55.077 C 308.750 56.373,309.942 56.457,311.376 55.261 C 313.509 53.482,314.844 52.472,316.628 51.288 C 317.696 50.579,318.619 50.000,318.679 50.000 C 318.740 50.000,319.039 49.823,319.343 49.607 C 320.629 48.691,325.884 46.144,328.646 45.097 C 331.037 44.190,331.225 44.124,331.397 44.123 C 331.488 44.122,331.891 43.997,332.292 43.844 C 337.539 41.846,347.436 40.921,353.311 41.880 C 356.055 42.327,356.647 42.160,356.660 40.935 C 356.674 39.588,350.605 38.705,344.063 39.101 M240.208 45.414 C 235.097 46.518,231.729 47.576,227.813 49.308 C 225.450 50.352,221.449 52.433,219.896 53.426 C 216.250 55.756,215.251 56.422,214.566 56.979 C 214.144 57.323,213.536 57.792,213.214 58.021 C 208.934 61.071,203.054 66.607,198.854 71.542 C 198.281 72.215,197.719 72.871,197.604 73.000 C 196.233 74.539,192.292 79.709,192.292 79.969 C 192.292 80.073,192.157 80.269,191.991 80.406 C 191.186 81.075,186.445 88.613,186.364 89.354 C 186.251 90.399,187.079 91.073,187.922 90.622 C 188.308 90.416,189.840 88.197,190.540 86.832 C 190.733 86.455,190.957 86.099,191.037 86.042 C 191.116 85.984,191.517 85.422,191.926 84.792 C 193.315 82.654,196.152 78.663,197.036 77.604 C 197.227 77.375,198.461 75.875,199.777 74.271 C 203.736 69.446,210.089 63.327,214.896 59.709 C 217.260 57.930,217.360 57.856,217.756 57.604 C 217.935 57.490,218.519 57.091,219.052 56.719 C 219.585 56.346,220.054 56.042,220.094 56.042 C 220.134 56.042,220.762 55.665,221.489 55.205 C 222.935 54.291,229.375 51.013,229.375 51.191 C 229.375 51.251,229.492 51.205,229.635 51.088 C 230.073 50.731,236.000 48.828,238.542 48.229 C 243.052 47.166,242.804 47.268,242.881 46.462 C 242.992 45.305,242.182 44.987,240.208 45.414 M349.583 51.106 C 348.948 51.322,348.846 51.453,348.790 52.122 C 348.702 53.187,348.922 53.257,352.813 53.413 C 359.725 53.690,365.898 55.688,371.538 59.473 C 374.132 61.214,375.564 62.234,376.012 62.661 C 376.220 62.859,376.847 63.396,377.407 63.854 C 378.719 64.929,382.926 69.138,384.271 70.720 C 384.844 71.395,385.500 72.158,385.729 72.416 C 386.150 72.891,386.275 73.046,388.069 75.323 C 389.233 76.801,389.302 76.896,391.408 79.923 C 393.047 82.280,394.196 84.062,395.287 85.938 C 395.621 86.510,395.974 87.010,396.072 87.049 C 396.170 87.087,396.250 87.238,396.250 87.385 C 396.250 87.532,396.436 87.889,396.664 88.178 C 397.019 88.630,397.371 89.248,398.841 92.000 C 399.097 92.480,399.693 93.125,399.881 93.125 C 400.443 93.125,399.951 89.042,399.232 87.742 C 397.723 85.013,392.260 76.575,391.315 75.513 C 391.107 75.280,390.711 74.764,390.435 74.367 C 389.927 73.638,389.721 73.382,388.992 72.576 C 388.770 72.331,388.508 71.989,388.409 71.816 C 387.779 70.717,381.092 63.789,378.958 62.027 C 378.443 61.601,377.740 61.016,377.396 60.726 C 377.052 60.437,376.396 59.945,375.938 59.632 C 375.479 59.319,375.057 59.004,375.000 58.931 C 373.541 57.075,364.062 52.748,359.167 51.703 C 355.813 50.988,350.843 50.678,349.583 51.106 M187.708 63.037 C 186.391 63.312,185.172 63.594,185.000 63.663 C 184.828 63.731,183.990 63.973,183.137 64.199 C 171.563 67.268,158.907 76.364,150.283 87.813 C 148.808 89.771,145.208 95.104,145.208 95.331 C 145.208 95.417,145.075 95.636,144.912 95.817 C 144.239 96.564,139.832 105.252,138.563 108.333 C 138.067 109.536,137.545 110.802,137.404 111.146 C 137.262 111.490,137.029 112.099,136.885 112.500 C 136.742 112.901,136.538 113.417,136.433 113.646 C 135.907 114.787,133.542 122.446,133.543 123.004 C 133.547 124.890,135.487 124.479,136.092 122.463 C 137.396 118.123,138.972 113.523,139.702 111.928 C 139.980 111.319,140.208 110.748,140.208 110.658 C 140.208 110.568,140.387 110.126,140.605 109.675 C 141.431 107.963,142.083 106.396,142.083 106.120 C 142.083 105.962,142.183 105.833,142.304 105.833 C 142.425 105.833,142.467 105.740,142.396 105.625 C 142.325 105.510,142.366 105.417,142.488 105.417 C 142.609 105.417,142.708 105.289,142.708 105.133 C 142.708 104.977,143.092 104.157,143.562 103.310 C 144.031 102.464,144.434 101.663,144.456 101.531 C 144.479 101.400,144.597 101.165,144.719 101.011 C 144.841 100.856,145.296 100.073,145.731 99.271 C 146.166 98.469,146.835 97.328,147.219 96.736 C 147.603 96.143,147.917 95.565,147.917 95.451 C 147.917 95.337,147.987 95.212,148.073 95.174 C 148.274 95.084,150.299 92.006,150.227 91.898 C 150.197 91.854,150.261 91.760,150.368 91.690 C 150.476 91.620,151.351 90.523,152.313 89.253 C 154.914 85.818,155.453 85.202,158.750 81.880 C 161.636 78.972,165.133 75.937,167.031 74.692 C 167.518 74.373,167.917 74.030,167.917 73.931 C 167.917 73.831,168.016 73.750,168.137 73.750 C 168.257 73.750,169.078 73.289,169.959 72.725 C 171.806 71.544,173.902 70.357,175.104 69.812 C 175.563 69.604,176.378 69.233,176.916 68.988 C 177.454 68.742,177.943 68.542,178.003 68.542 C 178.063 68.542,178.608 68.317,179.213 68.042 C 180.601 67.411,184.026 66.333,186.250 65.827 C 186.651 65.735,187.214 65.601,187.500 65.528 C 187.976 65.407,189.810 65.086,191.008 64.915 C 192.063 64.764,192.555 63.360,191.757 62.777 C 191.246 62.403,190.525 62.449,187.708 63.037 M234.896 64.818 C 231.890 65.515,226.094 67.994,223.646 69.630 C 221.454 71.094,219.675 72.362,219.359 72.685 C 219.179 72.870,218.621 73.349,218.119 73.750 C 216.126 75.345,211.772 79.920,210.313 81.953 C 210.083 82.273,209.682 82.784,209.421 83.090 C 209.160 83.396,208.646 84.115,208.279 84.688 C 207.912 85.260,207.540 85.760,207.452 85.799 C 207.364 85.837,207.292 85.993,207.292 86.146 C 207.292 86.299,207.221 86.455,207.135 86.493 C 206.961 86.571,205.833 88.258,205.833 88.442 C 205.833 88.507,205.469 89.120,205.024 89.804 C 204.295 90.927,201.551 96.293,200.770 98.125 C 198.758 102.840,197.764 105.547,196.839 108.833 C 194.876 115.800,194.779 117.664,196.394 117.371 C 197.302 117.206,197.364 117.068,198.019 113.749 C 198.053 113.577,198.195 113.015,198.333 112.500 C 198.472 111.985,198.620 111.423,198.662 111.251 C 198.895 110.293,199.229 109.098,199.419 108.542 C 199.477 108.370,199.687 107.714,199.884 107.083 C 200.082 106.453,200.320 105.750,200.413 105.521 C 200.507 105.292,200.696 104.776,200.833 104.375 C 200.971 103.974,201.165 103.458,201.265 103.229 C 201.365 103.000,201.627 102.344,201.847 101.771 C 202.867 99.116,205.224 94.304,206.823 91.615 C 207.424 90.603,207.917 89.745,207.917 89.707 C 207.917 89.477,211.944 83.668,212.408 83.229 C 212.529 83.115,213.326 82.184,214.178 81.161 C 215.492 79.585,216.924 78.117,219.737 75.462 C 220.014 75.201,221.054 74.382,222.047 73.643 C 223.041 72.904,223.948 72.225,224.063 72.133 C 224.372 71.887,226.685 70.556,228.345 69.669 C 229.124 69.254,229.444 69.123,232.031 68.162 C 232.977 67.810,233.750 67.576,233.750 67.641 C 233.750 67.706,233.867 67.666,234.010 67.553 C 234.243 67.368,234.728 67.249,236.458 66.951 C 237.554 66.763,237.983 65.455,237.150 64.844 C 236.746 64.547,236.097 64.540,234.896 64.818 M291.667 67.431 C 286.221 69.285,278.014 75.643,274.367 80.833 C 274.085 81.234,273.800 81.609,273.733 81.667 C 273.447 81.912,270.417 86.461,270.417 86.644 C 270.417 86.755,270.269 86.993,270.088 87.174 C 269.643 87.619,266.515 93.770,265.419 96.354 C 264.933 97.500,264.455 98.625,264.357 98.854 C 264.259 99.083,263.976 99.880,263.728 100.625 C 263.481 101.370,263.209 102.073,263.124 102.188 C 262.948 102.427,260.245 110.699,260.112 111.407 C 260.063 111.665,259.976 111.953,259.919 112.047 C 259.861 112.140,259.766 112.445,259.708 112.723 C 259.649 113.001,259.359 114.073,259.062 115.104 C 258.273 117.843,258.232 118.674,258.868 119.091 C 259.456 119.476,260.625 119.155,260.625 118.608 C 260.625 118.443,260.756 117.868,260.916 117.331 C 261.076 116.794,261.500 115.323,261.858 114.063 C 263.071 109.792,264.733 104.552,265.228 103.438 C 265.329 103.208,265.655 102.365,265.952 101.563 C 266.803 99.262,267.896 96.702,268.775 94.950 C 269.219 94.063,269.583 93.196,269.583 93.023 C 269.583 92.850,269.666 92.708,269.766 92.708 C 269.867 92.708,270.073 92.404,270.225 92.031 C 270.786 90.653,274.618 84.298,275.218 83.750 C 275.281 83.693,275.559 83.318,275.837 82.917 C 276.114 82.516,276.437 82.079,276.556 81.946 C 276.674 81.813,277.099 81.306,277.500 80.819 C 281.347 76.152,287.371 71.580,292.024 69.795 C 293.848 69.096,293.502 66.806,291.667 67.431 M325.417 69.515 C 316.983 72.406,309.244 76.821,302.763 82.437 C 299.793 85.010,293.679 91.318,293.039 92.470 C 292.934 92.658,292.778 92.860,292.692 92.918 C 292.391 93.121,288.965 97.818,288.704 98.385 C 288.559 98.701,288.369 98.958,288.282 98.958 C 288.196 98.958,288.125 99.041,288.125 99.143 C 288.125 99.244,287.759 99.877,287.313 100.549 C 284.295 105.087,280.683 113.662,281.510 114.324 C 282.571 115.172,283.366 114.544,284.254 112.156 C 284.864 110.518,287.154 105.733,288.240 103.827 C 289.001 102.491,291.079 99.150,291.395 98.751 C 291.532 98.579,292.253 97.594,292.997 96.563 C 294.404 94.612,295.094 93.712,295.625 93.135 C 295.797 92.949,296.547 92.097,297.292 91.242 C 299.577 88.619,303.696 84.698,306.458 82.515 C 307.203 81.927,307.953 81.330,308.125 81.190 C 308.729 80.696,311.782 78.606,312.779 78.005 C 313.333 77.670,314.036 77.234,314.341 77.036 C 316.236 75.807,324.076 72.261,326.458 71.556 C 327.069 71.376,327.284 71.102,327.288 70.501 C 327.294 69.679,326.365 69.190,325.417 69.515 M134.056 87.753 C 128.444 90.553,121.013 96.563,116.595 101.875 C 116.167 102.391,115.693 102.953,115.543 103.125 C 114.164 104.705,109.937 111.045,109.292 112.500 C 109.165 112.786,108.806 113.446,108.495 113.966 C 107.257 116.034,105.275 120.900,103.935 125.160 C 103.111 127.783,103.071 127.930,102.714 129.656 C 102.599 130.212,102.415 131.009,102.306 131.427 C 102.197 131.845,102.054 132.566,101.988 133.029 C 101.922 133.492,101.822 134.101,101.765 134.383 C 101.390 136.261,101.036 141.400,101.087 144.249 L 101.146 147.560 101.719 147.987 L 102.292 148.415 102.851 147.997 L 103.409 147.580 103.383 144.363 C 103.355 140.839,103.606 137.384,104.066 135.000 C 104.121 134.714,104.218 134.104,104.281 133.646 C 104.462 132.335,104.526 132.001,104.657 131.667 C 104.806 131.287,105.026 130.220,105.044 129.792 C 105.051 129.620,105.149 129.362,105.262 129.219 C 105.375 129.076,105.413 128.958,105.347 128.958 C 105.281 128.958,105.359 128.583,105.521 128.125 C 105.683 127.667,105.777 127.292,105.731 127.292 C 105.685 127.292,105.868 126.682,106.138 125.938 C 106.409 125.193,106.589 124.583,106.540 124.583 C 106.490 124.583,106.639 124.212,106.871 123.758 C 107.102 123.304,107.325 122.765,107.365 122.560 C 107.461 122.066,107.640 121.616,108.385 120.000 C 108.728 119.255,109.027 118.552,109.049 118.438 C 109.107 118.136,110.900 114.634,111.633 113.390 C 111.978 112.806,112.204 112.273,112.136 112.206 C 112.069 112.139,112.123 112.083,112.257 112.083 C 112.391 112.083,112.500 111.994,112.500 111.884 C 112.500 111.691,113.314 110.367,113.755 109.844 C 113.876 109.701,113.924 109.583,113.862 109.583 C 113.801 109.583,113.896 109.419,114.075 109.219 C 114.253 109.018,115.217 107.757,116.217 106.416 C 120.465 100.717,125.113 96.226,130.396 92.716 C 132.935 91.030,134.250 90.230,135.260 89.759 C 135.690 89.559,136.049 89.320,136.057 89.229 C 136.066 89.137,136.110 88.864,136.156 88.621 C 136.239 88.182,135.819 87.668,135.202 87.452 C 135.027 87.390,134.511 87.526,134.056 87.753 M247.188 92.627 C 244.818 93.414,244.974 93.350,242.188 94.670 C 239.271 96.052,236.780 97.535,233.542 99.816 C 229.273 102.823,222.197 110.039,219.419 114.217 C 219.108 114.684,218.714 115.273,218.542 115.525 C 217.283 117.371,215.833 119.597,215.833 119.682 C 215.833 119.738,215.464 120.387,215.013 121.125 C 214.562 121.862,213.615 123.668,212.909 125.139 C 212.203 126.609,211.551 127.959,211.461 128.138 C 209.599 131.807,206.517 142.331,206.556 144.883 C 206.579 146.353,208.952 145.913,208.963 144.437 C 208.966 143.928,209.379 141.845,209.686 140.781 C 209.744 140.581,209.836 140.253,209.890 140.052 C 210.405 138.135,210.833 136.673,211.017 136.198 C 211.140 135.883,211.184 135.625,211.115 135.625 C 211.047 135.625,211.088 135.508,211.207 135.365 C 211.326 135.221,211.442 135.010,211.466 134.896 C 211.489 134.781,211.600 134.453,211.712 134.167 C 211.825 133.880,211.940 133.552,211.968 133.438 C 211.996 133.323,212.134 132.948,212.274 132.604 C 212.414 132.260,212.770 131.370,213.065 130.625 C 214.060 128.113,216.736 122.805,217.973 120.890 C 218.286 120.405,218.542 119.913,218.542 119.796 C 218.542 119.679,218.635 119.583,218.750 119.583 C 218.865 119.583,218.958 119.493,218.958 119.382 C 218.958 119.175,222.690 113.796,223.303 113.120 C 223.492 112.912,223.974 112.340,224.375 111.848 C 226.604 109.115,230.142 105.611,232.917 103.386 C 234.005 102.513,235.000 101.675,235.127 101.524 C 235.254 101.373,235.422 101.250,235.501 101.250 C 235.579 101.250,235.756 101.153,235.894 101.035 C 237.138 99.974,241.241 97.623,244.063 96.355 C 246.043 95.464,246.509 95.274,247.396 94.997 C 250.295 94.089,251.238 93.188,250.161 92.353 C 249.601 91.920,249.207 91.956,247.188 92.627 M172.396 104.781 C 170.260 105.656,161.195 116.719,158.417 121.841 C 158.127 122.375,157.662 123.188,157.385 123.646 C 157.107 124.104,156.170 125.932,155.302 127.708 C 154.435 129.484,153.632 131.107,153.520 131.314 C 152.014 134.081,147.907 146.677,147.155 150.833 C 147.103 151.120,146.885 152.057,146.671 152.917 C 146.456 153.776,146.229 154.807,146.167 155.208 C 146.104 155.609,145.872 156.922,145.650 158.125 C 145.428 159.328,145.185 160.828,145.111 161.458 C 145.037 162.089,144.939 162.745,144.893 162.917 C 144.847 163.089,144.755 163.698,144.688 164.271 C 144.622 164.844,144.492 165.912,144.401 166.645 C 144.127 168.855,144.645 169.689,145.927 169.103 C 146.540 168.822,146.557 168.768,146.872 166.042 C 147.159 163.558,147.232 162.992,147.387 162.083 C 147.564 161.047,148.086 157.929,148.208 157.188 C 148.297 156.647,148.965 153.415,149.242 152.188 C 149.527 150.924,150.519 147.159,150.971 145.625 C 151.258 144.651,151.514 143.760,151.539 143.646 C 151.564 143.531,151.950 142.359,152.398 141.042 C 152.846 139.724,153.228 138.576,153.247 138.490 C 153.266 138.404,153.305 138.286,153.333 138.229 C 153.362 138.172,153.399 138.055,153.415 137.969 C 153.431 137.883,153.501 137.719,153.571 137.604 C 153.641 137.490,154.045 136.505,154.470 135.417 C 156.353 130.587,161.088 121.495,162.546 119.909 C 162.750 119.687,162.917 119.419,162.917 119.314 C 162.917 119.209,163.128 118.863,163.385 118.546 C 163.643 118.229,164.042 117.704,164.271 117.379 C 164.500 117.054,165.438 115.858,166.354 114.720 C 167.271 113.582,168.208 112.400,168.438 112.093 C 168.667 111.786,170.049 110.326,171.510 108.848 C 174.304 106.021,174.582 105.523,173.704 104.908 C 173.190 104.548,173.006 104.530,172.396 104.781 M208.658 109.235 C 207.944 109.960,206.946 111.105,206.440 111.780 C 205.935 112.455,205.380 113.168,205.208 113.364 C 204.682 113.964,204.462 114.257,204.051 114.901 C 203.833 115.242,203.602 115.568,203.536 115.625 C 203.414 115.731,201.523 118.560,201.146 119.200 C 201.031 119.394,200.528 120.239,200.028 121.079 C 199.021 122.769,195.710 129.457,194.994 131.250 C 193.824 134.178,191.631 140.508,191.360 141.740 C 191.306 141.986,190.934 143.435,190.534 144.960 C 189.816 147.689,188.664 153.049,188.440 154.696 C 188.378 155.159,188.288 155.736,188.241 155.979 C 188.194 156.222,188.090 156.874,188.010 157.429 C 187.929 157.984,187.835 158.593,187.801 158.783 C 187.712 159.283,187.505 160.805,187.395 161.771 C 187.342 162.229,187.253 162.979,187.196 163.438 C 187.140 163.896,187.040 164.833,186.976 165.521 C 186.911 166.208,186.818 167.052,186.769 167.396 C 186.042 172.460,185.956 181.454,186.632 181.792 C 187.850 182.401,188.302 181.677,188.432 178.910 C 188.686 173.458,188.799 171.314,188.855 170.833 C 188.888 170.547,188.976 169.516,189.051 168.542 C 189.230 166.191,189.486 163.685,189.689 162.292 C 189.748 161.891,189.837 161.212,189.888 160.783 C 189.939 160.354,190.034 159.698,190.098 159.324 C 190.163 158.951,190.254 158.315,190.301 157.910 C 190.348 157.505,190.437 156.943,190.499 156.660 C 190.562 156.377,190.661 155.818,190.721 155.417 C 190.780 155.016,190.878 154.430,190.939 154.115 C 191.000 153.800,191.090 153.284,191.139 152.969 C 191.244 152.301,191.822 149.600,192.086 148.542 C 192.187 148.141,192.557 146.688,192.910 145.313 C 193.262 143.938,193.600 142.587,193.660 142.312 C 193.721 142.036,193.855 141.652,193.958 141.458 C 194.062 141.265,194.191 140.864,194.245 140.567 C 194.335 140.068,195.031 137.944,195.419 136.979 C 195.512 136.750,195.978 135.531,196.455 134.271 C 197.270 132.117,197.528 131.499,198.590 129.167 C 200.678 124.580,204.773 117.716,207.227 114.688 C 208.847 112.688,209.431 111.996,210.361 110.974 C 210.968 110.307,211.415 109.681,211.354 109.583 C 211.293 109.484,211.334 109.347,211.446 109.279 C 211.702 109.120,211.500 108.518,211.077 108.177 C 210.473 107.690,209.959 107.915,208.658 109.235 M281.354 124.942 C 280.505 125.151,275.930 126.716,275.729 126.867 C 275.615 126.953,275.240 127.118,274.896 127.234 C 270.081 128.864,260.777 134.452,255.860 138.668 C 253.647 140.565,253.005 141.162,250.725 143.438 C 249.347 144.813,247.753 146.494,247.183 147.175 C 246.612 147.856,245.967 148.597,245.748 148.823 C 245.223 149.364,241.495 154.324,241.283 154.763 C 240.657 156.060,242.113 157.296,243.073 156.281 C 243.623 155.699,244.103 155.084,244.192 154.845 C 244.235 154.728,244.564 154.270,244.922 153.827 C 245.280 153.383,246.351 152.048,247.302 150.859 C 249.261 148.408,249.099 148.589,252.214 145.397 C 255.543 141.986,262.682 136.051,264.167 135.460 C 264.339 135.392,264.912 135.026,265.442 134.647 C 265.971 134.268,266.465 133.958,266.539 133.958 C 266.614 133.958,267.025 133.739,267.452 133.470 C 268.352 132.904,273.252 130.418,274.479 129.904 C 276.916 128.884,277.713 128.590,279.896 127.906 C 282.868 126.974,283.010 126.891,283.083 126.021 C 283.136 125.400,283.061 125.246,282.605 125.038 C 282.038 124.780,282.021 124.779,281.354 124.942 M244.792 126.530 C 242.154 127.434,238.123 129.114,236.979 129.786 C 236.635 129.987,235.698 130.506,234.896 130.939 C 232.073 132.460,226.275 136.488,224.609 138.084 C 224.406 138.278,223.637 138.951,222.901 139.579 C 220.397 141.714,217.459 144.831,213.481 149.571 C 213.184 149.925,212.523 150.818,212.083 151.458 C 211.911 151.709,211.557 152.163,211.296 152.467 C 211.035 152.772,210.521 153.490,210.153 154.063 C 209.786 154.635,209.320 155.286,209.118 155.508 C 208.916 155.730,208.750 155.988,208.750 156.080 C 208.750 156.173,208.422 156.706,208.021 157.264 C 207.620 157.822,207.292 158.335,207.292 158.403 C 207.292 158.472,206.845 159.258,206.298 160.149 C 204.750 162.677,200.955 170.112,199.994 172.500 C 199.741 173.130,199.411 173.927,199.261 174.271 C 198.477 176.067,197.686 178.585,197.745 179.095 C 197.823 179.766,199.055 180.309,199.364 179.809 C 199.453 179.665,199.609 179.556,199.711 179.566 C 199.813 179.575,199.975 179.326,200.071 179.010 C 200.167 178.695,200.378 178.142,200.540 177.781 C 200.701 177.420,200.833 177.020,200.833 176.893 C 200.833 176.765,200.919 176.498,201.025 176.299 C 201.350 175.684,202.133 173.866,202.168 173.646 C 202.200 173.437,202.488 172.806,203.986 169.664 C 204.429 168.734,204.792 167.905,204.792 167.821 C 204.792 167.737,204.976 167.409,205.202 167.092 C 205.428 166.775,205.553 166.456,205.480 166.383 C 205.407 166.310,205.457 166.250,205.590 166.250 C 205.724 166.250,205.833 166.165,205.833 166.062 C 205.833 165.958,206.156 165.302,206.551 164.603 C 206.946 163.905,207.204 163.332,207.124 163.330 C 207.044 163.328,207.078 163.258,207.198 163.174 C 207.467 162.986,208.789 160.833,208.636 160.833 C 208.575 160.833,208.626 160.716,208.750 160.573 C 209.262 159.979,211.631 156.250,211.498 156.247 C 211.419 156.245,211.451 156.175,211.570 156.091 C 211.688 156.006,212.525 154.953,213.430 153.750 C 215.195 151.404,217.148 148.951,218.324 147.604 C 219.767 145.952,225.368 140.498,226.668 139.479 C 227.399 138.906,228.190 138.273,228.426 138.071 C 232.731 134.392,240.543 130.280,247.116 128.233 C 248.533 127.792,248.945 127.575,249.040 127.221 C 249.509 125.474,248.398 125.293,244.792 126.530 M173.795 138.530 C 173.006 139.386,172.847 139.594,172.393 140.365 C 172.173 140.737,171.920 141.042,171.830 141.042 C 171.740 141.042,171.667 141.131,171.667 141.240 C 171.667 141.350,171.190 142.076,170.608 142.855 C 169.568 144.246,168.127 146.511,165.127 151.472 C 161.475 157.510,155.892 170.195,154.679 175.208 C 154.637 175.380,154.326 176.464,153.987 177.617 C 153.649 178.769,153.313 180.079,153.242 180.527 C 153.171 180.975,152.981 181.860,152.820 182.494 C 150.967 189.775,150.403 201.893,151.572 209.291 C 151.702 210.115,152.463 210.519,153.229 210.170 C 153.708 209.952,153.853 209.586,153.793 208.750 C 153.718 207.705,153.488 205.216,153.418 204.688 C 153.291 203.736,153.295 196.041,153.423 194.878 C 153.485 194.315,153.637 192.823,153.761 191.563 C 153.950 189.651,154.934 183.674,155.305 182.188 C 155.363 181.958,155.541 181.208,155.703 180.521 C 156.019 179.172,156.809 176.401,157.543 174.063 C 157.795 173.260,158.009 172.557,158.018 172.500 C 158.028 172.443,158.140 172.208,158.268 171.979 C 158.396 171.750,158.504 171.490,158.508 171.401 C 158.516 171.227,159.270 169.118,159.568 168.438 C 159.668 168.208,159.947 167.577,160.188 167.034 C 160.428 166.490,160.625 165.985,160.625 165.911 C 160.625 165.758,160.954 165.034,162.480 161.836 C 163.064 160.611,163.542 159.561,163.542 159.501 C 163.542 159.442,163.820 158.920,164.161 158.343 C 164.502 157.765,164.713 157.290,164.630 157.288 C 164.547 157.287,164.573 157.216,164.688 157.132 C 164.803 157.048,165.034 156.698,165.201 156.354 C 165.369 156.010,165.670 155.484,165.872 155.185 C 166.073 154.885,166.178 154.581,166.105 154.508 C 166.032 154.435,166.087 154.375,166.228 154.375 C 166.368 154.375,166.432 154.292,166.369 154.190 C 166.306 154.089,166.394 153.890,166.565 153.748 C 166.735 153.606,166.875 153.362,166.875 153.204 C 166.875 153.046,166.954 152.917,167.050 152.917 C 167.196 152.917,167.740 152.012,167.801 151.667 C 167.811 151.609,168.212 150.988,168.692 150.286 C 169.172 149.583,169.506 148.951,169.435 148.879 C 169.364 148.808,169.398 148.750,169.510 148.750 C 169.623 148.750,169.936 148.352,170.207 147.865 C 170.477 147.378,170.758 146.932,170.832 146.875 C 171.088 146.675,172.292 144.819,172.292 144.623 C 172.292 144.515,172.424 144.316,172.587 144.181 C 172.749 144.046,173.333 143.262,173.885 142.437 C 174.437 141.612,174.942 140.891,175.007 140.833 C 175.071 140.776,175.312 140.448,175.543 140.104 C 176.610 138.509,175.083 137.134,173.795 138.530 M122.624 141.106 C 121.582 142.172,120.589 143.229,120.417 143.454 C 117.895 146.752,115.693 150.432,114.567 153.229 C 114.474 153.458,114.166 154.171,113.883 154.814 C 112.966 156.887,111.196 163.084,110.764 165.729 C 110.658 166.378,110.319 168.571,109.992 170.729 C 108.916 177.816,109.582 192.306,111.391 201.146 C 111.438 201.375,111.565 202.031,111.673 202.604 C 112.864 208.882,113.378 210.619,114.167 211.042 C 115.350 211.675,115.905 210.428,115.374 208.330 C 114.866 206.319,114.597 205.207,114.496 204.688 C 114.411 204.253,114.054 202.565,113.858 201.667 C 113.795 201.380,113.702 200.865,113.650 200.521 C 113.598 200.177,113.503 199.661,113.437 199.375 C 113.298 198.763,113.249 198.450,112.818 195.417 C 112.683 194.465,112.319 191.428,112.182 190.104 C 111.696 185.432,111.695 176.149,112.181 172.292 C 112.232 171.891,112.318 171.188,112.374 170.729 C 112.676 168.232,113.209 165.321,113.784 163.021 C 114.014 162.104,114.231 161.208,114.268 161.029 C 114.566 159.595,116.341 155.061,117.649 152.396 C 119.422 148.783,121.955 145.201,124.943 142.083 C 126.305 140.662,126.510 140.092,125.869 139.511 C 125.114 138.828,124.607 139.077,122.624 141.106 M135.483 157.539 C 135.061 157.744,132.794 162.003,132.400 163.333 C 132.315 163.620,132.120 164.135,131.967 164.479 C 131.656 165.176,130.828 167.626,130.725 168.152 C 130.689 168.339,130.520 168.901,130.351 169.402 C 130.049 170.295,129.296 173.771,129.093 175.208 C 128.350 180.459,128.306 180.984,128.229 185.521 C 128.119 192.046,128.556 197.136,129.928 205.313 C 130.216 207.031,130.499 208.719,130.557 209.063 C 130.614 209.406,130.898 210.766,131.188 212.083 C 131.478 213.401,131.792 214.854,131.886 215.313 C 131.981 215.771,132.208 216.755,132.391 217.500 C 132.574 218.245,132.765 219.033,132.815 219.251 C 132.864 219.469,133.209 220.852,133.581 222.324 L 134.258 225.000 135.462 225.000 C 136.125 225.000,136.667 224.957,136.667 224.905 C 136.667 224.853,136.343 223.517,135.947 221.936 C 134.702 216.963,133.600 212.092,132.917 208.542 C 132.685 207.339,132.448 206.120,132.390 205.833 C 132.256 205.169,131.957 203.195,131.570 200.417 C 131.290 198.404,131.074 196.427,130.720 192.604 C 130.559 190.873,130.558 183.386,130.718 181.458 C 130.816 180.278,130.987 178.831,131.360 176.042 C 131.682 173.632,133.283 167.454,133.898 166.250 C 134.044 165.964,134.165 165.654,134.165 165.561 C 134.167 165.308,136.134 160.843,136.641 159.942 C 137.366 158.650,136.948 156.983,135.980 157.306 C 135.957 157.314,135.733 157.419,135.483 157.539 M245.775 158.390 C 245.386 158.688,243.834 160.701,243.229 161.693 C 243.000 162.068,242.717 162.521,242.600 162.698 C 241.704 164.058,241.251 164.804,240.885 165.522 C 240.651 165.980,240.269 166.729,240.035 167.188 C 239.150 168.922,238.125 171.241,238.125 171.511 C 238.125 171.665,238.038 171.881,237.932 171.990 C 237.076 172.869,234.270 183.315,233.429 188.750 C 233.349 189.266,233.249 189.875,233.205 190.104 C 232.747 192.517,231.863 200.437,231.566 204.792 C 231.500 205.766,231.406 206.984,231.359 207.500 C 231.253 208.640,231.090 210.922,230.933 213.438 C 230.868 214.469,230.765 215.662,230.703 216.089 C 230.448 217.841,231.382 219.015,232.371 218.187 C 232.614 217.984,232.835 217.809,232.862 217.800 C 232.975 217.762,233.101 216.297,233.451 210.938 C 233.511 210.021,233.596 208.896,233.640 208.438 C 233.685 207.979,233.782 206.760,233.856 205.729 C 234.106 202.256,234.970 193.967,235.105 193.749 C 235.149 193.677,235.206 193.156,235.231 192.591 C 235.256 192.025,235.343 191.375,235.424 191.146 C 235.505 190.917,235.638 190.214,235.718 189.583 C 235.960 187.694,235.972 187.620,236.101 187.188 C 236.170 186.958,236.279 186.408,236.345 185.965 C 236.410 185.522,236.505 185.094,236.554 185.013 C 236.604 184.933,236.707 184.405,236.782 183.840 C 236.858 183.275,236.972 182.725,237.037 182.619 C 237.101 182.512,237.328 181.715,237.541 180.848 C 237.754 179.981,237.959 179.177,237.995 179.063 C 238.032 178.948,238.109 178.714,238.165 178.542 C 238.222 178.370,238.625 177.151,239.060 175.833 C 239.495 174.516,239.920 173.344,240.003 173.229 C 240.086 173.115,240.271 172.646,240.415 172.188 C 240.558 171.729,240.845 171.026,241.051 170.625 C 241.257 170.224,241.667 169.380,241.960 168.750 C 242.254 168.120,242.776 167.135,243.120 166.563 C 243.465 165.990,243.845 165.333,243.964 165.104 C 244.585 163.918,245.347 162.794,246.733 161.025 C 247.513 160.028,247.796 158.943,247.376 158.559 C 247.015 158.230,246.109 158.134,245.775 158.390 M91.005 167.553 C 89.556 168.770,86.982 174.026,86.052 177.668 C 84.506 183.723,84.675 190.657,86.571 198.958 C 87.207 201.746,90.547 211.577,91.435 213.279 C 91.541 213.481,92.070 214.724,92.613 216.042 C 93.155 217.359,93.769 218.813,93.977 219.271 C 94.185 219.729,94.721 220.948,95.168 221.979 C 96.127 224.190,96.688 224.682,97.580 224.097 C 98.429 223.541,98.080 222.382,94.998 215.521 C 94.895 215.292,94.568 214.495,94.271 213.750 C 93.974 213.005,93.629 212.161,93.504 211.875 C 91.985 208.387,89.744 201.692,88.840 197.941 C 86.887 189.836,86.864 183.029,88.772 177.083 C 89.390 175.156,91.202 171.269,91.790 170.609 C 91.951 170.428,92.083 170.207,92.083 170.118 C 92.083 170.029,92.318 169.677,92.604 169.337 C 93.802 167.913,92.417 166.368,91.005 167.553 M173.885 172.552 C 173.386 173.008,172.453 175.617,171.967 177.917 C 171.904 178.214,171.625 179.359,171.459 180.000 C 171.161 181.149,170.453 185.337,170.209 187.396 C 169.276 195.273,169.476 205.749,170.743 215.313 C 171.264 219.241,171.327 219.678,171.692 221.875 C 171.815 222.620,171.959 223.510,172.010 223.854 C 172.176 224.966,172.219 225.000,173.454 225.000 L 174.630 225.000 174.506 224.323 C 174.438 223.951,174.327 223.271,174.259 222.813 C 174.192 222.354,173.911 220.591,173.636 218.894 C 173.361 217.197,173.085 215.276,173.023 214.623 C 172.962 213.971,172.867 213.156,172.813 212.813 C 172.243 209.165,171.979 204.689,171.979 198.646 C 171.979 194.255,172.195 189.077,172.391 188.756 C 172.428 188.695,172.519 187.990,172.593 187.188 C 172.667 186.385,172.764 185.589,172.810 185.417 C 172.855 185.245,172.946 184.742,173.011 184.299 C 173.077 183.856,173.166 183.434,173.210 183.361 C 173.253 183.289,173.350 182.767,173.426 182.202 C 173.502 181.637,173.601 181.113,173.648 181.039 C 173.694 180.964,173.787 180.582,173.854 180.191 C 173.922 179.799,174.082 179.104,174.211 178.646 C 174.340 178.188,174.476 177.695,174.514 177.552 C 174.659 177.008,174.732 176.761,174.841 176.458 C 174.962 176.119,175.460 174.400,175.535 174.063 C 175.560 173.948,175.602 173.760,175.628 173.646 C 175.767 173.025,175.572 172.543,175.094 172.325 C 174.418 172.017,174.485 172.004,173.885 172.552 M222.083 173.360 C 214.351 178.712,208.510 188.624,206.689 199.479 C 205.871 204.361,205.742 206.150,205.746 212.604 C 205.749 218.309,205.964 222.269,206.387 224.381 C 206.505 224.975,206.555 225.000,207.630 225.000 C 208.917 225.000,208.852 225.178,208.542 222.500 C 207.922 217.125,207.870 208.391,208.431 203.958 C 208.720 201.674,208.798 201.133,208.852 201.042 C 208.886 200.984,208.975 200.469,209.050 199.896 C 209.724 194.726,213.709 185.212,216.406 182.332 C 216.549 182.179,216.667 181.963,216.667 181.851 C 216.667 181.596,222.624 175.625,222.880 175.625 C 223.357 175.625,224.427 174.412,224.427 173.870 C 224.427 172.682,223.389 172.456,222.083 173.360 M201.664 181.283 C 201.040 181.494,200.919 181.677,199.272 184.896 C 196.925 189.481,195.289 193.889,193.858 199.479 C 192.123 206.258,191.238 212.158,190.734 220.313 C 190.663 221.458,190.567 222.982,190.520 223.698 L 190.436 225.000 191.560 225.000 C 192.950 225.000,192.839 225.247,193.008 221.771 C 193.086 220.167,193.185 218.526,193.227 218.125 C 193.269 217.724,193.405 216.365,193.530 215.104 C 194.231 208.006,196.005 199.492,197.806 194.583 C 197.996 194.068,198.248 193.318,198.368 192.917 C 198.487 192.516,198.652 192.094,198.733 191.979 C 198.814 191.865,199.144 191.115,199.466 190.313 C 200.162 188.575,201.385 186.023,202.394 184.202 C 203.508 182.192,203.155 180.780,201.664 181.283 " stroke="none" fill="#5cb3fc" fill-rule="evenodd"></path><path id="path2" d="M123.438 0.752 C 122.406 1.151,121.141 1.667,120.625 1.898 C 120.109 2.129,119.406 2.442,119.063 2.594 C 117.019 3.499,111.154 6.444,110.048 7.119 C 109.330 7.558,108.693 7.917,108.632 7.917 C 108.571 7.917,107.987 8.268,107.334 8.697 C 106.680 9.126,106.052 9.525,105.938 9.584 C 104.889 10.120,99.874 13.699,98.125 15.158 C 97.380 15.779,96.349 16.629,95.833 17.047 C 94.817 17.870,88.346 24.291,87.499 25.317 C 85.280 28.005,83.440 30.447,82.634 31.771 C 82.285 32.344,81.948 32.859,81.883 32.917 C 81.819 32.974,81.582 33.372,81.357 33.802 C 81.131 34.232,80.897 34.583,80.837 34.583 C 80.776 34.583,80.592 34.888,80.428 35.260 C 80.264 35.633,80.013 36.055,79.871 36.199 C 79.630 36.441,79.663 37.331,79.928 37.760 C 80.265 38.306,81.875 38.232,81.875 37.672 C 81.875 37.493,82.249 36.893,84.776 33.021 C 87.559 28.757,93.604 21.962,97.288 18.958 C 97.780 18.557,98.286 18.132,98.414 18.014 C 98.541 17.896,99.490 17.149,100.521 16.353 C 101.552 15.558,102.443 14.849,102.500 14.777 C 102.557 14.705,102.943 14.421,103.357 14.146 C 103.771 13.871,104.946 13.083,105.968 12.396 C 106.990 11.708,108.010 11.032,108.236 10.894 C 115.060 6.698,122.350 3.437,131.354 0.554 L 133.021 0.021 129.167 0.023 L 125.313 0.026 123.438 0.752 M173.542 6.996 C 172.682 7.250,170.620 7.845,168.958 8.319 C 160.899 10.614,156.516 11.984,153.229 13.237 C 152.427 13.543,151.402 13.929,150.952 14.096 C 144.688 16.414,137.113 21.178,133.647 24.978 C 133.188 25.482,132.457 26.279,132.022 26.749 C 128.508 30.551,124.619 39.861,126.017 41.124 C 127.093 42.096,127.857 41.268,128.440 38.497 C 129.346 34.191,134.359 26.883,138.628 23.646 C 138.930 23.417,139.292 23.129,139.432 23.006 C 141.198 21.465,147.386 18.059,151.250 16.502 C 153.401 15.635,158.445 13.842,159.583 13.540 C 160.099 13.403,160.896 13.170,161.354 13.022 C 161.813 12.874,163.031 12.505,164.063 12.202 C 165.094 11.898,166.561 11.463,167.322 11.234 C 168.084 11.005,168.881 10.780,169.093 10.734 C 173.731 9.731,176.250 8.659,176.250 7.688 C 176.250 6.647,175.431 6.438,173.542 6.996 M73.958 14.207 C 65.815 15.792,55.074 21.185,48.333 27.073 C 48.047 27.323,47.266 28.005,46.599 28.588 C 44.968 30.012,40.380 34.612,38.958 36.247 C 38.328 36.972,37.610 37.789,37.363 38.063 C 37.116 38.337,36.600 38.948,36.217 39.421 C 35.834 39.895,35.240 40.629,34.896 41.054 C 34.248 41.854,33.265 43.136,31.990 44.846 C 31.583 45.391,31.250 45.922,31.250 46.026 C 31.250 46.130,31.165 46.247,31.061 46.285 C 30.845 46.364,26.709 52.491,25.933 53.882 C 25.357 54.913,25.242 56.042,25.712 56.042 C 25.874 56.042,26.038 56.120,26.076 56.215 C 26.277 56.715,27.515 55.986,28.059 55.048 C 28.373 54.506,28.704 54.031,28.794 53.993 C 28.885 53.955,28.958 53.844,28.958 53.746 C 28.958 53.648,29.552 52.695,30.278 51.628 C 33.540 46.833,34.021 46.140,34.156 46.042 C 34.234 45.984,34.714 45.375,35.221 44.688 C 36.473 42.990,38.818 40.053,39.792 38.963 C 43.566 34.737,46.209 32.093,49.241 29.508 C 49.797 29.034,50.500 28.427,50.803 28.161 C 54.201 25.168,62.175 20.423,66.250 18.968 C 66.651 18.825,67.167 18.622,67.396 18.517 C 68.386 18.065,72.823 16.861,74.963 16.464 C 76.721 16.138,77.201 15.834,77.115 15.100 C 76.966 13.815,76.560 13.700,73.958 14.207 M119.569 23.422 C 118.343 24.138,112.886 27.709,112.708 27.912 C 112.651 27.978,111.901 28.540,111.042 29.161 C 109.599 30.204,107.151 32.187,105.121 33.958 C 103.914 35.011,97.538 41.390,96.559 42.524 C 96.103 43.053,95.448 43.843,95.104 44.281 C 94.760 44.719,94.327 45.224,94.141 45.403 C 93.617 45.909,89.553 51.426,88.760 52.708 C 88.370 53.339,87.894 54.042,87.701 54.271 C 87.509 54.500,87.174 55.016,86.957 55.417 C 86.740 55.818,86.516 56.193,86.458 56.250 C 86.401 56.307,86.127 56.776,85.849 57.292 C 85.571 57.807,85.281 58.276,85.205 58.333 C 85.015 58.476,83.478 61.315,82.159 63.958 C 78.969 70.354,78.611 71.578,79.799 72.024 C 80.668 72.350,81.109 72.113,81.518 71.100 C 82.187 69.448,84.644 64.361,85.673 62.500 C 85.958 61.984,86.496 61.000,86.869 60.313 C 87.241 59.625,87.817 58.659,88.148 58.166 C 88.480 57.673,88.904 56.970,89.092 56.604 C 89.280 56.237,89.503 55.891,89.589 55.833 C 89.675 55.776,89.919 55.431,90.133 55.066 C 90.713 54.076,92.514 51.445,93.117 50.707 C 93.408 50.351,93.833 49.794,94.063 49.469 C 94.506 48.839,97.223 45.466,97.592 45.086 C 97.713 44.962,98.328 44.259,98.958 43.524 C 100.346 41.905,105.092 37.146,106.671 35.790 C 108.953 33.830,110.455 32.585,111.494 31.793 C 112.747 30.838,114.407 29.616,115.000 29.212 C 115.286 29.017,115.615 28.783,115.729 28.692 C 116.104 28.393,118.622 26.790,120.213 25.838 C 122.452 24.497,122.738 24.005,121.769 23.163 C 121.107 22.587,120.975 22.602,119.569 23.422 M221.703 23.899 C 219.931 24.237,213.074 26.995,211.250 28.103 C 210.734 28.417,210.136 28.739,209.921 28.820 C 209.526 28.967,205.402 31.640,205.208 31.873 C 205.151 31.943,204.776 32.224,204.375 32.499 C 203.075 33.391,197.910 38.394,196.979 39.664 C 196.750 39.977,196.308 40.532,195.998 40.898 C 195.687 41.263,195.312 41.797,195.165 42.083 C 195.017 42.370,194.845 42.651,194.783 42.708 C 194.430 43.031,191.667 48.211,191.667 48.549 C 191.667 48.653,191.444 49.233,191.172 49.838 C 190.091 52.240,189.991 53.508,190.848 53.966 C 191.620 54.379,192.342 53.737,192.885 52.155 C 195.282 45.175,199.980 38.802,206.147 34.167 C 206.833 33.651,207.488 33.154,207.603 33.063 C 209.630 31.454,214.770 28.800,218.164 27.609 C 223.524 25.730,223.014 25.976,223.087 25.229 C 223.140 24.694,222.411 23.492,222.208 23.778 C 222.197 23.794,221.970 23.848,221.703 23.899 M161.042 32.759 C 160.755 32.886,160.099 33.163,159.583 33.374 C 155.621 34.996,151.044 38.478,148.167 42.061 C 147.743 42.589,147.348 43.068,147.290 43.125 C 146.900 43.511,145.417 45.648,145.417 45.824 C 145.417 45.944,145.338 46.042,145.241 46.042 C 145.145 46.042,144.803 46.534,144.482 47.135 C 144.161 47.737,143.771 48.377,143.615 48.558 C 143.299 48.927,138.908 57.593,138.134 59.375 C 137.624 60.550,136.714 62.584,136.037 64.063 C 134.247 67.972,133.669 69.201,133.198 70.104 C 130.784 74.728,130.701 74.986,131.445 75.566 C 132.566 76.440,133.313 75.548,135.754 70.417 C 136.272 69.328,136.964 67.875,137.292 67.188 C 137.620 66.500,138.164 65.328,138.500 64.583 C 139.291 62.831,139.907 61.471,140.671 59.792 C 142.571 55.611,146.737 47.771,147.313 47.292 C 147.381 47.234,147.475 47.078,147.521 46.944 C 148.604 43.774,156.351 37.185,161.309 35.216 C 163.031 34.532,163.487 33.431,162.302 32.818 C 161.964 32.643,161.659 32.506,161.625 32.514 C 161.591 32.522,161.328 32.632,161.042 32.759 M47.895 43.719 C 42.951 47.142,37.693 52.152,33.979 56.979 C 33.627 57.438,33.242 57.928,33.123 58.068 C 33.005 58.209,32.611 58.772,32.246 59.318 C 31.882 59.865,31.521 60.359,31.444 60.417 C 31.256 60.556,29.375 63.478,29.375 63.630 C 29.375 63.696,28.901 64.477,28.322 65.365 C 27.277 66.969,23.125 75.132,23.125 75.584 C 23.125 75.714,22.941 76.175,22.715 76.608 C 22.172 77.653,19.615 84.789,19.260 86.250 C 19.219 86.422,18.848 87.734,18.437 89.167 C 17.528 92.338,17.412 92.843,16.127 99.271 C 15.658 101.618,15.930 102.466,17.061 102.189 C 17.889 101.986,18.176 101.584,18.358 100.376 C 19.229 94.570,21.450 86.560,23.978 80.104 C 24.426 78.958,24.793 77.959,24.793 77.883 C 24.790 77.468,28.954 68.894,29.212 68.785 C 29.301 68.747,29.375 68.628,29.375 68.521 C 29.375 68.415,30.008 67.293,30.781 66.028 C 31.555 64.763,32.280 63.546,32.393 63.323 C 32.506 63.099,32.670 62.917,32.758 62.917 C 32.845 62.917,32.917 62.793,32.917 62.642 C 32.917 62.490,33.224 61.998,33.599 61.548 C 33.974 61.098,34.513 60.378,34.797 59.949 C 35.080 59.520,35.383 59.169,35.469 59.168 C 35.555 59.167,35.625 59.026,35.625 58.854 C 35.625 58.682,35.704 58.542,35.800 58.542 C 35.896 58.542,36.201 58.225,36.477 57.837 C 38.979 54.329,45.870 47.832,49.821 45.258 C 51.770 43.988,52.113 43.393,51.339 42.619 C 50.755 42.035,49.961 42.288,47.895 43.719 M68.741 50.172 C 60.732 53.828,53.177 59.501,47.708 65.967 C 47.307 66.441,46.636 67.238,46.216 67.737 C 45.059 69.115,41.507 73.979,41.140 74.688 C 40.962 75.031,40.431 75.922,39.960 76.667 C 38.437 79.074,35.431 84.729,34.313 87.292 C 34.138 87.693,33.660 88.780,33.250 89.708 C 31.072 94.641,30.934 95.974,32.604 95.947 C 33.338 95.936,33.555 95.566,35.231 91.458 C 36.725 87.798,38.219 84.605,39.521 82.292 C 39.747 81.891,40.240 81.000,40.618 80.313 C 41.365 78.950,43.566 75.376,43.761 75.208 C 43.827 75.151,44.247 74.542,44.694 73.854 C 45.493 72.624,47.777 69.623,48.701 68.587 C 48.960 68.296,49.570 67.585,50.055 67.008 C 55.326 60.737,63.624 54.715,71.305 51.588 C 72.676 51.030,72.418 49.112,70.980 49.168 C 70.957 49.169,69.949 49.621,68.741 50.172 M121.631 51.950 C 115.507 55.100,108.604 59.100,108.368 59.634 C 108.330 59.721,108.204 59.792,108.088 59.792 C 107.882 59.792,106.501 60.749,102.917 63.376 C 94.440 69.588,87.753 77.096,84.212 84.375 C 82.872 87.130,81.623 90.553,81.325 92.292 C 81.275 92.578,81.152 93.094,81.051 93.438 C 80.737 94.503,80.386 97.481,80.300 99.791 L 80.219 102.000 80.821 102.355 C 81.476 102.742,82.482 102.553,82.519 102.036 C 82.530 101.890,82.563 101.443,82.593 101.042 C 82.624 100.641,82.674 99.609,82.706 98.750 C 82.876 94.144,85.008 87.446,87.715 83.013 C 87.998 82.550,88.323 82.014,88.438 81.821 C 88.965 80.933,90.395 78.932,91.448 77.609 C 92.084 76.810,92.745 75.978,92.917 75.759 C 93.370 75.184,98.093 70.441,99.067 69.583 C 99.774 68.961,101.361 67.639,102.497 66.725 C 103.530 65.895,105.493 64.405,106.142 63.958 C 106.559 63.672,107.011 63.341,107.148 63.222 C 107.284 63.104,108.052 62.578,108.854 62.054 C 112.645 59.578,114.696 58.323,116.979 57.080 C 117.667 56.706,118.698 56.143,119.271 55.828 C 119.844 55.513,121.461 54.676,122.865 53.967 C 125.492 52.640,125.860 52.235,125.257 51.333 C 124.713 50.518,124.269 50.593,121.631 51.950 M113.915 83.618 C 112.147 84.818,107.197 89.750,104.271 93.227 C 103.522 94.117,102.996 94.738,102.262 95.600 C 101.155 96.898,96.875 102.985,96.875 103.260 C 96.875 103.322,96.698 103.622,96.481 103.926 C 93.181 108.562,89.838 117.802,89.095 124.344 C 88.303 131.321,89.065 135.634,90.865 134.352 L 91.484 133.912 91.340 132.320 C 91.027 128.860,91.309 123.821,91.953 121.354 C 91.983 121.240,92.079 120.818,92.166 120.417 C 92.253 120.016,92.641 118.656,93.028 117.396 C 93.415 116.135,93.739 115.035,93.747 114.951 C 93.777 114.655,95.385 111.059,96.240 109.375 C 97.717 106.469,98.668 104.824,99.975 102.917 C 100.485 102.172,101.187 101.141,101.534 100.625 C 101.882 100.109,102.223 99.641,102.292 99.583 C 102.361 99.526,102.691 99.104,103.024 98.646 C 103.574 97.889,105.603 95.402,107.186 93.544 C 108.190 92.367,114.204 86.389,114.992 85.785 C 116.557 84.587,115.531 82.521,113.915 83.618 M57.292 88.586 C 50.556 92.263,44.312 97.651,38.873 104.479 C 38.234 105.281,37.635 106.031,37.542 106.146 C 37.202 106.565,34.015 111.387,33.343 112.500 C 31.993 114.734,30.061 118.465,28.865 121.146 C 28.558 121.833,28.223 122.553,28.120 122.745 C 27.773 123.392,26.903 125.625,26.999 125.625 C 27.051 125.625,26.961 125.883,26.798 126.198 C 25.419 128.865,23.060 137.782,22.183 143.646 C 21.995 144.906,21.803 146.172,21.757 146.458 C 21.204 149.936,21.528 151.582,22.720 151.352 C 23.500 151.202,23.699 150.858,23.839 149.421 C 24.632 141.301,26.654 132.848,29.392 126.210 C 29.726 125.398,30.000 124.655,30.000 124.559 C 30.000 124.334,31.435 121.246,32.603 118.958 C 37.944 108.494,44.491 100.451,52.500 94.515 C 53.359 93.878,54.176 93.258,54.314 93.137 C 54.453 93.016,54.618 92.917,54.681 92.917 C 54.744 92.917,55.334 92.552,55.992 92.106 C 56.649 91.661,57.871 90.936,58.706 90.496 C 60.221 89.697,60.550 89.285,60.380 88.402 C 60.340 88.192,60.199 88.021,60.067 88.021 C 59.934 88.021,59.756 87.951,59.670 87.865 C 59.378 87.573,58.857 87.731,57.292 88.586 M168.015 89.650 C 157.633 95.965,148.195 104.883,143.438 112.872 C 143.323 113.065,142.985 113.599,142.686 114.059 C 141.774 115.465,139.084 121.299,138.868 122.340 C 138.838 122.485,138.760 122.745,138.696 122.917 C 138.631 123.089,138.520 123.464,138.449 123.750 C 138.378 124.036,138.137 124.974,137.913 125.833 C 137.325 128.091,137.361 128.668,138.114 129.057 C 139.043 129.537,139.642 128.888,140.128 126.875 C 140.335 126.016,140.516 125.266,140.530 125.208 C 140.841 123.922,142.082 120.579,142.772 119.171 C 143.508 117.669,145.471 114.072,145.616 113.958 C 145.690 113.901,146.041 113.375,146.397 112.790 C 147.001 111.795,148.668 109.619,150.689 107.188 C 151.732 105.933,156.968 100.726,158.650 99.271 C 159.788 98.286,160.969 97.369,163.415 95.572 C 164.906 94.477,169.770 91.245,170.143 91.102 C 171.071 90.746,170.503 88.626,169.514 88.755 C 169.495 88.757,168.820 89.160,168.015 89.650 M71.458 92.591 C 63.547 96.920,54.155 105.801,51.023 111.915 C 50.806 112.338,50.397 113.026,50.113 113.444 C 49.536 114.295,47.429 118.571,47.191 119.375 C 47.106 119.661,46.916 120.177,46.768 120.521 C 46.415 121.339,45.460 124.197,45.331 124.823 C 45.129 125.801,45.015 126.290,44.913 126.631 C 44.380 128.401,44.272 130.815,44.710 131.147 C 45.724 131.914,46.546 131.125,46.874 129.068 C 48.411 119.447,55.626 107.426,63.944 100.625 C 64.435 100.224,65.052 99.708,65.316 99.479 C 65.580 99.250,66.005 98.922,66.261 98.750 C 66.516 98.578,66.969 98.249,67.269 98.018 C 68.570 97.015,73.142 94.173,73.475 94.160 C 74.354 94.126,74.769 92.739,74.085 92.119 C 73.481 91.571,73.245 91.613,71.458 92.591 M18.300 111.821 C 17.764 112.146,15.068 116.061,13.745 118.438 C 13.362 119.125,12.990 119.734,12.920 119.792 C 12.849 119.849,12.618 120.271,12.406 120.729 C 12.195 121.188,11.965 121.609,11.895 121.667 C 11.761 121.777,10.323 124.673,9.082 127.334 C 8.336 128.934,7.611 130.747,6.852 132.917 C 6.631 133.547,6.323 134.344,6.167 134.688 C 6.011 135.031,5.742 135.781,5.569 136.354 C 4.852 138.728,4.578 139.693,4.595 139.792 C 4.605 139.849,4.502 140.177,4.368 140.521 C 4.233 140.865,3.718 142.833,3.224 144.896 C 2.439 148.170,2.095 149.795,1.746 151.875 C 1.698 152.161,1.614 152.630,1.559 152.917 C 1.505 153.203,1.415 153.766,1.360 154.167 C 1.305 154.568,1.116 155.927,0.941 157.188 C -0.105 164.680,0.008 166.181,1.592 165.879 C 2.402 165.724,2.490 165.385,2.818 161.146 C 2.889 160.229,3.083 158.589,3.250 157.500 C 3.592 155.264,3.689 154.625,3.869 153.438 C 3.938 152.979,4.178 151.714,4.401 150.625 C 4.624 149.536,4.857 148.318,4.917 147.917 C 4.978 147.516,5.110 146.906,5.211 146.563 C 5.312 146.219,5.599 145.141,5.849 144.167 C 6.099 143.193,6.450 141.880,6.631 141.250 C 6.811 140.620,6.967 140.057,6.979 140.000 C 7.343 138.217,9.745 131.797,11.500 127.917 C 12.637 125.401,15.442 120.002,15.883 119.479 C 15.979 119.365,16.620 118.380,17.306 117.292 C 17.993 116.203,18.880 114.857,19.277 114.300 C 20.431 112.684,19.746 110.943,18.300 111.821 M68.431 115.251 C 67.668 115.851,65.929 117.725,64.930 119.024 C 64.682 119.346,64.223 119.909,63.910 120.274 C 63.596 120.639,63.338 121.055,63.337 121.198 C 63.335 121.341,63.246 121.458,63.139 121.458 C 63.032 121.458,62.885 121.645,62.813 121.874 C 62.740 122.102,62.567 122.407,62.427 122.551 C 61.855 123.141,59.644 127.355,58.792 129.479 C 57.811 131.925,56.836 134.742,56.561 135.923 C 55.600 140.052,55.147 142.519,54.876 145.104 C 54.815 145.677,54.727 146.379,54.680 146.663 C 54.175 149.682,54.181 162.486,54.689 168.125 C 54.735 168.641,54.835 169.813,54.911 170.729 C 54.987 171.646,55.076 172.677,55.109 173.021 C 55.142 173.365,55.232 174.443,55.309 175.417 C 55.557 178.540,57.789 179.490,57.757 176.458 C 57.754 176.210,57.475 172.737,57.397 171.979 C 56.725 165.476,56.435 150.124,56.940 147.813 C 56.990 147.583,57.095 146.740,57.172 145.938 C 57.711 140.364,59.389 133.944,61.502 129.375 C 62.509 127.196,62.931 126.330,63.177 125.938 C 64.077 124.499,66.329 121.141,66.530 120.937 C 66.663 120.803,66.958 120.436,67.188 120.122 C 67.417 119.807,68.236 118.878,69.009 118.056 C 70.616 116.347,70.867 115.481,69.886 115.033 C 69.175 114.710,69.106 114.720,68.431 115.251 M110.608 137.559 C 110.317 137.784,107.713 142.900,106.768 145.104 C 104.673 149.994,102.020 157.744,101.371 160.873 C 101.316 161.138,101.227 161.542,101.173 161.771 C 100.388 165.084,100.203 165.899,100.103 166.491 C 100.038 166.874,99.945 167.328,99.896 167.500 C 99.567 168.652,98.901 173.171,98.234 178.775 C 97.641 183.764,97.653 201.501,98.251 203.686 C 98.492 204.567,100.367 204.482,100.449 203.586 C 100.468 203.390,100.472 203.089,100.459 202.917 C 99.950 196.076,99.979 184.698,100.518 180.000 C 100.564 179.599,100.657 178.708,100.724 178.021 C 101.070 174.495,101.933 169.122,102.732 165.521 C 103.218 163.332,103.345 162.830,104.060 160.294 C 104.354 159.253,104.632 158.222,104.679 158.003 C 104.816 157.355,106.155 153.347,106.761 151.771 C 107.070 150.969,107.397 150.074,107.489 149.782 C 107.642 149.292,108.366 147.589,109.743 144.479 C 110.047 143.792,110.804 142.245,111.425 141.042 C 112.548 138.866,112.792 137.813,112.253 137.471 C 111.855 137.219,110.989 137.265,110.608 137.559 M77.784 149.202 C 77.539 149.321,77.235 149.619,77.107 149.865 C 76.979 150.111,76.544 150.875,76.140 151.563 C 73.420 156.194,70.379 163.503,69.467 167.604 C 69.441 167.719,69.260 168.422,69.065 169.167 C 68.485 171.374,67.811 174.684,67.603 176.354 C 67.531 176.927,67.436 177.536,67.392 177.708 C 67.347 177.880,67.253 178.583,67.182 179.271 C 67.110 179.958,67.013 180.755,66.965 181.042 C 66.459 184.069,66.456 195.793,66.961 200.313 C 66.999 200.656,67.097 201.686,67.179 202.600 C 67.260 203.515,67.356 204.311,67.393 204.371 C 67.429 204.430,67.521 205.135,67.596 205.938 C 67.672 206.740,67.816 207.771,67.917 208.229 C 68.017 208.688,68.259 210.000,68.454 211.146 C 69.472 217.109,69.945 218.295,71.064 217.696 C 71.890 217.254,71.936 216.711,71.382 213.949 C 70.890 211.503,69.940 205.897,69.706 204.063 C 69.551 202.849,69.320 200.223,69.054 196.667 C 68.990 195.807,68.936 193.135,68.935 190.729 C 68.933 186.709,68.977 185.594,69.285 181.979 C 69.481 179.687,70.012 175.961,70.443 173.854 C 70.678 172.708,70.899 171.630,70.934 171.458 C 70.969 171.285,71.111 170.723,71.250 170.208 C 71.389 169.694,71.538 169.085,71.582 168.856 C 72.219 165.552,75.647 157.302,78.209 152.909 C 79.636 150.461,79.815 149.769,79.141 149.297 C 78.591 148.912,78.409 148.899,77.784 149.202 M40.400 157.252 C 40.153 157.516,39.227 160.263,39.052 161.250 C 39.042 161.307,38.921 161.748,38.783 162.228 C 38.247 164.094,36.792 171.937,36.548 174.271 C 36.477 174.958,36.386 175.755,36.347 176.042 C 35.328 183.570,36.032 194.800,38.013 202.604 C 39.750 209.447,44.031 217.596,48.177 221.954 C 48.607 222.406,48.958 222.848,48.958 222.936 C 48.958 223.855,51.215 224.140,51.608 223.271 C 51.935 222.549,51.846 222.414,48.718 218.905 C 48.414 218.563,47.721 217.616,47.178 216.798 C 46.635 215.981,46.010 215.048,45.787 214.725 C 45.565 214.403,45.063 213.535,44.671 212.797 C 44.280 212.058,43.869 211.291,43.758 211.092 C 43.647 210.892,43.374 210.307,43.152 209.792 C 42.929 209.276,42.520 208.339,42.241 207.708 C 41.963 207.078,41.718 206.469,41.697 206.354 C 41.676 206.240,41.337 205.115,40.944 203.854 C 38.623 196.405,37.623 184.460,38.650 176.458 C 38.752 175.669,38.939 174.342,39.471 170.625 C 39.677 169.189,40.703 164.578,41.372 162.083 C 42.350 158.435,42.460 157.514,41.963 157.150 C 41.457 156.780,40.801 156.823,40.400 157.252 M17.447 164.297 C 17.133 164.461,16.678 164.991,16.435 165.475 C 16.192 165.958,15.877 166.495,15.735 166.667 C 15.010 167.545,12.615 173.370,12.053 175.625 C 11.618 177.368,11.216 179.340,11.119 180.208 C 11.061 180.724,10.973 181.271,10.923 181.424 C 10.152 183.793,10.437 193.829,11.441 199.688 C 11.559 200.375,11.710 201.313,11.777 201.771 C 11.844 202.229,11.945 202.761,12.000 202.952 C 12.055 203.143,12.136 203.472,12.179 203.681 C 12.642 205.940,12.951 207.310,13.135 207.917 C 13.257 208.318,13.391 208.786,13.434 208.958 C 13.740 210.195,14.762 213.592,15.761 216.694 C 17.091 220.823,17.435 221.311,18.594 220.704 C 19.371 220.297,19.339 219.781,18.359 216.875 C 17.468 214.232,16.638 211.557,16.630 211.307 C 16.628 211.218,16.546 210.996,16.448 210.813 C 16.350 210.631,16.226 210.256,16.173 209.980 C 16.120 209.705,15.795 208.387,15.450 207.052 C 12.250 194.670,12.009 182.883,14.794 174.896 C 15.033 174.208,15.328 173.318,15.449 172.917 C 15.570 172.516,15.790 171.953,15.939 171.667 C 16.087 171.380,16.604 170.349,17.087 169.375 C 17.570 168.401,18.237 167.200,18.568 166.705 C 19.642 165.103,18.909 163.531,17.447 164.297 " stroke="none" fill="#5c6cfc" fill-rule="evenodd"></path><path id="path3" d="M268.216 37.760 L 267.604 38.438 268.281 37.826 C 268.912 37.255,269.054 37.083,268.893 37.083 C 268.857 37.083,268.553 37.388,268.216 37.760 M150.197 39.740 L 149.479 40.521 150.260 39.803 C 150.988 39.135,151.137 38.958,150.978 38.958 C 150.944 38.958,150.592 39.310,150.197 39.740 M52.917 63.854 C 52.411 64.370,52.043 64.792,52.101 64.792 C 52.158 64.792,52.619 64.370,53.125 63.854 C 53.631 63.339,53.998 62.917,53.941 62.917 C 53.884 62.917,53.423 63.339,52.917 63.854 M130.465 186.875 C 130.465 187.276,130.508 187.440,130.560 187.240 C 130.613 187.039,130.613 186.711,130.560 186.510 C 130.508 186.310,130.465 186.474,130.465 186.875 " stroke="none" fill="#6490fc" fill-rule="evenodd"></path><path id="path4" d="" stroke="none" fill="#100ac3c" fill-rule="evenodd"></path></g></svg>