<svg id="svg" version="1.1" xmlns="http://www.w3.org/2000/svg" xmlns:xlink="http://www.w3.org/1999/xlink" width="400" height="400" viewBox="0, 0, 400,400"><g id="svgg"><path id="path0" d="M369.541 166.188 C 370.002 166.276,370.669 166.273,371.023 166.180 C 371.377 166.088,371.000 166.015,370.185 166.019 C 369.370 166.023,369.081 166.099,369.541 166.188 M341.832 189.537 L 340.556 190.926 341.944 189.650 C 343.237 188.462,343.504 188.148,343.221 188.148 C 343.159 188.148,342.534 188.773,341.832 189.537 M323.511 188.902 C 323.389 189.098,322.924 189.263,322.478 189.267 C 315.489 189.334,302.963 200.640,302.963 206.882 C 302.963 209.904,305.359 209.061,306.623 205.594 C 309.800 196.881,321.707 190.305,330.543 192.383 C 333.523 193.084,335.468 191.618,333.606 190.073 C 332.492 189.148,323.969 188.159,323.511 188.902 M354.907 197.282 C 353.285 197.937,354.631 199.715,357.222 200.340 C 361.078 201.269,362.965 201.919,362.763 202.246 C 362.648 202.432,362.804 202.488,363.110 202.371 C 363.846 202.088,370.866 205.423,370.564 205.912 C 370.432 206.125,370.559 206.201,370.859 206.086 C 371.383 205.884,375.325 208.628,377.733 210.871 C 381.857 214.713,385.640 221.044,386.839 226.111 C 387.739 229.914,387.751 229.942,388.555 230.197 C 392.477 231.442,389.461 220.205,383.952 213.045 C 377.472 204.624,360.090 195.191,354.907 197.282 M319.074 213.566 C 299.869 216.360,286.036 225.114,279.279 238.750 C 277.422 242.498,277.366 243.889,279.074 243.889 C 280.103 243.889,280.326 243.621,282.092 240.260 C 285.600 233.584,289.855 228.923,296.255 224.745 C 297.778 223.750,299.253 223.024,299.532 223.130 C 299.810 223.237,299.950 223.182,299.842 223.007 C 299.586 222.593,304.548 220.340,308.344 219.147 C 315.095 217.025,323.101 216.050,329.528 216.569 C 333.891 216.921,334.815 216.716,334.815 215.395 C 334.815 213.809,333.733 213.554,326.667 213.476 C 323.102 213.437,319.685 213.478,319.074 213.566 M256.481 229.466 C 242.275 232.547,231.617 238.371,226.511 245.845 C 223.685 249.980,221.839 256.601,223.147 257.909 C 224.470 259.232,225.458 258.215,226.160 254.808 C 228.417 243.849,239.586 236.139,258.880 232.221 C 262.947 231.395,263.704 231.051,263.704 230.029 C 263.704 228.292,262.371 228.188,256.481 229.466 M350.724 233.344 C 339.727 234.883,323.406 244.327,327.738 246.645 C 328.481 247.043,328.711 246.921,332.861 243.931 C 333.966 243.135,334.983 242.653,335.233 242.807 C 335.500 242.972,335.572 242.918,335.417 242.668 C 335.104 242.162,336.526 241.351,337.102 241.707 C 337.340 241.854,337.420 241.802,337.287 241.587 C 336.744 240.707,345.374 237.477,350.452 236.659 C 355.540 235.839,366.098 236.972,365.306 238.252 C 365.166 238.479,365.254 238.520,365.525 238.352 C 365.778 238.196,366.973 238.517,368.218 239.075 L 370.455 240.080 371.241 239.294 C 374.345 236.190,360.038 232.041,350.724 233.344 M218.869 237.685 L 217.593 239.074 218.981 237.798 C 220.274 236.610,220.541 236.296,220.258 236.296 C 220.196 236.296,219.571 236.921,218.869 237.685 M248.241 247.062 C 231.817 249.197,217.803 263.116,210.944 284.108 C 208.200 292.507,207.971 295.185,210.000 295.185 C 211.020 295.185,211.303 294.580,212.714 289.375 C 215.044 280.777,218.469 273.244,222.779 267.237 C 225.709 263.153,228.608 259.955,229.181 260.175 C 229.449 260.278,229.575 260.211,229.461 260.027 C 228.898 259.116,238.720 252.371,240.093 252.726 C 240.450 252.818,240.653 252.751,240.545 252.576 C 240.094 251.846,247.950 250.020,251.667 249.991 C 253.745 249.975,254.815 249.371,254.815 248.213 C 254.815 246.709,253.169 246.421,248.241 247.062 M273.791 247.940 C 270.200 248.620,266.626 249.728,262.956 251.299 C 261.292 252.011,259.754 252.485,259.538 252.351 C 259.322 252.217,259.249 252.276,259.376 252.482 C 259.504 252.688,258.792 253.301,257.795 253.844 C 256.797 254.387,254.706 255.746,253.147 256.864 C 251.589 257.982,250.118 258.785,249.879 258.649 C 249.640 258.512,249.569 258.537,249.721 258.705 C 249.873 258.872,248.353 260.700,246.343 262.766 C 242.556 266.658,241.841 267.798,242.607 268.721 C 243.455 269.743,244.490 269.277,246.743 266.858 C 247.974 265.538,249.152 264.563,249.362 264.693 C 249.572 264.823,249.635 264.752,249.501 264.536 C 248.748 263.318,262.348 253.987,263.969 254.609 C 264.252 254.718,264.391 254.658,264.280 254.477 C 264.168 254.296,265.284 253.716,266.760 253.188 C 274.853 250.291,281.644 249.778,288.685 251.532 C 292.116 252.387,293.333 252.238,293.333 250.964 C 293.333 248.284,281.575 246.464,273.791 247.940 M359.136 248.546 C 355.939 249.645,354.074 250.929,354.074 252.029 C 354.074 253.685,355.258 253.864,357.784 252.590 C 364.967 248.963,371.083 251.207,381.952 261.453 C 385.813 265.092,386.792 265.652,387.704 264.741 C 388.617 263.828,388.047 262.947,384.093 259.159 C 373.720 249.218,366.324 246.073,359.136 248.546 M286.296 260.207 C 285.787 260.294,284.213 260.555,282.799 260.785 C 274.272 262.174,265.476 267.803,268.937 269.655 C 269.615 270.018,270.020 269.870,271.808 268.611 C 280.066 262.792,291.160 261.797,309.296 265.248 C 315.829 266.491,316.667 266.470,316.667 265.057 C 316.667 263.708,316.023 263.393,311.247 262.409 C 302.427 260.592,290.284 259.520,286.296 260.207 M181.205 272.778 C 181.209 273.593,181.284 273.882,181.373 273.422 C 181.462 272.961,181.458 272.294,181.366 271.940 C 181.273 271.586,181.200 271.963,181.205 272.778 M347.778 273.136 C 341.468 274.483,335.657 277.428,335.988 279.109 C 336.281 280.602,337.235 280.575,340.622 278.979 C 349.213 274.929,357.874 274.578,365.704 277.962 C 369.026 279.397,370.137 279.269,369.930 277.475 C 369.551 274.196,355.606 271.465,347.778 273.136 M292.320 274.340 C 292.883 274.425,293.716 274.423,294.172 274.335 C 294.627 274.247,294.167 274.177,293.148 274.180 C 292.130 274.183,291.757 274.255,292.320 274.340 M302.963 276.131 C 292.485 278.377,276.031 289.793,279.492 292.415 C 280.504 293.181,280.456 293.206,283.787 290.160 C 292.364 282.315,300.518 278.807,310.330 278.740 C 315.925 278.702,316.772 278.440,316.191 276.925 C 315.662 275.547,307.866 275.079,302.963 276.131 M270.370 283.764 C 269.046 283.951,266.304 284.669,264.277 285.361 C 262.250 286.053,260.433 286.520,260.239 286.400 C 260.030 286.271,260.010 286.383,260.189 286.672 C 260.416 287.040,260.317 287.096,259.794 286.895 C 259.411 286.748,259.214 286.745,259.358 286.889 C 259.501 287.032,258.163 288.092,256.384 289.244 C 246.514 295.630,232.795 313.111,235.736 315.552 C 236.767 316.408,237.909 315.685,239.072 313.438 C 241.982 307.820,247.938 300.045,252.100 296.430 C 255.367 293.592,259.187 291.022,259.682 291.328 C 259.971 291.508,260.014 291.434,259.811 291.105 C 259.589 290.746,259.678 290.680,260.144 290.859 C 260.493 290.993,260.689 290.957,260.579 290.778 C 260.309 290.341,264.409 288.426,265.071 288.680 C 265.396 288.805,265.496 288.722,265.334 288.460 C 265.152 288.164,265.392 288.114,266.148 288.291 C 266.822 288.448,267.038 288.418,266.728 288.211 C 266.030 287.745,269.085 287.016,272.778 286.767 C 276.133 286.542,277.037 286.208,277.037 285.193 C 277.037 283.497,275.144 283.091,270.370 283.764 M196.932 289.286 C 180.819 294.160,165.461 306.544,156.016 322.278 C 152.162 328.697,151.499 330.698,152.963 331.481 C 153.982 332.027,154.720 331.159,157.555 326.080 C 160.288 321.185,163.248 316.940,163.723 317.234 C 163.912 317.351,163.984 317.229,163.885 316.964 C 163.664 316.375,166.594 312.874,167.064 313.165 C 167.248 313.279,167.309 313.136,167.198 312.848 C 166.936 312.166,175.511 303.978,176.207 304.245 C 176.481 304.350,176.613 304.287,176.501 304.105 C 176.201 303.619,181.375 299.891,181.899 300.215 C 182.167 300.380,182.238 300.326,182.084 300.076 C 181.771 299.569,183.192 298.758,183.769 299.114 C 184.017 299.268,184.087 299.209,183.939 298.970 C 183.612 298.441,189.826 295.039,190.585 295.330 C 190.896 295.450,191.056 295.395,190.941 295.209 C 190.670 294.771,196.500 292.493,198.019 292.445 C 198.661 292.424,199.120 292.300,199.040 292.169 C 198.960 292.038,199.351 291.824,199.910 291.693 C 202.100 291.182,202.963 290.659,202.963 289.844 C 202.963 287.869,201.933 287.774,196.932 289.286 M322.222 292.799 C 316.613 294.091,310.758 296.092,306.296 298.241 C 304.157 299.271,302.282 300.088,302.130 300.057 C 301.977 300.026,301.852 300.131,301.852 300.291 C 301.852 300.450,301.310 300.896,300.648 301.280 C 297.177 303.296,292.963 307.035,292.963 308.099 C 292.963 310.281,294.527 309.923,298.333 306.868 C 304.700 301.758,312.881 298.150,323.510 295.766 C 328.192 294.716,328.889 294.396,328.889 293.301 C 328.889 291.682,327.520 291.579,322.222 292.799 M229.444 295.186 C 216.407 298.516,202.663 310.726,195.503 325.338 C 193.446 329.535,193.230 330.978,194.609 331.324 C 195.922 331.654,196.180 331.376,197.781 327.910 C 199.584 324.008,201.813 320.303,202.210 320.548 C 202.374 320.650,202.486 320.443,202.458 320.089 C 202.430 319.732,202.627 319.490,202.898 319.546 C 203.168 319.602,203.278 319.470,203.144 319.252 C 202.685 318.510,209.010 310.914,209.722 311.353 C 209.938 311.487,210.007 311.422,209.875 311.208 C 208.954 309.718,224.541 299.019,226.525 299.780 C 226.828 299.896,226.979 299.835,226.861 299.644 C 226.676 299.345,231.085 297.778,232.112 297.778 C 232.748 297.778,233.802 296.347,233.584 295.779 C 233.152 294.651,232.118 294.503,229.444 295.186 M353.188 295.580 C 343.211 296.964,334.004 301.512,337.448 303.355 C 338.101 303.705,338.776 303.520,341.559 302.226 C 351.284 297.708,362.746 297.300,377.024 300.965 C 382.363 302.336,383.704 302.294,383.704 300.757 C 383.704 297.823,362.702 294.260,353.188 295.580 M151.376 296.870 C 150.612 297.389,149.819 297.710,149.614 297.583 C 149.409 297.456,149.287 297.573,149.343 297.843 C 149.399 298.114,149.157 298.311,148.800 298.283 C 148.446 298.255,148.235 298.359,148.331 298.514 C 148.427 298.669,147.287 299.730,145.798 300.870 C 140.463 304.957,134.927 311.311,132.469 316.171 C 129.990 321.072,129.090 328.646,130.931 329.108 C 132.387 329.474,132.833 328.773,133.092 325.710 C 133.620 319.460,136.501 314.171,142.759 307.963 C 146.715 304.038,152.491 299.506,153.537 299.506 C 153.814 299.506,153.955 299.366,153.849 299.195 C 153.743 299.024,153.911 298.786,154.222 298.667 C 155.007 298.366,155.336 297.110,154.800 296.464 C 154.138 295.666,152.937 295.808,151.376 296.870 M267.551 310.391 C 251.178 313.832,236.648 324.698,228.899 339.296 C 226.906 343.051,226.609 344.560,227.743 345.167 C 228.774 345.719,229.699 344.775,231.410 341.425 C 234.340 335.690,241.296 326.744,242.473 327.196 C 242.764 327.308,242.909 327.249,242.795 327.066 C 242.294 326.254,251.751 319.295,252.624 319.834 C 252.918 320.016,252.982 319.961,252.806 319.675 C 252.482 319.151,259.270 315.843,260.797 315.781 C 261.337 315.759,261.720 315.644,261.647 315.525 C 261.445 315.197,265.171 314.108,269.097 313.347 C 273.626 312.470,274.620 311.685,273.026 310.243 C 272.195 309.490,271.787 309.501,267.551 310.391 M327.778 312.990 C 307.802 315.742,294.876 320.524,284.885 328.856 C 282.229 331.070,281.486 332.261,282.213 333.137 C 283.032 334.124,284.007 333.765,286.737 331.473 C 296.742 323.072,309.467 318.516,330.184 315.915 C 336.547 315.116,337.407 314.856,337.407 313.732 C 337.407 312.024,335.724 311.895,327.778 312.990 M366.111 316.467 C 355.982 318.861,347.050 323.494,340.806 329.591 C 336.848 333.456,336.340 334.588,338.135 335.549 C 338.822 335.916,339.312 335.569,342.693 332.326 C 350.016 325.300,358.856 320.882,369.259 319.048 C 373.143 318.363,374.568 317.535,373.846 316.384 C 373.241 315.419,370.412 315.450,366.111 316.467 M145.209 332.629 C 144.713 332.828,144.052 332.892,143.739 332.772 C 143.427 332.652,143.291 332.673,143.438 332.820 C 143.584 332.967,142.496 333.742,141.019 334.542 C 130.554 340.213,118.684 355.180,117.149 364.640 C 116.633 367.821,119.508 367.009,120.733 363.628 C 123.012 357.339,127.073 350.824,131.840 345.811 C 134.683 342.820,139.259 338.889,139.259 339.437 C 139.259 339.559,139.468 339.483,139.722 339.269 C 140.885 338.288,143.346 336.839,145.463 335.887 C 147.969 334.760,148.614 333.436,147.061 332.606 C 146.238 332.165,146.377 332.163,145.209 332.629 M161.447 334.492 C 150.511 342.597,140.962 355.216,135.803 368.380 C 130.588 381.690,128.871 401.870,133.333 397.407 C 133.972 396.769,134.075 396.167,134.081 393.056 C 134.088 389.270,134.781 383.526,135.717 379.490 C 136.745 375.056,138.910 368.858,139.338 369.123 C 139.583 369.274,139.639 369.203,139.478 368.943 C 139.130 368.380,139.582 366.964,140.022 367.236 C 140.210 367.352,140.252 367.161,140.118 366.810 C 139.954 366.382,140.014 366.261,140.303 366.440 C 140.577 366.609,140.658 366.511,140.527 366.170 C 140.234 365.407,142.882 360.277,143.403 360.598 C 143.656 360.755,143.715 360.688,143.553 360.426 C 143.231 359.905,144.802 356.986,145.254 357.265 C 145.430 357.374,145.550 357.325,145.521 357.157 C 145.492 356.989,145.488 356.655,145.512 356.415 C 145.606 355.482,151.426 348.148,154.941 344.535 C 159.305 340.050,166.136 334.458,164.994 336.305 C 164.796 336.627,164.847 336.690,165.153 336.502 C 165.401 336.348,165.509 336.126,165.392 336.009 C 165.274 335.892,165.527 335.425,165.953 334.971 C 167.015 333.841,166.789 332.443,165.521 332.296 C 164.820 332.214,163.718 332.808,161.447 334.492 M207.963 337.322 C 194.017 346.563,183.655 364.650,181.498 383.519 C 180.737 390.181,181.266 392.588,183.259 391.521 C 184.254 390.989,184.444 390.341,184.447 387.470 C 184.452 381.305,188.381 364.969,189.667 365.764 C 189.845 365.874,189.901 365.727,189.789 365.438 C 188.630 362.417,200.909 346.323,208.611 340.769 C 211.785 338.480,212.343 337.676,211.407 336.741 C 210.722 336.055,209.586 336.247,207.963 337.322 M263.648 347.258 C 254.198 353.610,245.404 364.148,240.111 375.466 C 235.919 384.428,232.682 398.646,234.660 399.405 C 236.256 400.017,236.877 399.108,237.405 395.386 C 237.652 393.648,237.988 392.308,238.152 392.410 C 238.315 392.511,238.365 392.272,238.262 391.878 C 237.720 389.803,242.217 377.662,245.868 371.346 C 250.279 363.714,257.590 355.491,264.167 350.762 C 267.579 348.309,268.242 347.139,266.691 346.309 C 265.735 345.798,265.894 345.748,263.648 347.258 M234.804 348.103 C 223.045 351.866,216.419 363.164,212.411 386.287 C 211.081 393.960,211.280 395.532,213.455 394.541 C 214.208 394.197,214.404 393.527,215.334 388.097 C 217.843 373.446,221.036 364.251,225.725 358.174 C 227.725 355.583,228.731 354.673,229.245 354.991 C 229.467 355.128,229.602 355.031,229.546 354.775 C 229.407 354.138,233.072 351.967,235.556 351.216 C 238.818 350.230,239.682 349.116,238.066 347.984 C 237.088 347.299,237.344 347.290,234.804 348.103 M169.444 353.032 C 167.435 353.974,162.656 362.340,160.597 368.519 C 158.239 375.596,157.324 381.921,156.860 394.352 L 156.650 400.000 158.325 400.000 L 160.000 400.000 160.002 396.204 C 160.008 379.208,163.227 366.339,169.686 357.478 C 172.023 354.273,171.893 351.884,169.444 353.032 M208.818 356.944 C 200.894 364.484,197.194 375.231,196.769 391.944 L 196.564 400.000 198.330 400.000 L 200.096 400.000 199.852 397.500 C 198.456 383.207,203.284 366.687,211.078 359.088 C 213.096 357.121,213.476 355.856,212.247 355.198 C 211.212 354.644,211.262 354.619,208.818 356.944 " stroke="none" fill="#4f7ffc" fill-rule="evenodd"></path><path id="path1" d="M365.370 330.378 C 354.135 331.831,344.920 337.827,342.356 345.354 C 340.900 349.626,344.833 350.218,346.867 346.032 C 351.940 335.594,368.671 331.626,387.282 336.449 C 391.055 337.427,392.593 337.016,392.593 335.031 C 392.593 331.958,375.604 329.054,365.370 330.378 M317.037 339.094 C 307.744 341.089,298.500 347.755,289.870 358.687 C 286.341 363.156,285.945 364.325,287.590 365.403 C 289.045 366.356,290.074 365.817,292.165 363.005 C 303.136 348.252,315.236 341.215,326.159 343.235 C 328.726 343.710,330.000 343.084,330.000 341.347 C 330.000 338.852,323.460 337.716,317.037 339.094 M374.674 352.798 C 365.992 354.523,356.576 359.226,357.159 361.546 C 357.652 363.512,358.924 363.508,362.882 361.528 C 376.295 354.819,387.553 354.702,394.726 361.199 C 396.814 363.089,397.513 363.293,398.806 362.386 C 401.677 360.376,395.045 354.426,388.110 352.792 C 385.168 352.098,378.180 352.102,374.674 352.798 M315.659 357.201 C 296.260 365.686,280.797 380.412,280.748 390.450 C 280.728 394.324,283.984 393.214,285.710 388.758 C 289.987 377.719,301.505 367.725,317.778 360.934 C 322.582 358.929,322.593 358.922,322.593 357.571 C 322.593 356.379,321.547 355.157,320.566 355.203 C 320.356 355.213,318.148 356.112,315.659 357.201 M270.862 360.106 C 269.476 360.880,264.464 368.007,261.559 373.333 C 256.432 382.734,253.545 397.113,256.514 398.466 C 258.723 399.472,259.450 398.359,259.800 393.437 C 260.379 385.271,264.215 376.213,271.235 366.437 C 272.560 364.592,273.677 362.847,273.718 362.560 C 273.912 361.183,273.634 360.458,272.760 360.059 C 271.651 359.554,271.858 359.549,270.862 360.106 M341.949 376.504 C 332.470 377.886,317.732 382.792,309.444 387.324 C 307.191 388.556,306.781 390.442,308.550 391.435 C 309.454 391.942,309.778 391.846,314.291 389.735 C 334.169 380.437,351.771 377.994,365.576 382.619 C 369.725 384.009,370.741 383.782,370.741 381.465 C 370.741 377.625,354.020 374.745,341.949 376.504 " stroke="none" fill="#fce404" fill-rule="evenodd"></path><path id="path2" d="M361.709 166.686 C 352.395 168.125,339.913 173.300,334.552 177.945 C 334.306 178.159,333.348 178.916,332.423 179.628 C 331.061 180.676,330.741 181.143,330.741 182.083 C 330.741 184.898,333.152 184.727,336.529 181.674 C 336.758 181.466,337.320 181.046,337.776 180.741 C 338.233 180.435,339.252 179.727,340.041 179.167 C 340.830 178.606,341.588 178.148,341.727 178.148 C 341.865 178.148,342.242 177.929,342.563 177.661 C 344.659 175.916,353.652 172.603,359.444 171.442 C 365.343 170.261,376.216 170.266,381.238 171.453 C 382.861 171.837,384.674 171.689,385.364 171.117 C 386.533 170.146,385.462 167.986,383.630 167.622 C 383.365 167.569,382.565 167.416,381.852 167.282 C 381.139 167.147,380.056 166.933,379.444 166.806 C 377.582 166.419,364.032 166.327,361.709 166.686 M289.815 166.840 C 289.611 166.903,287.694 167.497,285.556 168.160 C 268.394 173.481,254.974 185.900,249.856 201.199 C 248.648 204.810,247.854 208.371,247.998 209.537 C 248.030 209.792,248.076 210.161,248.102 210.357 C 248.263 211.598,251.796 211.481,251.880 210.233 C 252.120 206.690,254.885 199.242,257.997 193.753 C 261.428 187.702,270.377 179.459,277.293 175.980 C 279.980 174.628,286.621 171.944,287.851 171.713 C 291.425 171.042,292.770 170.302,292.803 168.987 C 292.843 167.427,291.359 166.361,289.815 166.840 M365.835 176.506 C 365.783 176.556,365.074 176.698,364.259 176.823 C 355.658 178.143,343.848 186.097,336.943 195.220 C 333.965 199.156,331.830 202.141,331.405 202.963 C 331.141 203.472,330.718 204.109,330.463 204.378 C 329.650 205.238,329.892 207.320,330.880 207.967 C 332.255 208.868,333.259 208.134,335.663 204.475 C 345.298 189.810,356.198 181.560,367.222 180.590 C 368.250 180.500,369.620 180.001,369.677 179.697 C 370.085 177.514,369.185 176.294,367.220 176.368 C 366.510 176.394,365.887 176.457,365.835 176.506 M315.000 182.258 C 311.178 182.815,310.092 183.033,306.481 183.967 C 300.842 185.425,293.934 188.198,289.815 190.657 C 285.746 193.086,284.174 194.086,283.410 194.731 C 282.994 195.083,282.188 195.704,281.621 196.111 C 279.559 197.591,275.340 201.428,274.074 202.975 C 273.361 203.846,272.236 205.158,271.573 205.891 C 270.911 206.623,270.274 207.514,270.159 207.870 C 270.044 208.227,269.795 208.519,269.605 208.519 C 269.415 208.519,269.259 208.697,269.259 208.915 C 269.259 209.134,269.009 209.562,268.704 209.868 C 267.396 211.175,268.700 213.830,270.489 213.504 C 271.355 213.346,273.333 211.253,273.333 210.495 C 273.333 210.243,273.542 209.904,273.796 209.741 C 274.051 209.578,275.028 208.528,275.968 207.407 C 280.281 202.266,287.350 196.573,292.963 193.719 C 294.694 192.839,296.278 192.000,296.481 191.854 C 297.980 190.781,309.362 187.330,312.963 186.856 C 318.738 186.096,319.630 185.724,319.630 184.074 C 319.630 182.244,318.400 181.762,315.000 182.258 M315.895 207.928 C 315.810 208.011,314.824 208.190,313.704 208.327 C 312.583 208.463,310.917 208.743,310.000 208.949 C 309.083 209.155,307.917 209.402,307.407 209.498 C 297.206 211.423,282.218 220.222,271.785 230.413 C 264.366 237.660,263.248 239.475,265.509 240.602 C 266.416 241.054,268.519 240.630,268.519 239.996 C 268.519 239.265,278.881 229.297,282.451 226.593 C 286.370 223.624,287.792 222.593,287.962 222.593 C 288.060 222.593,289.267 221.872,290.644 220.990 C 296.830 217.033,306.170 213.651,313.889 212.574 C 317.615 212.055,318.555 211.505,318.384 209.944 C 318.250 208.711,316.525 207.314,315.895 207.928 M204.444 210.926 C 191.233 213.909,181.567 220.736,174.556 232.037 C 172.354 235.586,171.018 239.576,171.623 240.796 C 172.501 242.569,175.332 241.866,175.648 239.795 C 175.754 239.106,177.660 235.074,178.617 233.519 C 180.711 230.114,185.478 224.838,188.333 222.768 C 189.148 222.177,190.021 221.494,190.272 221.249 C 191.136 220.410,198.159 217.010,200.468 216.313 C 207.514 214.186,213.893 214.139,220.220 216.168 C 223.111 217.096,223.252 217.107,224.201 216.485 C 229.301 213.144,213.862 208.799,204.444 210.926 M238.477 224.103 C 225.428 230.506,214.364 240.697,209.857 250.466 C 207.592 255.376,207.423 255.813,206.872 258.191 C 205.660 263.426,206.027 264.807,208.487 264.266 C 209.569 264.029,211.111 260.739,211.111 258.669 C 211.111 257.905,213.687 251.816,214.489 250.684 C 214.872 250.143,215.185 249.545,215.185 249.355 C 215.185 248.439,224.027 238.148,224.815 238.148 C 224.995 238.148,225.361 237.847,225.627 237.479 C 226.949 235.651,235.827 229.908,241.481 227.222 C 245.648 225.243,245.556 225.316,245.553 223.960 C 245.550 223.040,245.329 222.675,244.553 222.315 C 243.217 221.694,243.637 221.571,238.477 224.103 M338.148 227.801 C 337.231 227.950,335.731 228.183,334.815 228.318 C 325.899 229.629,316.995 235.316,312.995 242.254 C 310.994 245.726,311.052 247.153,313.213 247.569 C 314.149 247.750,316.667 245.332,316.667 244.253 C 316.667 243.856,319.033 241.020,320.741 239.369 C 323.917 236.299,331.111 232.937,335.674 232.391 C 336.322 232.314,337.685 232.134,338.704 231.992 C 340.154 231.790,350.169 231.718,351.403 231.901 C 353.065 232.147,354.434 230.530,353.781 229.095 C 353.079 227.554,344.187 226.818,338.148 227.801 M193.728 243.981 C 185.568 252.173,184.883 252.983,181.283 258.704 C 176.775 265.866,175.484 276.296,179.105 276.296 C 180.384 276.296,181.109 275.323,181.125 273.585 C 181.200 265.267,185.279 258.372,197.157 246.481 C 203.853 239.779,204.511 238.756,202.872 237.607 C 201.327 236.526,200.767 236.916,193.728 243.981 M343.556 253.885 C 333.709 256.819,325.827 263.730,324.939 270.210 C 324.592 272.742,328.149 273.662,328.757 271.198 C 328.895 270.641,329.397 269.563,329.874 268.804 C 330.351 268.044,330.741 267.328,330.741 267.214 C 330.741 266.523,334.193 263.153,336.502 261.589 C 339.242 259.734,340.762 259.062,344.759 257.936 C 348.410 256.909,348.848 256.606,348.807 255.142 C 348.743 252.924,347.655 252.664,343.556 253.885 M165.185 269.919 C 156.651 274.716,148.209 281.764,142.314 289.014 C 141.347 290.203,140.344 291.403,140.085 291.680 C 137.197 294.776,129.276 306.650,129.011 308.281 C 128.604 310.785,131.910 311.126,133.270 308.719 C 133.610 308.117,134.017 307.450,134.174 307.238 C 134.331 307.026,135.164 305.783,136.026 304.477 C 141.267 296.533,148.153 288.320,153.725 283.371 C 157.849 279.709,158.879 278.837,160.000 278.068 C 160.509 277.718,161.657 276.915,162.550 276.283 C 163.443 275.652,165.571 274.380,167.279 273.456 C 171.081 271.401,172.263 269.532,170.395 268.532 C 169.189 267.886,168.453 268.083,165.185 269.919 M258.117 270.141 C 258.032 270.218,256.963 270.386,255.741 270.513 C 254.519 270.641,253.102 270.827,252.593 270.927 C 252.083 271.028,250.917 271.212,250.000 271.336 C 239.124 272.811,224.088 284.399,227.470 288.699 C 228.427 289.916,231.111 289.472,231.111 288.098 C 231.111 287.619,234.528 283.362,235.991 282.017 C 240.138 278.205,248.393 275.276,256.852 274.617 C 262.201 274.200,262.963 273.903,262.963 272.230 C 262.963 270.620,259.315 269.047,258.117 270.141 M278.814 271.142 C 273.668 271.893,269.856 275.729,272.063 277.937 C 272.927 278.800,273.193 278.674,274.142 276.944 C 275.702 274.100,277.943 273.759,292.407 274.162 C 296.214 274.268,297.037 274.483,297.037 275.370 C 297.037 276.197,297.704 276.378,299.081 275.924 C 303.091 274.600,299.000 271.132,293.362 271.075 C 291.411 271.055,287.815 270.993,285.370 270.937 C 282.926 270.880,279.976 270.973,278.814 271.142 M189.525 279.477 C 189.481 279.516,188.754 279.642,187.910 279.758 C 178.989 280.976,169.368 285.497,161.111 292.351 C 158.752 294.310,152.003 301.326,151.321 302.530 C 151.131 302.865,150.660 303.475,150.274 303.885 C 149.481 304.726,146.163 310.056,144.837 312.619 C 143.485 315.231,144.487 317.344,146.790 316.742 C 147.482 316.561,149.162 314.160,148.981 313.611 C 148.930 313.458,149.056 313.333,149.259 313.333 C 149.463 313.333,149.630 313.160,149.630 312.948 C 149.630 312.736,149.938 312.111,150.315 311.559 C 150.692 311.007,151.651 309.556,152.445 308.333 C 153.239 307.111,153.977 306.028,154.086 305.926 C 154.194 305.824,155.361 304.419,156.678 302.804 C 157.996 301.188,159.809 299.188,160.706 298.359 C 161.604 297.530,162.570 296.624,162.853 296.345 C 168.150 291.132,179.338 285.424,186.621 284.220 C 187.309 284.106,188.226 283.940,188.658 283.851 C 189.091 283.761,191.025 283.599,192.956 283.490 C 197.601 283.228,199.406 281.523,196.827 279.833 C 196.032 279.312,190.046 279.020,189.525 279.477 M117.222 299.694 C 111.118 303.539,109.043 305.131,105.146 308.956 C 102.099 311.948,101.554 312.570,98.559 316.481 C 96.477 319.199,92.272 326.118,91.018 328.889 C 88.216 335.078,87.937 335.768,86.340 340.471 C 85.140 344.006,83.318 350.570,82.788 353.269 C 82.721 353.610,82.408 355.139,82.094 356.667 C 81.283 360.604,81.137 361.430,80.891 363.519 C 80.770 364.537,80.523 366.064,80.341 366.912 C 80.160 367.760,79.909 370.010,79.785 371.912 L 79.558 375.370 80.594 375.833 C 81.163 376.088,81.737 376.296,81.869 376.296 C 82.217 376.296,83.762 374.910,83.699 374.655 C 83.642 374.423,84.096 369.836,84.273 368.853 C 84.332 368.527,84.484 367.360,84.611 366.260 C 85.528 358.297,89.839 342.033,92.848 335.185 C 95.297 329.612,101.003 319.649,102.605 318.148 C 102.714 318.046,103.462 317.147,104.269 316.149 C 108.110 311.395,118.019 303.029,119.899 302.951 C 121.471 302.886,122.262 300.257,121.030 299.189 C 119.965 298.265,119.363 298.345,117.222 299.694 M190.692 306.944 C 187.116 310.828,183.744 316.441,180.626 323.704 C 179.314 326.760,177.592 333.266,176.803 338.148 C 176.688 338.861,176.541 339.530,176.478 339.634 C 175.730 340.856,175.617 360.573,176.349 361.964 C 177.770 364.663,180.618 363.154,180.176 359.937 C 178.406 347.052,182.045 327.935,188.173 317.922 C 188.974 316.613,189.630 315.379,189.630 315.179 C 189.630 314.979,189.760 314.815,189.920 314.815 C 190.080 314.815,190.523 314.285,190.906 313.638 C 191.610 312.446,191.973 311.972,193.790 309.873 C 196.521 306.719,193.516 303.878,190.692 306.944 M229.074 311.253 C 218.952 315.840,214.133 320.878,212.880 328.186 C 212.529 330.230,212.543 330.881,212.950 331.642 C 214.211 333.998,216.443 332.957,216.834 329.831 C 217.415 325.178,221.239 320.034,226.111 317.351 C 229.152 315.677,230.693 314.939,232.135 314.468 C 234.463 313.707,235.357 312.019,234.157 310.648 C 233.362 309.741,232.075 309.894,229.074 311.253 M111.336 334.187 C 110.853 334.634,109.646 336.026,108.654 337.281 C 107.663 338.535,106.471 340.035,106.005 340.614 C 104.924 341.958,97.678 352.830,96.996 354.131 C 96.713 354.671,95.539 356.838,94.388 358.945 C 90.401 366.241,85.901 378.254,84.627 385.000 C 83.516 390.884,83.257 392.912,83.206 396.111 L 83.148 399.815 84.563 399.931 C 86.625 400.101,86.906 399.671,87.239 395.827 C 87.402 393.946,87.556 392.324,87.582 392.222 C 87.608 392.120,87.752 391.272,87.902 390.336 C 88.375 387.400,88.542 386.500,88.734 385.863 C 88.836 385.523,88.996 384.898,89.090 384.474 C 89.183 384.050,89.331 383.378,89.420 382.981 C 89.655 381.923,92.908 372.165,93.316 371.296 C 93.507 370.889,94.027 369.722,94.472 368.704 C 95.826 365.601,98.830 359.525,99.718 358.090 C 101.210 355.678,103.144 352.417,103.297 352.054 C 103.379 351.860,103.727 351.398,104.071 351.029 C 104.415 350.660,104.931 349.902,105.218 349.346 C 105.505 348.789,105.836 348.250,105.953 348.148 C 106.140 347.986,108.401 344.791,110.000 342.429 C 110.522 341.658,112.083 339.712,113.981 337.467 C 115.979 335.103,113.573 332.120,111.336 334.187 M127.593 335.508 C 125.932 336.541,119.894 342.687,117.972 345.302 C 117.046 346.562,115.959 348.009,115.556 348.519 C 115.154 349.028,114.823 349.639,114.820 349.877 C 114.817 350.114,114.668 350.364,114.488 350.432 C 114.177 350.549,110.000 357.867,110.000 358.295 C 110.000 358.407,109.566 359.461,109.036 360.638 C 107.284 364.526,105.989 367.965,104.814 371.852 C 104.353 373.380,103.743 375.394,103.459 376.328 C 102.843 378.359,102.919 378.051,101.308 385.000 C 99.358 393.412,99.393 395.185,101.509 395.185 C 103.108 395.185,103.635 394.379,104.296 390.926 C 104.374 390.519,104.514 389.852,104.607 389.444 C 104.700 389.037,105.015 387.620,105.308 386.296 C 106.070 382.847,106.938 379.537,108.026 375.926 C 108.548 374.194,109.014 372.611,109.061 372.407 C 109.109 372.204,109.251 371.787,109.378 371.481 C 109.505 371.176,110.120 369.509,110.744 367.778 C 114.899 356.254,123.405 343.368,129.484 339.385 C 131.292 338.200,131.442 335.994,129.766 335.230 C 128.652 334.723,128.910 334.690,127.593 335.508 M140.599 338.666 C 139.604 339.352,138.382 340.435,137.884 341.072 C 137.385 341.708,136.799 342.119,136.580 341.983 C 136.339 341.834,136.290 341.912,136.456 342.181 C 136.612 342.433,136.317 343.167,135.772 343.880 C 135.246 344.571,134.815 345.300,134.815 345.500 C 134.815 345.700,134.678 345.920,134.511 345.988 C 134.098 346.156,131.111 350.611,131.111 351.060 C 131.111 351.258,130.970 351.475,130.797 351.543 C 130.008 351.853,122.457 365.495,120.067 370.927 C 117.659 376.404,113.957 387.250,113.778 389.357 C 113.765 389.513,113.580 390.513,113.367 391.579 C 112.794 394.450,112.625 395.516,112.370 397.870 L 112.140 400.000 114.175 400.000 L 116.211 400.000 116.470 397.925 C 116.800 395.283,116.990 394.203,117.409 392.593 C 117.594 391.880,117.842 390.713,117.960 390.000 C 118.079 389.287,118.404 388.037,118.684 387.222 C 118.964 386.407,119.633 384.324,120.172 382.593 C 120.710 380.861,121.475 378.738,121.871 377.874 C 122.268 377.011,122.593 376.120,122.593 375.895 C 122.593 375.669,122.825 375.042,123.108 374.502 C 124.658 371.547,127.191 366.073,127.120 365.833 C 127.074 365.681,127.204 365.556,127.407 365.556 C 127.611 365.556,127.778 365.412,127.778 365.238 C 127.778 364.954,131.915 357.579,133.333 355.334 C 134.872 352.898,140.733 344.363,142.171 342.464 C 145.210 338.451,144.254 336.143,140.599 338.666 M155.660 355.443 C 154.380 356.807,153.333 358.045,153.333 358.194 C 153.333 358.343,153.117 358.686,152.853 358.955 C 147.836 364.063,143.468 376.905,143.077 387.691 C 142.834 394.396,143.061 395.185,145.230 395.185 C 146.692 395.185,147.037 394.291,147.040 390.487 C 147.046 384.015,148.133 377.972,150.258 372.593 C 151.893 368.456,152.284 367.688,154.596 364.074 C 157.057 360.226,157.237 359.986,159.533 357.465 C 161.240 355.591,161.486 354.528,160.434 353.576 C 159.150 352.414,158.125 352.814,155.660 355.443 " stroke="none" fill="#647bfc" fill-rule="evenodd"></path><path id="path3" d="" stroke="none" fill="#50a8100" fill-rule="evenodd"></path><path id="path4" d="" stroke="none" fill="#50a8100" fill-rule="evenodd"></path></g></svg>