<?xml version="1.0" encoding="UTF-8"?>
<svg version="1.1" xmlns="http://www.w3.org/2000/svg" width="909" height="962">
<path d="M0 0 C0.93054199 0.44617676 0.93054199 0.44617676 1.87988281 0.90136719 C12.54864943 6.03324921 21.7555063 12.64564442 31 20 C31.91910156 20.70898438 32.83820313 21.41796875 33.78515625 22.1484375 C37.811052 25.40039562 37.811052 25.40039562 39 27 C39.1875 29.69140625 39.1875 29.69140625 39 32 C36.91796875 32.8125 36.91796875 32.8125 34 33 C31.54549234 31.41760678 29.50516015 29.88827441 27.3125 28 C26.05738473 26.96965232 24.80087004 25.941007 23.54296875 24.9140625 C22.93372559 24.41036133 22.32448242 23.90666016 21.69677734 23.38769531 C13.18166289 16.4236794 3.61205949 11.25920377 -6 6 C-2.58656307 8.81143078 0.90665519 11.29713548 4.625 13.6875 C17.36111055 22.12634097 36.93200519 35.86401038 44 50 C45.11375 49.71125 46.2275 49.4225 47.375 49.125 C53.4390681 48.41469832 57.2231918 51.62658511 62 55 C63.12088755 55.77113315 64.24199237 56.54195054 65.36328125 57.3125 C72.86515288 62.52598037 80.05301222 68.06213124 87 74 C87.76054687 74.64839844 88.52109375 75.29679687 89.3046875 75.96484375 C94.96873142 80.93280146 100.33333943 86.20227175 105.6875 91.5 C106.4005127 92.19996094 107.11352539 92.89992188 107.84814453 93.62109375 C112.67737939 98.44247255 116.93464298 103.5207799 121 109 C121.60328125 108.33484375 122.2065625 107.6696875 122.828125 106.984375 C123.54484375 106.32953125 124.2615625 105.6746875 125 105 C127.75 105.25 127.75 105.25 130 106 C129.14728516 105.05640625 129.14728516 105.05640625 128.27734375 104.09375 C127.11912109 102.80984375 127.11912109 102.80984375 125.9375 101.5 C125.10476563 100.57703125 124.27203125 99.6540625 123.4140625 98.703125 C121.5141058 96.5756654 119.65668058 94.42518735 117.8125 92.25 C109.05836509 82.23656958 99.44099058 73.22247401 89 65 C87.24989188 63.52096126 85.49989411 62.04179193 83.75 60.5625 C73.70760859 52.36927414 62.68519629 45.65519707 51.45849609 39.22290039 C46.19600923 36.19600923 46.19600923 36.19600923 44 34 C43.875 30.375 43.875 30.375 44 27 C46.23744046 25.59124119 47.53264933 24.95600429 50.19921875 25.20703125 C53.80492828 26.22789462 56.89339841 27.89992317 60.125 29.75 C60.81295654 30.14123047 61.50091309 30.53246094 62.2097168 30.93554688 C78.31793188 40.28115562 92.9348703 51.36161247 106.67578125 63.89453125 C108.71273925 65.73977555 110.78270847 67.5308167 112.875 69.3125 C121.18700808 76.56232449 128.91330138 84.55661358 136 93 C136.79921875 93.89847656 137.5984375 94.79695313 138.421875 95.72265625 C139.25203125 96.68042969 140.0821875 97.63820313 140.9375 98.625 C141.70964844 99.50414062 142.48179687 100.38328125 143.27734375 101.2890625 C145.33622427 104.52911484 145.58374623 106.22889605 145 110 C143.5 111.875 143.5 111.875 142 113 C142.78761719 113.52207031 143.57523438 114.04414063 144.38671875 114.58203125 C166.73193378 129.68157892 183.44496282 148.09713515 199 170 C195.13530858 163.53686418 190.96336257 157.47724325 186.3125 151.5625 C185.84932373 150.97194824 185.38614746 150.38139648 184.90893555 149.77294922 C182.94258675 147.30219997 180.98751935 144.98827703 178.68359375 142.82421875 C177 141 177 141 176.75 137.25 C176.8325 136.1775 176.915 135.105 177 134 C179.27410787 132.5681543 180.66330414 131.99113958 183.375 132.0625 C189.39653405 134.21304787 193.50558394 139.45148161 197.3125 144.375 C198.02297485 145.29236938 198.02297485 145.29236938 198.74780273 146.22827148 C223.75154418 179.15133248 235.75134832 220.94949429 243 261 C243.14840332 261.81001465 243.29680664 262.6200293 243.44970703 263.45458984 C245.41618266 274.82139505 245.22523674 286.43768961 245.3125 297.9375 C245.32721344 299.16595139 245.32721344 299.16595139 245.34222412 300.41921997 C245.36585661 302.76805958 245.36799073 305.11590904 245.36328125 307.46484375 C245.37238022 308.17965912 245.38147919 308.89447449 245.39085388 309.63095093 C245.34568725 314.5264187 245.34568725 314.5264187 243.59838867 316.92016602 C241.65719756 318.2315893 240.3426673 318.78703025 238 319 C235.33393981 318.00974907 234.28610235 317.5722047 233 315 C232.93853134 313.29796021 232.94006676 311.59346256 232.97265625 309.890625 C232.99344238 308.31039551 232.99344238 308.31039551 233.01464844 306.69824219 C233.03043945 305.56032227 233.04623047 304.42240234 233.0625 303.25 C233.30915011 260.55604107 223.2975769 218.14785897 204 180 C202.68 181.32 201.36 182.64 200 184 C196.62430295 182.60294186 195.13329412 181.16501681 193.203125 178.0859375 C192.71972656 177.32539063 192.23632812 176.56484375 191.73828125 175.78125 C191.24714844 174.9871875 190.75601563 174.193125 190.25 173.375 C189.74339844 172.57320312 189.23679687 171.77140625 188.71484375 170.9453125 C187.46777767 168.9688304 186.22998373 166.9871409 185 165 C185.49628906 165.969375 185.99257813 166.93875 186.50390625 167.9375 C191.35460444 177.48521089 195.8070733 187.14662225 200 197 C201.32 197 202.64 197 204 197 C208.22486975 200.11952592 209.82569613 204.47288214 211.75 209.1875 C212.09071533 210.01411133 212.43143066 210.84072266 212.7824707 211.69238281 C220.11422657 229.9150646 225.49994734 248.6818799 229 268 C229.16371094 268.87140625 229.32742188 269.7428125 229.49609375 270.640625 C231.91381089 283.98802211 232.26087559 297.2249872 232.25 310.75 C232.24940582 311.58347961 232.24881165 312.41695923 232.24819946 313.2756958 C232.24170225 315.65790959 232.22526315 318.03975913 232.203125 320.421875 C232.1987291 321.14271271 232.19433319 321.86355042 232.18980408 322.60623169 C232.14636148 325.66950138 231.97628357 328.0711493 231 331 C229.125 331.8125 229.125 331.8125 227 332 C226.01 331.34 225.02 330.68 224 330 C223.69116211 327.69116211 223.69116211 327.69116211 223.77734375 324.77734375 C223.79772705 323.69437012 223.81811035 322.61139648 223.83911133 321.49560547 C223.88781372 319.73434326 223.88781372 319.73434326 223.9375 317.9375 C224.28032491 290.33917844 220.25898966 264.55893595 213 238 C213.21934204 239.38952881 213.21934204 239.38952881 213.44311523 240.80712891 C213.99382106 244.31408301 214.5392238 247.82178354 215.08129883 251.33007812 C215.31492547 252.83528062 215.55053447 254.34017706 215.78833008 255.84472656 C218.12582821 270.65052867 219.17091757 285.18010843 219.125 300.1875 C219.12886719 301.46302734 219.13273437 302.73855469 219.13671875 304.05273438 C219.11566803 324.54561114 219.11566803 324.54561114 216.64501953 327.76635742 C215 329 215 329 212 329.5 C209 329 209 329 207.32421875 327.06176758 C205.47961278 322.79679644 205.68216688 319.1042512 205.8125 314.51171875 C205.83862803 312.60042767 205.86441257 310.68913186 205.88989258 308.77783203 C205.91788437 307.28488617 205.91788437 307.28488617 205.94644165 305.76177979 C206.2453034 288.60694521 206.23141249 271.90738069 203 255 C202.82839355 254.06752441 202.65678711 253.13504883 202.47998047 252.17431641 C195.19232258 213.43054808 180.16297434 176.24805989 155.3125 145.375 C153.36447135 142.83189632 153.00206817 142.01370166 152.5 138.6875 C153 136 153 136 155 133 C149.36086742 128.13044316 143.49953952 123.89841666 137.125 120.0625 C136.48296631 119.67328369 135.84093262 119.28406738 135.17944336 118.88305664 C132.14134356 117.08892207 129.44086164 115.74562937 126 115 C126.34780518 115.51908936 126.69561035 116.03817871 127.05395508 116.57299805 C128.64137018 118.94367543 130.22694959 121.31557511 131.8125 123.6875 C132.63331055 124.91243164 132.63331055 124.91243164 133.47070312 126.16210938 C141.80892349 138.64417259 141.80892349 138.64417259 141 145 C139.20375334 147.43776333 137.76974718 148.62754169 135.0625 149.9375 C131.74724938 150.03796214 130.47027229 149.21024363 128 147 C127.52832031 145.12036133 127.52832031 145.12036133 127.203125 142.89453125 C126.11658023 137.51672691 123.63706539 133.89304341 120.375 129.5625 C119.83447998 128.82314209 119.29395996 128.08378418 118.73706055 127.32202148 C117.17609535 125.20036409 115.5941109 123.09682459 114 121 C113.25621094 120.0203125 112.51242187 119.040625 111.74609375 118.03125 C95.79562168 97.66620283 77.12087366 80.76919487 56 66 C56.65097656 67.09828125 57.30195313 68.1965625 57.97265625 69.328125 C59.77155545 72.36309948 60.69890384 74.4056374 60 78 C58.9375 79.875 58.9375 79.875 57 81 C53.63698008 81.03199068 51.06086358 81.02689461 48.54370117 78.59033203 C47.12867628 76.65519697 45.86684025 74.67554519 44.625 72.625 C43.67566005 71.15380066 42.72250452 69.68505673 41.765625 68.21875 C41.29962891 67.496875 40.83363281 66.775 40.35351562 66.03125 C37.26642046 61.39837991 33.6355583 57.20545663 30 53 C29.29488281 52.17242187 28.58976562 51.34484375 27.86328125 50.4921875 C14.2239859 34.86943986 -1.76609309 23.1180527 -19.7109375 12.8984375 C-23 11 -23 11 -24 10 C-23.71269945 7.66055264 -23.38063221 5.3260857 -23 3 C-21.68 2.67 -20.36 2.34 -19 2 C-19 1.34 -19 0.68 -19 0 C-30.44615689 -2.15618987 -41.76819972 -4.0927787 -53.41796875 -4.65625 C-56 -5 -56 -5 -58 -7 C-57.625 -9.625 -57.625 -9.625 -57 -12 C-39.78563022 -17.73812326 -15.31766932 -7.63086813 0 0 Z M182 161 C183 163 183 163 183 163 Z M200 172 C201 174 201 174 201 174 Z M201 174 C202 176 202 176 202 176 Z M210 229 C211 231 211 231 211 231 Z M211 232 C212 235 212 235 212 235 Z " fill="#5D6BFF" transform="translate(270,284)"/>
<path d="M0 0 C1.45962699 0.31772839 2.91665247 0.64760131 4.37109375 0.98828125 C5.54454346 1.25946777 5.54454346 1.25946777 6.74169922 1.53613281 C20.33645899 4.77416243 32.54259716 9.67253157 44.80859375 16.30078125 C46.41927734 17.16896484 46.41927734 17.16896484 48.0625 18.0546875 C64.89803562 27.51507323 79.41280741 40.518578 92.80859375 54.30078125 C93.66453125 55.14640625 94.52046875 55.99203125 95.40234375 56.86328125 C102.73462347 64.29078538 110.54266488 74.3976974 110.80859375 85.30078125 C110.30859375 87.55078125 110.30859375 87.55078125 108.80859375 89.30078125 C105.18359375 90.55078125 105.18359375 90.55078125 101.80859375 91.30078125 C102.75734375 92.16703125 103.70609375 93.03328125 104.68359375 93.92578125 C108.22787666 97.46283093 111.15362984 101.30231479 114.05859375 105.36328125 C114.48253418 105.95254395 114.90647461 106.54180664 115.34326172 107.14892578 C121.93060627 116.51126434 121.93060627 116.51126434 121.62109375 121.05078125 C120.80859375 123.30078125 120.80859375 123.30078125 118.80859375 125.30078125 C116.12109375 125.98828125 116.12109375 125.98828125 112.80859375 125.30078125 C109.34291843 121.92438562 106.80341736 117.77926334 104.11328125 113.78125 C99.94874141 107.76880828 95.33282512 102.53382151 90.18359375 97.36328125 C89.55001953 96.72438965 88.91644531 96.08549805 88.26367188 95.42724609 C84.66804562 91.88515973 81.11164547 88.942193 76.80859375 86.30078125 C77.57945312 87.06003906 78.3503125 87.81929688 79.14453125 88.6015625 C80.15768471 89.60533491 81.17069823 90.60924857 82.18359375 91.61328125 C82.69148437 92.11279297 83.199375 92.61230469 83.72265625 93.12695312 C89.75359044 99.11821012 89.75359044 99.11821012 89.93359375 102.98828125 C89.89234375 103.75140625 89.85109375 104.51453125 89.80859375 105.30078125 C87.82859375 106.29078125 87.82859375 106.29078125 85.80859375 107.30078125 C86.41703125 107.666875 87.02546875 108.03296875 87.65234375 108.41015625 C100.22951443 116.17840873 112.13095858 125.0658341 122.80859375 135.30078125 C124.14470703 136.54214844 124.14470703 136.54214844 125.5078125 137.80859375 C134.75365154 146.65468243 147.20629776 159.6870053 149.37109375 172.67578125 C148.80859375 175.30078125 148.80859375 175.30078125 147.18359375 177.23828125 C143.80967 178.74766819 142.31436097 178.49671416 138.80859375 177.30078125 C136.68359934 174.78896104 135.23187253 171.94268965 133.68359375 169.05078125 C129.02824215 160.91055726 123.84984182 154.29687745 117.21240234 147.70751953 C115.90904604 146.40144318 114.64779332 145.05371779 113.390625 143.703125 C98.3643624 127.82109535 78.38410432 115.71278693 58.80859375 106.30078125 C59.79859375 107.12578125 60.78859375 107.95078125 61.80859375 108.80078125 C64.72711486 111.67857881 64.72711486 111.67857881 65.06640625 114.26953125 C64.97779223 115.62480451 64.87358445 116.97914723 64.75390625 118.33203125 C64.84911545 121.75956256 66.71793116 123.68745301 68.80859375 126.30078125 C68.99421875 125.66140625 69.17984375 125.02203125 69.37109375 124.36328125 C70.80859375 122.30078125 70.80859375 122.30078125 73.74609375 121.05078125 C79.2573386 120.61986087 83.22284623 124.56111029 87.21386719 127.91455078 C91.44009451 131.58823705 95.52643057 135.40956982 99.5859375 139.265625 C102.01300056 141.56933747 104.49357738 143.77531298 107.05859375 145.92578125 C123.5629212 160.2529421 148.47100863 189.82090527 151.18359375 212.42578125 C150.80859375 215.30078125 150.80859375 215.30078125 149.12109375 217.23828125 C146.16159476 218.59805105 144.84951142 218.39239272 141.80859375 217.30078125 C139.43040711 215.26476344 138.1934657 213.34550756 136.96875 210.484375 C136.63439941 209.72914551 136.30004883 208.97391602 135.95556641 208.19580078 C135.59769043 207.38481934 135.23981445 206.57383789 134.87109375 205.73828125 C127.78528455 190.292577 118.13678029 176.89491509 106.80859375 164.30078125 C105.90466849 163.27498575 105.00102316 162.2489435 104.09765625 161.22265625 C95.54162707 151.60210856 86.31816475 142.77874523 75.80859375 135.30078125 C76.24171875 135.96464844 76.67484375 136.62851562 77.12109375 137.3125 C77.67796875 138.19550781 78.23484375 139.07851563 78.80859375 139.98828125 C79.36546875 140.85839844 79.92234375 141.72851562 80.49609375 142.625 C81.90739907 145.50221472 82.20791763 147.14396409 81.80859375 150.30078125 C80.18359375 152.17578125 80.18359375 152.17578125 77.80859375 153.30078125 C74.78313972 153.30078125 72.67470561 153.11238468 70.40429688 150.98486328 C68.96365688 149.18511179 67.65751624 147.33881524 66.37109375 145.42578125 C65.66376099 144.41064453 65.66376099 144.41064453 64.94213867 143.375 C63.99377626 142.00498132 63.05394481 140.62901513 62.12304688 139.24707031 C60.9542069 137.51638824 59.75091355 135.80908745 58.54296875 134.10546875 C53.75904507 127.12405167 53.75904507 127.12405167 54.01171875 122.92578125 C53.72237257 117.76206474 51.32206114 115.81015091 47.74609375 112.30078125 C47.11485596 111.65705566 46.48361816 111.01333008 45.83325195 110.35009766 C44.50229822 108.99729268 43.16382601 107.65184821 41.81835938 106.31347656 C39.89362293 104.38593438 38.01105281 102.42566055 36.13671875 100.44921875 C23.6182226 87.38160665 9.37734728 76.50627209 -6.19140625 67.30078125 C-6.78099121 66.95176758 -7.37057617 66.60275391 -7.97802734 66.24316406 C-21.61377875 58.29965251 -35.91523923 53.51761433 -51.2890625 50.16015625 C-52.57683594 49.8765625 -53.86460937 49.59296875 -55.19140625 49.30078125 C-55.91827637 49.14158203 -56.64514648 48.98238281 -57.39404297 48.81835938 C-62.96290493 47.52928257 -62.96290493 47.52928257 -65.19140625 45.30078125 C-65.19140625 43.98078125 -65.19140625 42.66078125 -65.19140625 41.30078125 C-70.25389817 41.27098301 -75.31634933 41.25142793 -80.37890625 41.23828125 C-81.12738831 41.23600525 -81.87587036 41.23372925 -82.64703369 41.23138428 C-92.83352844 41.20757063 -102.9698097 41.34854106 -113.13354492 42.12084961 C-118.88244066 42.50675831 -118.88244066 42.50675831 -122.19140625 40.30078125 C-122.62890625 36.86328125 -122.62890625 36.86328125 -122.19140625 33.30078125 C-119.34648565 30.51427625 -117.05737153 29.87398532 -113.1484375 29.5703125 C-112.16609131 29.48942383 -111.18374512 29.40853516 -110.17163086 29.32519531 C-109.12628174 29.25526367 -108.08093262 29.18533203 -107.00390625 29.11328125 C-105.92181885 29.03432617 -104.83973145 28.95537109 -103.72485352 28.87402344 C-66.7382841 26.33893033 -26.92106708 30.71878026 5.80859375 49.30078125 C6.15921875 48.49640625 6.50984375 47.69203125 6.87109375 46.86328125 C8.80859375 44.30078125 8.80859375 44.30078125 11.796875 43.27734375 C17.12737847 42.88951858 22.04388703 44.93020159 26.99609375 46.67578125 C28.05328613 47.04082764 29.11047852 47.40587402 30.19970703 47.78198242 C51.04413139 55.13524964 70.14865274 64.88743829 87.5234375 78.62109375 C89.78483813 80.46345516 89.78483813 80.46345516 92.80859375 81.30078125 C82.11226971 61.92668991 82.11226971 61.92668991 64.80859375 49.30078125 C65.79859375 48.31078125 65.79859375 48.31078125 66.80859375 47.30078125 C46.98479355 28.50146684 21.72802134 15.61973433 -5.50756836 12.27392578 C-9.52590125 11.7557637 -12.26997501 11.20753193 -15.19140625 8.30078125 C-16.40655176 5.30965384 -16.24506905 4.46176966 -15.19140625 1.30078125 C-10.44177453 -1.8656399 -5.40419894 -1.02296012 0 0 Z M19.80859375 57.30078125 C20.63359375 58.02265625 21.45859375 58.74453125 22.30859375 59.48828125 C24.80859375 62.30078125 24.80859375 62.30078125 25.37109375 64.86328125 C24.64718126 68.00023537 23.2328845 69.25528593 20.80859375 71.30078125 C23.28359375 72.29078125 23.28359375 72.29078125 25.80859375 73.30078125 C26.17984375 72.82640625 26.55109375 72.35203125 26.93359375 71.86328125 C30.11737614 69.21012926 33.68984166 69.22119217 37.71875 69.5078125 C50.24634395 71.91397986 63.72490815 77.37358961 73.80859375 85.30078125 C74.46859375 84.97078125 75.12859375 84.64078125 75.80859375 84.30078125 C61.98037468 73.96285786 37.81192294 57.30078125 19.80859375 57.30078125 Z M29.80859375 78.30078125 C30.45090942 78.89765747 30.45090942 78.89765747 31.10620117 79.5065918 C33.07039796 81.33285714 35.0332538 83.16055772 36.99609375 84.98828125 C37.66962891 85.61412109 38.34316406 86.23996094 39.03710938 86.88476562 C41.97671471 89.62361742 44.88833278 92.35978011 47.671875 95.2578125 C49.5568174 97.53113879 49.5568174 97.53113879 51.80859375 97.30078125 C52.13859375 96.31078125 52.46859375 95.32078125 52.80859375 94.30078125 C56.66565707 93.03509711 58.72067378 92.83674887 62.51025391 94.453125 C65.59787263 96.16215039 68.61491017 97.95227012 71.62109375 99.80078125 C73.68604569 101.04711364 75.75486396 102.28707046 77.828125 103.51953125 C78.73667236 104.07576172 79.64521973 104.63199219 80.58129883 105.20507812 C81.31630615 105.56666016 82.05131348 105.92824219 82.80859375 106.30078125 C83.46859375 105.97078125 84.12859375 105.64078125 84.80859375 105.30078125 C73.59266724 93.1465 73.59266724 93.1465 59.80859375 84.30078125 C58.67292969 83.77097656 57.53726563 83.24117188 56.3671875 82.6953125 C42.89380131 75.88220503 42.89380131 75.88220503 29.80859375 78.30078125 Z " fill="#5C6AFF" transform="translate(219.19140625,303.69921875)"/>
<path d="M0 0 C0 2.31 0 4.62 0 7 C-6 9.66666667 -12 12.33333333 -18 15 C-17.175 15.53625 -16.35 16.0725 -15.5 16.625 C-13 19 -13 19 -12.25 21.75 C-13.21902572 25.94911147 -15.28134948 27.84372965 -18.18359375 30.93359375 C-27.50042294 41.53273921 -26.72047007 57.30392201 -27.67724609 70.58544922 C-27.85177441 72.97672618 -28.03500607 75.36722871 -28.21875 77.7578125 C-28.26777466 78.48090607 -28.31679932 79.20399963 -28.36730957 79.94900513 C-28.72060937 84.51707574 -29.42210588 88.69056276 -31 93 C-34 95 -34 95 -37.1875 94.625 C-38.115625 94.41875 -39.04375 94.2125 -40 94 C-42.46754527 88.41119411 -41.92177744 83.82875004 -41.25 77.9375 C-41.04381003 75.96879821 -40.83809294 74.00004684 -40.6328125 72.03125 C-40.52485352 71.0309375 -40.41689453 70.030625 -40.30566406 69 C-40.01184765 66.11628105 -39.77227497 63.23412118 -39.5546875 60.34375 C-38.84690328 51.23692632 -37.87958183 42.95312989 -34.8046875 34.30078125 C-33.88995458 32.09159566 -33.88995458 32.09159566 -34 30 C-48.90166699 54.20575349 -54.94232052 81.34243343 -53.97265625 109.7578125 C-54.00041007 112.03362562 -54.25817988 113.85013913 -55 116 C-57.38779956 117.79084967 -58.63855075 118.0258178 -61.625 117.8125 C-64 117 -64 117 -66 114 C-66.31884766 112.00708008 -66.31884766 112.00708008 -66.4140625 109.76953125 C-66.45273438 108.96708984 -66.49140625 108.16464844 -66.53125 107.33789062 C-66.57765625 106.08782227 -66.57765625 106.08782227 -66.625 104.8125 C-66.66367188 103.96751953 -66.70234375 103.12253906 -66.7421875 102.25195312 C-66.83636279 100.16832476 -66.91926675 98.08419247 -67 96 C-68.63366399 106.44210201 -69.40687731 116.61732184 -69.375 127.1875 C-69.37412384 127.90445038 -69.37324768 128.62140076 -69.37234497 129.3600769 C-69.29303922 149.12696789 -66.31528586 167.84316192 -55.0625 184.5625 C-52.71181119 188.06138004 -52.32178352 190.76114699 -53 195 C-56 197 -56 197 -59.5625 196.75 C-63 196 -63 196 -65 194 C-55.45214712 211.25686001 -44.39800569 225.59085993 -25 232 C-22.09504349 232.6386525 -19.22475196 233.14911538 -16.27734375 233.54296875 C-14 234 -14 234 -11 236 C-10.1114656 238.221336 -9.97743427 239.74425507 -10.1875 242.125 C-11 244 -11 244 -12.76953125 245.125 C-21.0859684 248.38749023 -32.17671309 243.09708126 -39.78515625 239.7890625 C-62.876508 228.29322408 -75.92728795 204.42907406 -84 181 C-85.083139 177.58287929 -86.07178068 174.14973759 -87 170.6875 C-87.2077002 169.91784912 -87.41540039 169.14819824 -87.62939453 168.35522461 C-88.76769005 163.83042524 -89.35154681 159.70119377 -89 155 C-87.3125 153 -87.3125 153 -85 152 C-83.32311919 152.27741603 -81.6531875 152.60520895 -80 153 C-80.14074951 152.27659424 -80.28149902 151.55318848 -80.42651367 150.80786133 C-81.78143155 143.37641446 -82.35244685 136.23513832 -82.3125 128.6875 C-82.30512817 127.000802 -82.30512817 127.000802 -82.29760742 125.2800293 C-82.08355674 109.6543294 -79.67817161 94.52224751 -76.5 79.25 C-76.29866455 78.26684814 -76.0973291 77.28369629 -75.88989258 76.27075195 C-75.68904053 75.36156006 -75.48818848 74.45236816 -75.28125 73.515625 C-75.10658203 72.71415039 -74.93191406 71.91267578 -74.75195312 71.08691406 C-73.88159347 68.67138342 -73.0705213 67.51534585 -71 66 C-67.69564394 66.23188464 -64.97858719 66.51070641 -62 68 C-61.95875 66.865625 -61.9175 65.73125 -61.875 64.5625 C-59.60859168 44.54255981 -47.82294553 23.22516296 -32.75 10.125 C-24.23965793 3.56091513 -10.1360859 -6.42776179 0 0 Z M-66 86 C-65 88 -65 88 -65 88 Z M-67 190 C-66 192 -66 192 -66 192 Z " fill="#3E7FFF" transform="translate(265,463)"/>
<path d="M0 0 C1.81873672 2.7980565 2.19487943 3.99776295 1.5625 7.25 C0 9 0 9 -3.08984375 9.8046875 C-7.9172692 10.04581764 -10.79674114 8.81803244 -15.125 6.875 C-29.78728892 0.75102256 -45.23169819 -2.37714866 -61 -4 C-48.14035063 9.75683421 -30.22493032 25.15995348 -11 28 C-10.67 29.65 -10.34 31.3 -10 33 C-13.81736534 35.54491023 -16.59503674 35.77818638 -21 35 C-37.78494254 28.88958258 -54.98533979 15.07925036 -67 2 C-67.375 -0.75 -67.375 -0.75 -67 -3 C-66.67 -3.33 -66.34 -3.66 -66 -4 C-89.33907709 -10.78979709 -124.39275967 -3.53574678 -147 4 C-137.72510624 5.13902204 -128.52094892 5.05463018 -119.19140625 4.875 C-118.17820312 4.86339844 -117.165 4.85179687 -116.12109375 4.83984375 C-114.75102173 4.81458618 -114.75102173 4.81458618 -113.35327148 4.78881836 C-111 5 -111 5 -108 7 C-108 7.99 -108 8.98 -108 10 C-102.4329437 7.72256788 -97.11426891 5.06281913 -91.76953125 2.3046875 C-87.69803365 0.38666183 -84.42482931 -0.1536589 -79.9375 -0.1875 C-78.65166016 -0.20876953 -78.65166016 -0.20876953 -77.33984375 -0.23046875 C-75 0 -75 0 -72 2 C-72.33 3.65 -72.66 5.3 -73 7 C-73.95777344 7.11214844 -74.91554687 7.22429687 -75.90234375 7.33984375 C-85.11907786 8.63664128 -92.30405671 11.19214902 -100.23803711 16.12670898 C-100.90456299 16.52446533 -101.57108887 16.92222168 -102.2578125 17.33203125 C-103.12623779 17.88467651 -103.12623779 17.88467651 -104.01220703 18.44848633 C-106 19 -106 19 -108.68069458 18.04689026 C-112.35063246 16.88941249 -115.25457615 16.7695715 -119.09667969 16.80126953 C-119.78065323 16.80430588 -120.46462677 16.80734222 -121.16932678 16.81047058 C-123.42041342 16.82369771 -125.67095942 16.85238651 -127.921875 16.8828125 C-129.5068527 16.89886621 -131.09183413 16.91455596 -132.67681885 16.92990112 C-136.00228956 16.96485399 -139.32753211 17.00817381 -142.65283203 17.05664062 C-146.86135403 17.1167782 -151.06960214 17.15044816 -155.27845383 17.17669868 C-158.55803324 17.20128144 -161.8372244 17.2435785 -165.11655426 17.29043198 C-166.66462065 17.30996768 -168.21277481 17.32365309 -169.76094818 17.33075333 C-186.5168624 17.42340002 -203.02517745 19.67476222 -216.875 29.75 C-219.62732331 31.73167279 -220.8182798 32.46224447 -224 33 C-226.1875 32.5 -226.1875 32.5 -228 31 C-229.1875 27.75 -229.1875 27.75 -229 24 C-218.9808603 11.92565216 -198.89314824 6.68148448 -184 5 C-179.68957855 4.74657413 -175.37762478 4.58714333 -171.0625 4.4375 C-169.90169922 4.39431641 -168.74089844 4.35113281 -167.54492188 4.30664062 C-164.69671768 4.20115158 -161.84843471 4.09903445 -159 4 C-159.226875 2.906875 -159.45375 1.81375 -159.6875 0.6875 C-160 -3 -160 -3 -158.77661133 -4.63891602 C-156.81331988 -6.14301795 -155.25717156 -6.77668181 -152.88671875 -7.46484375 C-152.06244385 -7.70557617 -151.23816895 -7.94630859 -150.38891602 -8.19433594 C-149.49744873 -8.43958008 -148.60598145 -8.68482422 -147.6875 -8.9375 C-146.75542725 -9.19692383 -145.82335449 -9.45634766 -144.86303711 -9.72363281 C-101.01323743 -21.56759176 -40.30821875 -25.27143613 0 0 Z " fill="#3F80FF" transform="translate(232,293)"/>
<path d="M0 0 C3.95998687 1.90932445 4.92535577 4.28649142 6.47070312 8.18066406 C7.06060779 9.55090239 7.65312945 10.92001655 8.24804688 12.28808594 C8.54630371 12.98699951 8.84456055 13.68591309 9.15185547 14.40600586 C10.56647576 17.61709553 12.16796334 20.7231836 13.78320312 23.83691406 C14.40918585 25.0572803 15.03450719 26.27798601 15.65917969 27.49902344 C16.1271698 28.41300903 16.1271698 28.41300903 16.60461426 29.34545898 C29.2427304 54.12664616 40.71976796 80.66584035 33.04492188 108.91503906 C31.61806818 112.64418657 30.47395786 114.36689328 27.06445312 116.47753906 C24.40039062 116.07910156 24.40039062 116.07910156 22.06445312 115.47753906 C22.11085938 116.54230469 22.15726562 117.60707031 22.20507812 118.70410156 C22.75247223 136.66195824 17.91723977 152.3825611 5.68945312 165.91503906 C1.28781225 170.57604093 -3.25796673 174.46941765 -8.93554688 177.47753906 C-9.6909375 177.88746094 -10.44632812 178.29738281 -11.22460938 178.71972656 C-18.53263946 182.17140201 -27.12935474 183.49945334 -34.91259766 180.7890625 C-44.86679687 176.54628906 -44.86679687 176.54628906 -47.93554688 173.47753906 C-48.51553413 167.21367673 -48.51553413 167.21367673 -46.31054688 164.41503906 C-43.93554688 163.47753906 -43.93554688 163.47753906 -41.06054688 164.10253906 C-37.93554687 165.47753906 -37.93554687 165.47753906 -34.99804688 167.04003906 C-29.28932776 169.71964191 -24.22861197 169.85086341 -18.20898438 168.34082031 C-12.4580883 166.15706081 -8.17182006 161.79797662 -3.93554688 157.47753906 C-5.11890625 157.52394531 -6.30226563 157.57035156 -7.52148438 157.61816406 C-21.95403288 158.01830456 -31.11689763 155.55265514 -41.92773438 145.65332031 C-55.76964506 131.51518197 -62.22786232 108.32615987 -63.31054688 88.97753906 C-62.93554688 85.47753906 -62.93554688 85.47753906 -61.31054688 83.41503906 C-58.04467655 82.12587972 -56.237808 82.3289265 -52.93554688 83.47753906 C-50.94236407 87.16565469 -50.36821955 91.13435859 -49.64306641 95.21630859 C-46.7653377 111.40468424 -41.83438025 131.47023291 -27.87304688 141.72753906 C-24.30430933 143.85359547 -21.6691003 144.59546186 -17.59179688 144.72363281 C-16.34076172 144.77293945 -16.34076172 144.77293945 -15.06445312 144.82324219 C-13.31198085 144.8844355 -11.55936801 144.94172802 -9.80664062 144.99511719 C-8.97261719 145.02927734 -8.13859375 145.0634375 -7.27929688 145.09863281 C-6.13750977 145.13621704 -6.13750977 145.13621704 -4.97265625 145.17456055 C-2.93554688 145.47753906 -2.93554688 145.47753906 0.06445312 147.47753906 C0.39445312 148.46753906 0.72445312 149.45753906 1.06445312 150.47753906 C6.18263668 140.85699618 10.23905555 132.85653427 10.00195312 121.72753906 C9.92472423 117.48589025 10.03550865 114.72283671 13.06445312 111.47753906 C15.12695312 110.60253906 15.12695312 110.60253906 17.06445312 110.47753906 C17.72445312 110.80753906 18.38445312 111.13753906 19.06445312 111.47753906 C27.00757814 83.3019258 18.04195362 61.87426303 5.63085938 36.67089844 C3.17575146 31.66578442 0.77433318 26.63549332 -1.62304688 21.60253906 C-2.04481201 20.7232373 -2.46657715 19.84393555 -2.90112305 18.93798828 C-3.2876001 18.12861816 -3.67407715 17.31924805 -4.07226562 16.48535156 C-4.40959717 15.78039551 -4.74692871 15.07543945 -5.09448242 14.34912109 C-6.93852363 10.24566103 -7.33562423 6.9584054 -6.93554688 2.47753906 C-4.63285544 -0.44510776 -3.66203618 -0.6517596 0 0 Z " fill="#3E7FFF" transform="translate(354.935546875,417.5224609375)"/>
<path d="M0 0 C2.375 0.8125 2.375 0.8125 4.375 2.8125 C4.89194609 9.81999148 3.58883536 16.54092163 2.4375 23.4375 C0.97416834 32.57441566 -0.33484316 41.55271211 -0.625 50.8125 C-0.66496094 51.69679688 -0.70492188 52.58109375 -0.74609375 53.4921875 C-1.19296408 71.20928174 1.87919576 87.62240993 11.98046875 102.3671875 C14.14393198 106.1608233 14.14956421 108.55239685 13.375 112.8125 C10.375 114.8125 10.375 114.8125 7.5625 114.9375 C0.09527941 112.30201038 -3.1215734 103.37160624 -6.3671875 96.66796875 C-7.80672993 93.39993919 -8.83488983 90.28898476 -9.625 86.8125 C-8.81925974 109.53437543 2.7017916 127.96011772 18.86987305 143.17260742 C22.22039916 146.25549971 25.25864118 148.85458042 29.375 150.8125 C26.7294182 147.99976331 24.08349239 145.18735045 21.4375 142.375 C20.68275391 141.57255859 19.92800781 140.77011719 19.15039062 139.94335938 C18.07241211 138.79770508 18.07241211 138.79770508 16.97265625 137.62890625 C15.97504272 136.56845093 15.97504272 136.56845093 14.95727539 135.48657227 C14.10612195 134.58603853 13.25119153 133.68869153 12.375 132.8125 C12 129.9375 12 129.9375 12.375 126.8125 C14.5625 124.8125 14.5625 124.8125 17.375 123.8125 C22.51375995 124.64581242 26.87996378 129.1353403 30.375 132.8125 C30.375 133.4725 30.375 134.1325 30.375 134.8125 C31.035 134.8125 31.695 134.8125 32.375 134.8125 C33.609375 136.0703125 33.609375 136.0703125 35.125 137.9375 C49.61105686 155.19066181 49.61105686 155.19066181 69.375 164.8125 C73.59531983 165.09589716 77.4799508 165.00183733 81.625 164.125 C84.375 163.8125 84.375 163.8125 87.25 164.875 C89.375 166.8125 89.375 166.8125 89.9375 169.8125 C89.375 172.8125 89.375 172.8125 87.875 174.5625 C79.8557639 178.57211805 72.00826673 178.7891789 63.5625 176.25 C54.26730811 172.92861199 46.62045347 167.41391317 39.375 160.8125 C38.8490625 162.0190625 38.8490625 162.0190625 38.3125 163.25 C36.375 165.8125 36.375 165.8125 33.1640625 166.73046875 C28.55305007 166.83029479 26.29925232 165.42412446 22.8125 162.6875 C22.2153418 162.23737549 21.61818359 161.78725098 21.00292969 161.32348633 C1.15411802 146.0421864 -14.52130886 127.57210585 -20.625 102.8125 C-20.81707031 102.05582031 -21.00914062 101.29914063 -21.20703125 100.51953125 C-21.81921971 96.55460972 -21.84942044 92.63139922 -21.875 88.625 C-21.895625 87.80580078 -21.91625 86.98660156 -21.9375 86.14257812 C-21.953125 83.76953125 -21.953125 83.76953125 -21.625 79.8125 C-17.92158604 77.34355736 -16.82047676 77.99164585 -12.625 78.8125 C-12.13 78.3175 -12.13 78.3175 -11.625 77.8125 C-11.86619661 76.27598828 -12.10759774 74.73950856 -12.34960938 73.203125 C-14.45140133 54.9577821 -12.67708602 35.81553885 -9.625 17.8125 C-9.5022168 17.02665527 -9.37943359 16.24081055 -9.25292969 15.43115234 C-7.39508872 3.57014284 -7.39508872 3.57014284 -4.69140625 0.91015625 C-2.625 -0.1875 -2.625 -0.1875 0 0 Z " fill="#5D6AFF" transform="translate(260.625,479.1875)"/>
<path d="M0 0 C4.17763906 0.07923109 6.34718467 1.86158002 9.24780273 4.74121094 C9.74352783 5.25973633 10.23925293 5.77826172 10.75 6.3125 C11.27730713 6.8580957 11.80461426 7.40369141 12.34790039 7.96582031 C27.08852685 23.48697759 37.32987232 43.10670082 45 63 C46.32 63 47.64 63 49 63 C53.22486975 66.11952592 54.82569613 70.47288214 56.75 75.1875 C57.09071533 76.01411133 57.43143066 76.84072266 57.7824707 77.69238281 C65.11422657 95.9150646 70.49994734 114.6818799 74 134 C74.24556641 135.30710937 74.24556641 135.30710937 74.49609375 136.640625 C76.91381089 149.98802211 77.26087559 163.2249872 77.25 176.75 C77.24940582 177.58347961 77.24881165 178.41695923 77.24819946 179.2756958 C77.24170225 181.65790959 77.22526315 184.03975913 77.203125 186.421875 C77.1987291 187.14271271 77.19433319 187.86355042 77.18980408 188.60623169 C77.14636148 191.66950138 76.97628357 194.0711493 76 197 C74.125 197.8125 74.125 197.8125 72 198 C70.515 197.01 70.515 197.01 69 196 C68.69116211 193.69116211 68.69116211 193.69116211 68.77734375 190.77734375 C68.79772705 189.69437012 68.81811035 188.61139648 68.83911133 187.49560547 C68.87157959 186.32143066 68.90404785 185.14725586 68.9375 183.9375 C69.28032491 156.33917844 65.25898966 130.55893595 58 104 C58.14622803 104.92635254 58.29245605 105.85270508 58.44311523 106.80712891 C58.99382106 110.31408301 59.5392238 113.82178354 60.08129883 117.33007812 C60.31492547 118.83528062 60.55053447 120.34017706 60.78833008 121.84472656 C63.12582821 136.65052867 64.17091757 151.18010843 64.125 166.1875 C64.12886719 167.46302734 64.13273437 168.73855469 64.13671875 170.05273438 C64.11566803 190.54561114 64.11566803 190.54561114 61.64501953 193.76635742 C60 195 60 195 57 195.5 C54 195 54 195 52.32421875 193.06176758 C50.47961278 188.79679644 50.68216688 185.1042512 50.8125 180.51171875 C50.83862803 178.60042767 50.86441257 176.68913186 50.88989258 174.77783203 C50.90855377 173.78253479 50.92721497 172.78723755 50.94644165 171.76177979 C51.2453034 154.60694521 51.23141249 137.90738069 48 121 C47.82839355 120.06752441 47.65678711 119.13504883 47.47998047 118.17431641 C40.19232258 79.43054808 25.16297434 42.24805989 0.3125 11.375 C-1.6600929 8.80551299 -1.99997495 8.00016911 -2.5 4.625 C-2 2 -2 2 0 0 Z M55 95 C56 97 56 97 56 97 Z M56 98 C57 101 57 101 57 101 Z " fill="#3E7EFF" transform="translate(425,418)"/>
<path d="M0 0 C20.14923852 7.55155349 31.1053954 27.75558147 42 45 C42.92167969 44.79761719 43.84335937 44.59523438 44.79296875 44.38671875 C48 44 48 44 51.3125 45.8125 C54 48 54 48 55 50 C55.70125 49.46375 56.4025 48.9275 57.125 48.375 C60 47 60 47 62.80859375 47.6015625 C66.45054936 49.19742554 69.08807807 51.29590463 71.9375 54 C72.45965088 54.48984375 72.98180176 54.9796875 73.51977539 55.484375 C93.53309089 74.75576675 97.70477938 105.22781659 100.21484375 131.671875 C100 134 100 134 98.69140625 135.8046875 C96.08348176 137.64770111 94.09973978 137.38746747 91 137 C88.43178487 135.23936054 88.01294867 134.05408595 87.27978516 130.99169922 C87.11784668 129.77498535 86.9559082 128.55827148 86.7890625 127.3046875 C86.59737337 125.9430863 86.40547072 124.58151515 86.21337891 123.2199707 C86.11776672 122.50974762 86.02215454 121.79952454 85.92364502 121.06777954 C82.67145114 93.45762615 82.67145114 93.45762615 69 70 C69.54269531 71.00417969 70.08539063 72.00835937 70.64453125 73.04296875 C78.06012381 87.07321464 80.54690237 99.22085385 80 115 C78.35 115.66 76.7 116.32 75 117 C71.68321189 113.68321189 72.23836484 108.6992361 71.87695312 104.1796875 C70.97577383 94.46968351 67.97237673 86.17989401 63.375 77.625 C62.94203613 76.80862061 62.50907227 75.99224121 62.06298828 75.15112305 C58.31336675 68.24639862 54.00308908 62.05446288 49 56 C49.24645264 56.58676514 49.49290527 57.17353027 49.74682617 57.77807617 C56.98257212 75.17257303 63.98606175 93.65846644 64.25 112.75 C64.27578125 113.87921875 64.3015625 115.0084375 64.328125 116.171875 C64.21984375 117.10515625 64.1115625 118.0384375 64 119 C61 121 61 121 57.9375 120.75 C55 120 55 120 53 118 C52.5168457 115.90307617 52.5168457 115.90307617 52.17578125 113.29296875 C52.03817383 112.32423828 51.90056641 111.35550781 51.75878906 110.35742188 C51.61151367 109.31134766 51.46423828 108.26527344 51.3125 107.1875 C48.52948261 89.21900476 42.85573217 72.8588007 34 57 C33.65211426 56.36900391 33.30422852 55.73800781 32.94580078 55.08789062 C24.0707652 39.14938279 12.48688946 24.83327447 -0.8203125 12.35546875 C-3 10 -3 10 -3.5 6.375 C-3 3 -3 3 -1.5 1.0625 C-1.005 0.711875 -0.51 0.36125 0 0 Z " fill="#5C6AFF" transform="translate(351,397)"/>
<path d="M0 0 C0 2.31 0 4.62 0 7 C-6 9.66666667 -12 12.33333333 -18 15 C-17.175 15.53625 -16.35 16.0725 -15.5 16.625 C-13 19 -13 19 -12.25 21.75 C-13.21902572 25.94911147 -15.28134948 27.84372965 -18.18359375 30.93359375 C-27.50042294 41.53273921 -26.72047007 57.30392201 -27.67724609 70.58544922 C-27.85177441 72.97672618 -28.03500607 75.36722871 -28.21875 77.7578125 C-28.26777466 78.48090607 -28.31679932 79.20399963 -28.36730957 79.94900513 C-28.72060937 84.51707574 -29.42210588 88.69056276 -31 93 C-34 95 -34 95 -37.1875 94.625 C-38.115625 94.41875 -39.04375 94.2125 -40 94 C-42.46754527 88.41119411 -41.92177744 83.82875004 -41.25 77.9375 C-41.04381003 75.96879821 -40.83809294 74.00004684 -40.6328125 72.03125 C-40.52485352 71.0309375 -40.41689453 70.030625 -40.30566406 69 C-40.01184765 66.11628105 -39.77227497 63.23412118 -39.5546875 60.34375 C-38.84690328 51.23692632 -37.87958183 42.95312989 -34.8046875 34.30078125 C-33.88995458 32.09159566 -33.88995458 32.09159566 -34 30 C-48.90166699 54.20575349 -54.94232052 81.34243343 -53.97265625 109.7578125 C-54.00041007 112.03362562 -54.25817988 113.85013913 -55 116 C-57.38779956 117.79084967 -58.63855075 118.0258178 -61.625 117.8125 C-64 117 -64 117 -66 114 C-70.17810227 83.58060668 -61.71378426 45.88483008 -43.25 21.1875 C-35.17825115 10.93108978 -13.70793807 -8.69283878 0 0 Z " fill="#5B6AFF" transform="translate(265,463)"/>
<path d="M0 0 C5.00075469 1.28707115 8.22070106 3.6928302 12.27734375 6.80078125 C13.45043091 7.67549072 13.45043091 7.67549072 14.6472168 8.56787109 C16.26418149 9.77573997 17.87689089 10.98932576 19.48535156 12.20849609 C21.681575 13.86864425 23.89293008 15.50514265 26.11328125 17.1328125 C34.65707916 23.41931468 42.83698949 30.02879495 50.83984375 36.98828125 C51.90912109 37.90673828 51.90912109 37.90673828 53 38.84375 C54.96313822 40.54083664 56.90394278 42.26018886 58.83984375 43.98828125 C59.74089844 44.78492188 60.64195312 45.5815625 61.5703125 46.40234375 C91.34750703 72.99593611 113.11849038 106.50503643 120.83984375 145.98828125 C121.02675781 146.93960938 121.21367188 147.8909375 121.40625 148.87109375 C121.95504649 152.37183769 121.96586656 154.66990783 120.65234375 157.98828125 C118.83984375 159.98828125 118.83984375 159.98828125 116.90234375 160.92578125 C114.0823647 161.01123516 113.03834049 160.82036187 110.83984375 158.98828125 C109.6526359 154.78594235 108.74328371 150.55018438 107.83203125 146.28125 C102.89672619 123.37597074 93.35077654 102.45674117 78.83984375 83.98828125 C78.14246094 83.09882813 77.44507813 82.209375 76.7265625 81.29296875 C59.54518061 59.8696471 39.23291353 41.97464939 17.15234375 25.73828125 C16.36263184 25.1561084 15.57291992 24.57393555 14.75927734 23.97412109 C11.06759643 21.27361865 7.35297188 18.64050821 3.52734375 16.1328125 C2.86951904 15.69291992 2.21169434 15.25302734 1.53393555 14.79980469 C0.3200839 13.99403526 -0.90707748 13.20780502 -2.14916992 12.44628906 C-3.765625 11.3671875 -3.765625 11.3671875 -6.16015625 8.98828125 C-6.7109375 5.328125 -6.7109375 5.328125 -6.16015625 1.98828125 C-3.16015625 -0.01171875 -3.16015625 -0.01171875 0 0 Z " fill="#5C6AFF" transform="translate(394.16015625,347.01171875)"/>
<path d="M0 0 C0.99 0.495 0.99 0.495 2 1 C3.14732194 26.75100354 -5.45665163 48.57841699 -22.6875 67.75 C-29.49113329 75.06853316 -38.61144656 83.30405362 -48 87 C-50.65491264 86.68393897 -52.61205246 86.19397377 -55 85 C-55 83.35 -55 81.7 -55 80 C-56.15113281 80.51949219 -57.30226563 81.03898438 -58.48828125 81.57421875 C-82.55924458 92.20945401 -108.0122606 98.16492884 -134.3125 93.6875 C-135.01157471 93.56995361 -135.71064941 93.45240723 -136.4309082 93.33129883 C-140.47120236 92.55745715 -143.7485365 91.56401122 -147 89 C-147.5 85.4375 -147.5 85.4375 -147 82 C-143.53578565 79.69052377 -142.73499238 79.85055256 -138.75 80.3125 C-137.83734375 80.41175781 -136.9246875 80.51101563 -135.984375 80.61328125 C-133.89250355 80.88434836 -131.80522983 81.1922455 -129.72265625 81.52734375 C-105.52581214 84.59955586 -80.23658615 79.46171069 -58.87890625 67.80859375 C-55.97540472 66.55906191 -53.8985332 66.91305005 -51 68 C-49 70 -49 70 -49 73 C-31.27328461 60.65861587 -16.85834297 43.51155991 -11.5390625 22.07421875 C-11.10266563 19.5854917 -10.7808621 17.15469036 -10.5234375 14.64453125 C-10.44456299 13.87858643 -10.36568848 13.1126416 -10.28442383 12.32348633 C-10.13894766 10.80038766 -10.01306284 9.27526231 -9.90893555 7.7487793 C-9.61760058 4.42725523 -9.42960638 2.45518869 -7.09765625 -0.015625 C-4.32903399 -1.31486673 -2.87181382 -0.90688857 0 0 Z " fill="#5D6BFF" transform="translate(492,620)"/>
<path d="M0 0 C0.66 0.33 1.32 0.66 2 1 C2.40729228 3.32156597 2.74438677 5.6568787 3 8 C4.98 7.67 6.96 7.34 9 7 C11.42205517 10.76371838 13.01694156 14.49373098 14.5625 18.6875 C21.51391749 36.72464655 32.94561934 58.6823848 49 70 C48.67 71.65 48.34 73.3 48 75 C46.234375 75.6484375 46.234375 75.6484375 44 76 C34.10737117 71.21994825 27.07124259 60.19156154 21.5625 51.125 C21.00973389 50.22458984 20.45696777 49.32417969 19.88745117 48.39648438 C13.6690064 38.07777794 8.34871548 27.23975694 4 16 C6.1069946 37.54294476 16.7919671 56.34971914 30 73 C30.46148437 73.60457031 30.92296875 74.20914063 31.3984375 74.83203125 C34.77307548 79.1239366 38.8045133 82.5468965 43 86 C43.9384375 86.78761719 44.876875 87.57523438 45.84375 88.38671875 C52.36019234 93.71134214 58.95157752 97.8179806 66.61914062 101.31225586 C70.42310047 103.06781957 73.34359685 104.72089885 76 108 C76.5 110.5625 76.5 110.5625 76 113 C74.375 114.875 74.375 114.875 72 116 C66.66587947 115.63023058 62.61090619 113.56147653 58 111.0625 C57.25234375 110.65773438 56.5046875 110.25296875 55.734375 109.8359375 C26.56729577 93.71467772 4.94562363 67.66801923 -4.96875 35.78125 C-8.16211986 24.07222719 -9.47098641 13.14098306 -9 1 C-5.50840997 -0.9389468 -3.88390323 -1.12428778 0 0 Z " fill="#5C6BFF" transform="translate(211,594)"/>
<path d="M0 0 C1.45962699 0.31772839 2.91665247 0.64760131 4.37109375 0.98828125 C5.15339355 1.16907227 5.93569336 1.34986328 6.74169922 1.53613281 C20.33645899 4.77416243 32.54259716 9.67253157 44.80859375 16.30078125 C45.88238281 16.87957031 46.95617187 17.45835937 48.0625 18.0546875 C64.89803562 27.51507323 79.41280741 40.518578 92.80859375 54.30078125 C93.66453125 55.14640625 94.52046875 55.99203125 95.40234375 56.86328125 C102.73462347 64.29078538 110.54266488 74.3976974 110.80859375 85.30078125 C109.842538 88.05032453 109.42843861 88.99085882 106.80859375 90.30078125 C103.49609375 90.67578125 103.49609375 90.67578125 99.80859375 90.30078125 C95.51449419 86.72462263 93.24808138 82.78609323 90.74609375 77.92578125 C84.73586482 66.82670282 77.23781646 53.85188553 64.80859375 49.30078125 C65.79859375 48.31078125 65.79859375 48.31078125 66.80859375 47.30078125 C46.98479355 28.50146684 21.72802134 15.61973433 -5.50756836 12.27392578 C-9.52590125 11.7557637 -12.26997501 11.20753193 -15.19140625 8.30078125 C-16.40655176 5.30965384 -16.24506905 4.46176966 -15.19140625 1.30078125 C-10.44177453 -1.8656399 -5.40419894 -1.02296012 0 0 Z " fill="#3E7FFF" transform="translate(219.19140625,303.69921875)"/>
<path d="M0 0 C2.3125 0.375 2.3125 0.375 3.3125 1.375 C3.81354005 4.98248837 3.46569133 6.1595747 1.3125 9.1875 C0.6525 9.909375 -0.0075 10.63125 -0.6875 11.375 C0.26125 11.49875 1.21 11.6225 2.1875 11.75 C5.3125 12.375 5.3125 12.375 7.3125 14.375 C8.08757652 22.44028903 3.72452541 28.32986647 -1.11328125 34.4375 C-17.92047136 53.96455165 -41.2066491 65.10221054 -66.6875 67.375 C-73.43788866 67.87384948 -80.15309876 67.1845265 -86.6875 65.375 C-88.6875 63.375 -88.6875 63.375 -89.0625 60.4375 C-88.6875 57.375 -88.6875 57.375 -87.24609375 55.68359375 C-83.33929106 53.68545802 -79.68539629 54.19326786 -75.375 54.375 C-61.53124261 54.64879959 -49.40098701 52.04717113 -36.6875 46.375 C-35.76453125 45.96765625 -34.8415625 45.5603125 -33.890625 45.140625 C-22.65808384 39.62174639 -12.74986413 30.33708309 -6.6875 19.375 C-7.3475 20.035 -8.0075 20.695 -8.6875 21.375 C-9.15285156 21.83390625 -9.61820312 22.2928125 -10.09765625 22.765625 C-11.19424477 23.87568512 -12.26337366 25.01331779 -13.30859375 26.171875 C-20.44217828 33.842396 -32.72907707 43.78530314 -43.375 44.6875 C-46.6875 44.375 -46.6875 44.375 -49.6875 42.375 C-49.875 39.75 -49.875 39.75 -49.6875 37.375 C-48.45 37.189375 -47.2125 37.00375 -45.9375 36.8125 C-28.07018439 32.7734208 -15.03723263 16.45818714 -4.50390625 2.4765625 C-2.6875 0.375 -2.6875 0.375 0 0 Z " fill="#5C6AFF" transform="translate(405.6875,607.625)"/>
<path d="M0 0 C4.06658528 1.69441054 4.38907046 3.61453412 6.02294922 7.54345703 C7.76697038 12.3745961 8.93895234 17.30582713 10.0625 22.3125 C10.31854004 23.45154785 10.57458008 24.5905957 10.83837891 25.76416016 C19.38581683 65.08455089 20.52425892 110.93528244 -1.02734375 146.60546875 C-3.44971802 149.8528893 -5.00989137 150.66810916 -9 151.25 C-11.375 150.3125 -11.375 150.3125 -13 148.25 C-13.60630684 142.47225248 -12.08086731 138.73034334 -9.3125 133.8125 C-5.11032388 125.84960347 -2.18618786 117.97568583 0 109.25 C0.47953125 107.38021484 0.47953125 107.38021484 0.96875 105.47265625 C7.49419228 76.23128753 2.92044396 43.95785529 -5.06884766 15.59277344 C-5.31940918 14.70106445 -5.5699707 13.80935547 -5.828125 12.890625 C-6.0540332 12.11235352 -6.27994141 11.33408203 -6.51269531 10.53222656 C-7.05101616 8.01107262 -7.19308382 5.8204958 -7 3.25 C-4.74806723 0.65161604 -3.42601137 0.28550095 0 0 Z " fill="#3E7EFF" transform="translate(517,519.75)"/>
<path d="M0 0 C2.375 1.4375 2.375 1.4375 3.5 4 C3.16199617 13.29510521 -5.16750021 21.4479114 -10.625 28.4375 C-11.57246094 29.69626953 -11.57246094 29.69626953 -12.5390625 30.98046875 C-33.69444189 58.16218132 -63.47940234 82.72678914 -98.625 87.4375 C-100.99748721 87.57488233 -103.37373798 87.65670611 -105.75 87.6875 C-106.94882812 87.71328125 -108.14765625 87.7390625 -109.3828125 87.765625 C-112.8532406 87.41440095 -114.23290788 86.9346108 -116.625 84.4375 C-117.125 81.4375 -117.125 81.4375 -116.625 78.4375 C-113.34099993 75.04987857 -110.44799524 75.083413 -105.875 75 C-81.67976352 73.93461427 -61.34694831 61.97714023 -43.98828125 45.6484375 C-42.16240561 43.94026293 -40.33691387 42.35511302 -38.375 40.8125 C-34.71490178 37.65150608 -31.70408154 34.15971686 -28.625 30.4375 C-28.17817871 29.89770508 -27.73135742 29.35791016 -27.27099609 28.80175781 C-21.16592594 21.39177177 -15.39875601 13.93941269 -10.24609375 5.828125 C-7.49926679 1.77738259 -5.29799552 -1.13528475 0 0 Z " fill="#3E7FFF" transform="translate(497.625,661.5625)"/>
<path d="M0 0 C1.28583984 -0.02126953 1.28583984 -0.02126953 2.59765625 -0.04296875 C4.9375 0.1875 4.9375 0.1875 7.9375 2.1875 C7.6075 3.8375 7.2775 5.4875 6.9375 7.1875 C5.97972656 7.29964844 5.02195313 7.41179687 4.03515625 7.52734375 C-5.18157786 8.82414128 -12.36655671 11.37964902 -20.30053711 16.31420898 C-20.96706299 16.71196533 -21.63358887 17.10972168 -22.3203125 17.51953125 C-23.18873779 18.07217651 -23.18873779 18.07217651 -24.07470703 18.63598633 C-26.0625 19.1875 -26.0625 19.1875 -28.74319458 18.23439026 C-32.41313246 17.07691249 -35.31707615 16.9570715 -39.15917969 16.98876953 C-39.84315323 16.99180588 -40.52712677 16.99484222 -41.23182678 16.99797058 C-43.48291342 17.01119771 -45.73345942 17.03988651 -47.984375 17.0703125 C-49.5693527 17.08636621 -51.15433413 17.10205596 -52.73931885 17.11740112 C-56.06478956 17.15235399 -59.39003211 17.19567381 -62.71533203 17.24414062 C-66.92385403 17.3042782 -71.13210214 17.33794816 -75.34095383 17.36419868 C-78.62053324 17.38878144 -81.8997244 17.4310785 -85.17905426 17.47793198 C-86.72712065 17.49746768 -88.27527481 17.51115309 -89.82344818 17.51825333 C-106.5793624 17.61090002 -123.08767745 19.86226222 -136.9375 29.9375 C-139.68982331 31.91917279 -140.8807798 32.64974447 -144.0625 33.1875 C-146.25 32.6875 -146.25 32.6875 -148.0625 31.1875 C-149.25 27.9375 -149.25 27.9375 -149.0625 24.1875 C-138.96235327 12.0155283 -119.01753898 7.04395866 -104.0625 5.1875 C-101.58099828 5.0951503 -99.0974662 5.04967632 -96.61425781 5.04223633 C-95.55193687 5.03719841 -95.55193687 5.03719841 -94.46815491 5.03205872 C-92.15062665 5.02263615 -89.83317116 5.02061072 -87.515625 5.01953125 C-85.89613821 5.01631508 -84.27665171 5.01295074 -82.65716553 5.00944519 C-79.27485479 5.00347752 -75.89256953 5.0016031 -72.51025391 5.00219727 C-68.17352345 5.00229932 -63.83695512 4.98859187 -59.50026321 4.97142506 C-56.16145065 4.96032317 -52.82267771 4.95827742 -49.48384857 4.95880699 C-47.88423855 4.95762627 -46.28462752 4.95319932 -44.68503571 4.94547462 C-42.45429435 4.93570143 -40.2239109 4.93854086 -37.99316406 4.94458008 C-36.72410217 4.94315506 -35.45504028 4.94173004 -34.14752197 4.94026184 C-31.0625 5.1875 -31.0625 5.1875 -28.0625 7.1875 C-28.0625 8.1775 -28.0625 9.1675 -28.0625 10.1875 C-22.4954437 7.91006788 -17.17676891 5.25031913 -11.83203125 2.4921875 C-7.76053365 0.57416183 -4.48732931 0.0338411 0 0 Z " fill="#5C6BFF" transform="translate(152.0625,292.8125)"/>
<path d="M0 0 C4.64024357 1.85785843 7.8079954 6.16656872 11.05859375 9.82421875 C11.93837891 10.80841797 11.93837891 10.80841797 12.8359375 11.8125 C13.96399718 13.09450665 15.08219028 14.38524879 16.19140625 15.68359375 C17.55108447 17.24238803 18.94697392 18.76981663 20.36328125 20.27734375 C39.10802243 40.24837641 53.50695921 64.66920481 53.359375 92.80859375 C53.00415078 95.18905737 52.36598542 96.80370435 51.05859375 98.82421875 C47.81127118 99.88312828 46.00003935 100.29154283 42.89453125 98.75 C40.23246802 95.95766559 40.59072625 93.88191985 40.55859375 90.07421875 C39.5497078 62.63451862 23.15662164 41.95177518 5.05859375 22.82421875 C2.70572954 20.21874642 0.36763122 17.60070937 -1.96875 14.98046875 C-3.90334657 12.86582062 -5.89910033 10.83454225 -7.94140625 8.82421875 C-8.93140625 10.30921875 -8.93140625 10.30921875 -9.94140625 11.82421875 C-13.92500646 13.25306264 -18.13100508 13.04545311 -22.31640625 13.07421875 C-23.05890625 13.09484375 -23.80140625 13.11546875 -24.56640625 13.13671875 C-29.43027214 13.17109236 -32.72493301 12.5080169 -36.94140625 9.82421875 C-38.31640625 7.63671875 -38.31640625 7.63671875 -38.94140625 5.82421875 C-38.28140625 4.83421875 -37.62140625 3.84421875 -36.94140625 2.82421875 C-34.48291016 2.4519043 -34.48291016 2.4519043 -31.41796875 2.4609375 C-30.31453125 2.46158203 -29.21109375 2.46222656 -28.07421875 2.46289062 C-26.91664063 2.47900391 -25.7590625 2.49511719 -24.56640625 2.51171875 C-23.4165625 2.50849609 -22.26671875 2.50527344 -21.08203125 2.50195312 C-11.71837693 2.56197655 -11.71837693 2.56197655 -7.94140625 4.82421875 C-7.81765625 4.18484375 -7.69390625 3.54546875 -7.56640625 2.88671875 C-7.25703125 1.86578125 -7.25703125 1.86578125 -6.94140625 0.82421875 C-4.50698961 -0.39298957 -2.67041985 -0.42748925 0 0 Z " fill="#3D7EFF" transform="translate(308.94140625,456.17578125)"/>
<path d="M0 0 C9.70575646 4.82167001 18.47496779 12.35160173 27 19 C27.54881836 19.42732422 28.09763672 19.85464844 28.66308594 20.29492188 C36.3937441 26.39165545 43.39213155 33.19547467 50.375 40.125 C51.6419873 41.37796875 51.6419873 41.37796875 52.93457031 42.65625 C67 56.79415317 67 56.79415317 67 61 C67.66 61 68.32 61 69 61 C70.44873047 62.72485352 70.44873047 62.72485352 72.1171875 65.12890625 C73.02791016 66.43504883 73.02791016 66.43504883 73.95703125 67.76757812 C74.58996094 68.68990234 75.22289062 69.61222656 75.875 70.5625 C76.50019531 71.45775391 77.12539063 72.35300781 77.76953125 73.27539062 C88.04188026 88.09754327 88.04188026 88.09754327 87 95 C85.20375334 97.43776333 83.76974718 98.62754169 81.0625 99.9375 C77.74724938 100.03796214 76.47027229 99.21024363 74 97 C73.52832031 95.12036133 73.52832031 95.12036133 73.203125 92.89453125 C72.11658023 87.51672691 69.63706539 83.89304341 66.375 79.5625 C65.83447998 78.82314209 65.29395996 78.08378418 64.73706055 77.32202148 C63.17609535 75.20036409 61.5941109 73.09682459 60 71 C59.25621094 70.0203125 58.51242187 69.040625 57.74609375 68.03125 C44.55818696 51.19335689 29.12173895 35.16387152 11.5703125 22.88671875 C-6.33156023 10.33917155 -6.33156023 10.33917155 -9 4 C-8.76953125 1.81640625 -8.76953125 1.81640625 -8 0 C-5.06006602 -1.46996699 -3.1571584 -0.73305029 0 0 Z " fill="#3E7EFF" transform="translate(324,334)"/>
<path d="M0 0 C3.4389809 1.50979649 4.29090101 3.48330269 6.125 6.67578125 C16.83692967 24.9268136 31.39306868 33.62879885 51.44140625 38.87890625 C68.46200917 42.50624786 87.56157699 40.19117303 102.375 30.75 C105.5625 29.125 105.5625 29.125 108.4375 29.8125 C110.5625 31.125 110.5625 31.125 111.5625 32.125 C112.25 35.3125 112.25 35.3125 111.5625 39.125 C108.58079193 41.79758931 105.15926259 43.41202995 101.5625 45.125 C100.64726562 45.58003906 99.73203125 46.03507813 98.7890625 46.50390625 C78.90504926 55.62876164 56.73457706 54.8987283 36.36328125 47.6640625 C18.57541361 40.6958088 3.5238979 29.4376061 -5.60546875 12.30859375 C-6.94935945 8.78166934 -6.77680285 5.85733138 -6.4375 2.125 C-4.19711616 0.71438795 -2.65994888 0.13640764 0 0 Z " fill="#3F80FF" transform="translate(262.4375,712.875)"/>
<path d="M0 0 C2.9644944 1.55635956 3.31861153 2.24552036 4.5 5.3125 C5.33755743 10.31423993 5.69959204 15.38528698 6.125 20.4375 C6.19003723 21.19548889 6.25507446 21.95347778 6.32208252 22.73443604 C8.51227665 48.97515808 10.40361732 77.4645329 4.5 103.3125 C4.31244141 104.15264648 4.12488281 104.99279297 3.93164062 105.85839844 C-0.83116883 126.64366883 -0.83116883 126.64366883 -6.5 132.3125 C-10.125 131.9375 -10.125 131.9375 -13.5 131.3125 C-14.93622902 128.92518956 -15.64537251 127.13207566 -15.15087891 124.34423828 C-14.43769436 121.99340962 -13.64272743 119.68708686 -12.8125 117.375 C-12.23653534 115.65509648 -11.66493366 113.93372586 -11.09765625 112.2109375 C-10.81937988 111.37014648 -10.54110352 110.52935547 -10.25439453 109.66308594 C-0.67696652 79.82118403 -4.64540235 46.84146721 -6.9609375 16.19921875 C-7.07856306 14.4870092 -7.19578892 12.77477212 -7.3125 11.0625 C-7.37751709 10.30138916 -7.44253418 9.54027832 -7.50952148 8.75610352 C-7.83183799 3.78030599 -7.83183799 3.78030599 -6.13671875 1.390625 C-2.83995782 -0.7809884 -2.83995782 -0.7809884 0 0 Z " fill="#3D7EFF" transform="translate(426.5,522.6875)"/>
<path d="M0 0 C2.44509314 1.18515103 4.77258701 2.40325454 7.125 3.75 C7.81295654 4.14123047 8.50091309 4.53246094 9.2097168 4.93554688 C25.31793188 14.28115562 39.9348703 25.36161247 53.67578125 37.89453125 C55.71273925 39.73977555 57.78270847 41.5308167 59.875 43.3125 C68.18700808 50.56232449 75.91330138 58.55661358 83 67 C84.19882812 68.34771484 84.19882812 68.34771484 85.421875 69.72265625 C86.25203125 70.68042969 87.0821875 71.63820313 87.9375 72.625 C88.70964844 73.50414062 89.48179687 74.38328125 90.27734375 75.2890625 C92.32050354 78.50437518 92.55189251 80.25764317 92 84 C89.5 85.875 89.5 85.875 87 87 C81.63138406 84.23516279 77.962211 81.27290124 74 76.75 C73.47583496 76.16790771 72.95166992 75.58581543 72.41162109 74.98608398 C69.77388818 72.0471411 67.19067769 69.06447313 64.625 66.0625 C55.9651365 56.09309616 46.36339247 47.16136406 36 39 C34.24989188 37.52096126 32.49989411 36.04179193 30.75 34.5625 C20.70760859 26.36927414 9.68519629 19.65519707 -1.54150391 13.22290039 C-6.80399077 10.19600923 -6.80399077 10.19600923 -9 8 C-9.125 4.375 -9.125 4.375 -9 1 C-5.56847139 -1.16059209 -3.8595813 -1.09274059 0 0 Z " fill="#3F7EFF" transform="translate(323,310)"/>
<path d="M0 0 C3.86281065 1.79400633 7.51428223 3.91110784 11.1875 6.0625 C12.21689697 6.65667725 13.24629395 7.25085449 14.30688477 7.86303711 C21.39816682 11.98665889 28.34722628 16.19271831 35 21 C35.6192334 21.44698242 36.2384668 21.89396484 36.87646484 22.35449219 C45.32008485 28.48172086 53.45849011 34.77115636 61 42 C61.89074219 42.82757813 62.78148437 43.65515625 63.69921875 44.5078125 C72.94505779 53.35390118 85.39770401 66.38622405 87.5625 79.375 C87 82 87 82 85.375 83.9375 C82.00107625 85.44688694 80.50576722 85.19593291 77 84 C74.87500559 81.48817979 73.42327878 78.6419084 71.875 75.75 C67.2196484 67.60977601 62.04124807 60.9960962 55.40380859 54.40673828 C54.10045229 53.10066193 52.83919957 51.75293654 51.58203125 50.40234375 C36.18218501 34.12545434 15.30796104 21.20795749 -5 12 C-5 11.34 -5 10.68 -5 10 C-5.61875 9.7525 -6.2375 9.505 -6.875 9.25 C-9.41463847 7.75609502 -10.17133982 6.8174446 -11 4 C-9.02974447 -1.74657863 -5.2584272 -1.52406259 0 0 Z " fill="#3E7EFF" transform="translate(281,397)"/>
<path d="M0 0 C2.66796875 1.6796875 2.66796875 1.6796875 5.1875 3.875 C6.59515625 5.08929688 6.59515625 5.08929688 8.03125 6.328125 C12.11981184 10.00783065 16.19484027 13.6991482 20.22265625 17.4453125 C22.48277668 19.52424184 24.77584321 21.52425043 27.125 23.5 C43.65778994 37.91495321 68.65014897 67.41790811 71.375 90.125 C71 93 71 93 69.3125 94.9375 C66.35300101 96.2972698 65.04091767 96.09161147 62 95 C59.62181336 92.96398219 58.38487195 91.04472631 57.16015625 88.18359375 C56.82580566 87.42836426 56.49145508 86.67313477 56.14697266 85.89501953 C55.78909668 85.08403809 55.4312207 84.27305664 55.0625 83.4375 C47.9766908 67.99179575 38.32818654 54.59413384 27 42 C26.09607474 40.9742045 25.19242941 39.94816225 24.2890625 38.921875 C15.26077212 28.76788282 5.58855816 19.7947265 -5.6015625 12.0703125 C-8.2249678 9.80580956 -9.10885813 8.31762457 -10 5 C-9.75 2.25 -9.75 2.25 -9 0 C-5.8164233 -1.59178835 -3.40858489 -0.7414662 0 0 Z " fill="#3E7EFF" transform="translate(299,426)"/>
<path d="M0 0 C2.90498266 3.20312562 4.18357616 6.73379078 5.6875 10.75 C16.72412611 39.18919491 34.77239029 69.30324194 63.2109375 83.0703125 C65.125 84 65.125 84 68 86 C68.9375 89.75 68.9375 89.75 69 93 C67.375 94.5625 67.375 94.5625 65 96 C54.20877421 95.15362935 44.91031901 86.7911742 37 80 C36.17757812 79.31164062 35.35515625 78.62328125 34.5078125 77.9140625 C14.62722242 60.75853773 2.80888362 37.89743938 -7 14 C-7.37640625 13.11957031 -7.7528125 12.23914063 -8.140625 11.33203125 C-9.34861332 8.05399023 -9.38419511 5.45775596 -9 2 C-6.20195492 -1.31620157 -3.97608516 -1.52926352 0 0 Z " fill="#3E7EFF" transform="translate(274,542)"/>
<path d="M0 0 C0.886875 0.556875 1.77375 1.11375 2.6875 1.6875 C4.37632717 30.08481614 -7.19578637 61.00804721 -25.71484375 82.29980469 C-33.60115645 91.04634527 -43.64624395 100.73798046 -55.3125 103.6875 C-57.6875 102.75 -57.6875 102.75 -59.3125 100.6875 C-59.8046875 97.3515625 -59.8046875 97.3515625 -59.3125 93.6875 C-57.19732562 91.72564447 -55.48820159 90.45409904 -53.0625 89 C-30.16222886 73.90604345 -17.13421799 49.67943069 -11.625 23.125 C-10.44747051 16.95110227 -9.69014186 10.77486242 -9.1328125 4.515625 C-8.3125 1.6875 -8.3125 1.6875 -5.94921875 -0.28515625 C-3.3125 -1.3125 -3.3125 -1.3125 0 0 Z " fill="#5C6AFF" transform="translate(416.3125,536.3125)"/>
<path d="M0 0 C2.63418058 3.67434419 4.10658681 7.66225139 5.6875 11.875 C14.57491936 34.63286083 28.76300201 55.55608152 51 67 C54.61014307 68.55675482 58.24677645 69.83598967 62 71 C63.68877403 71.53768142 65.37636759 72.0790911 67.0625 72.625 C67.77535156 72.84414063 68.48820312 73.06328125 69.22265625 73.2890625 C71 74 71 74 73 76 C72.75 79.5625 72.75 79.5625 72 83 C66.93025698 85.53487151 61.3757947 83.99615029 56.25 82.375 C28.25864764 72.28264054 9.62203027 51.25090081 -3.04541016 25.08398438 C-11.19161158 7.29984745 -11.19161158 7.29984745 -9.1875 1.75 C-6.68775058 -1.93384125 -3.92826131 -1.12236037 0 0 Z " fill="#3E7EFF" transform="translate(226,577)"/>
<path d="M0 0 C1.92678441 1.99814679 2.51996815 2.9857245 2.6875 5.75 C1.69724907 8.41606019 1.2597047 9.46389765 -1.3125 10.75 C-2.76581094 10.96767095 -4.22575039 11.14203364 -5.6875 11.29296875 C-30.92756905 14.14239721 -53.26935827 21.86040453 -70.3125 41.75 C-75.00644564 48.19794656 -78.60860828 55.09187436 -81.953125 62.31640625 C-83.3125 64.75 -83.3125 64.75 -86.3125 66.75 C-89.63490324 66.4258631 -90.92026303 66.14223697 -93.3125 63.75 C-93.97195805 57.80746791 -92.45366926 53.97647135 -89.75 48.875 C-89.38503418 48.17101074 -89.02006836 47.46702148 -88.64404297 46.74169922 C-85.72707634 41.25101301 -82.51029335 36.35712174 -78.3125 31.75 C-77.60867187 30.95464844 -76.90484375 30.15929687 -76.1796875 29.33984375 C-62.22557985 14.44164631 -21.03234715 -11.3688363 0 0 Z " fill="#3E80FF" transform="translate(281.3125,446.25)"/>
<path d="M0 0 C3 0.5 3 0.5 4.60546875 1.54296875 C6.73318697 4.52892625 6.93608497 7.75712097 7.3125 11.3125 C7.43540405 12.45102417 7.43540405 12.45102417 7.56079102 13.61254883 C9.26878438 32.34949096 2.33170523 49.73506187 -9.32275391 64.13427734 C-19.39386178 76.01534974 -30.90184158 85.21428263 -44 93.5 C-44.9075 94.09425781 -45.815 94.68851563 -46.75 95.30078125 C-49.85234041 96.9542856 -51.68753448 96.45693448 -55 95.5 C-57 93.5 -57 93.5 -57.0546875 90.1796875 C-55.68557267 85.40299797 -53.21437465 83.98623926 -49.125 81.625 C-47.74719385 80.76882229 -46.37221058 79.90808618 -45 79.04296875 C-44.319375 78.61806152 -43.63875 78.1931543 -42.9375 77.75537109 C-25.32069324 66.3408524 -10.52871113 48.95159889 -5.4609375 28.29296875 C-4.40035287 21.86654493 -4.61573017 15.46903424 -5.6875 9.0625 C-6 5.5 -6 5.5 -4.9375 2.5 C-3 0.5 -3 0.5 0 0 Z " fill="#3E7FFF" transform="translate(399,518.5)"/>
<path d="M0 0 C17.63122942 5.06287664 34.65043476 6.55835854 52.92651367 6.59838867 C54.1341185 6.60390244 54.1341185 6.60390244 55.36611938 6.60952759 C65.07359621 6.6326527 74.47987378 6.13432409 84.08740234 4.71240234 C93.53912574 3.56929672 93.53912574 3.56929672 97.61401367 6.28588867 C98.05151367 9.72338867 98.05151367 9.72338867 97.61401367 13.28588867 C94.1259351 17.23142017 88.98909157 17.34847647 84.05151367 17.97338867 C83.06280273 18.09858887 82.0740918 18.22378906 81.05541992 18.3527832 C51.45722833 21.64495494 9.93165938 23.0764761 -16.38598633 7.28588867 C-17.88598633 4.84838867 -17.88598633 4.84838867 -18.38598633 2.28588867 C-17.63598633 0.03588867 -17.63598633 0.03588867 -16.38598633 -1.71411133 C-11.68531818 -4.0644454 -4.84864648 -1.39282878 0 0 Z " fill="#3E7EFF" transform="translate(280.385986328125,668.714111328125)"/>
<path d="M0 0 C2.9495026 1.54848886 3.33384647 2.25991209 4.5 5.3125 C4.86303711 8.11132812 4.86303711 8.11132812 5.02734375 11.34375 C5.12946167 13.13377441 5.12946167 13.13377441 5.23364258 14.95996094 C5.30091553 16.23129883 5.36818848 17.50263672 5.4375 18.8125 C7.24633393 48.02074952 10.81724856 76.94217319 32.71484375 98.4921875 C34.69071518 100.50697105 35.32472277 101.50806432 35.5 104.3125 C34.9375 106.5 34.9375 106.5 33.5 108.3125 C30.875 109.4375 30.875 109.4375 27.5 109.3125 C13.85898973 102.57654658 5.63434897 85.3601199 0.8828125 71.71484375 C-3.4959451 58.31656826 -5.31595736 44.30807764 -6.5 30.3125 C-6.55784668 29.63670898 -6.61569336 28.96091797 -6.67529297 28.26464844 C-7.21717074 21.70744496 -7.57649958 15.13974306 -7.75 8.5625 C-7.77578125 7.61890625 -7.8015625 6.6753125 -7.828125 5.703125 C-7.43694139 2.85307301 -6.74978279 2.03806155 -4.5 0.3125 C-2.5 -0.6875 -2.5 -0.6875 0 0 Z " fill="#3E7EFF" transform="translate(276.5,470.6875)"/>
<path d="M0 0 C2.375 0.8125 2.375 0.8125 4.375 2.8125 C4.89194609 9.81999148 3.58883536 16.54092163 2.4375 23.4375 C0.97416834 32.57441566 -0.33484316 41.55271211 -0.625 50.8125 C-0.66496094 51.69679688 -0.70492188 52.58109375 -0.74609375 53.4921875 C-1.19296408 71.20928174 1.87919576 87.62240993 11.98046875 102.3671875 C14.14393198 106.1608233 14.14956421 108.55239685 13.375 112.8125 C10.375 114.8125 10.375 114.8125 7.5625 114.9375 C0.34833191 112.39132303 -3.0797655 103.76256444 -6.23828125 97.23828125 C-16.23300193 72.54709805 -13.98420825 43.52573189 -9.625 17.8125 C-9.5022168 17.02665527 -9.37943359 16.24081055 -9.25292969 15.43115234 C-7.39508872 3.57014284 -7.39508872 3.57014284 -4.69140625 0.91015625 C-2.625 -0.1875 -2.625 -0.1875 0 0 Z " fill="#3E7EFF" transform="translate(260.625,479.1875)"/>
<path d="M0 0 C3.01171875 1.39453125 3.01171875 1.39453125 4.3671875 3.6953125 C13.85137266 38.02539118 11.30851681 71.88071194 -4.99853516 103.6496582 C-6.96827854 107.12221765 -8.70002549 109.91143534 -12.48828125 111.33203125 C-15.39030605 111.40458187 -16.69989747 111.19254708 -18.98828125 109.39453125 C-20.39677195 105.82723239 -20.01238311 104.45217167 -18.51171875 100.86328125 C-17.80676522 99.5343667 -17.08993315 98.2117064 -16.36328125 96.89453125 C-15.61183179 95.45523412 -14.86446669 94.01379758 -14.12109375 92.5703125 C-13.7540332 91.85955566 -13.38697266 91.14879883 -13.00878906 90.41650391 C-1.28942279 67.19645809 -0.06658533 40.67777952 -6.015625 15.671875 C-6.98564443 11.57773363 -7.64766894 7.5923478 -7.98828125 3.39453125 C-5.79180718 0.15211714 -3.85094624 -0.78025708 0 0 Z " fill="#3D7EFF" transform="translate(449.98828125,550.60546875)"/>
<path d="M0 0 C2 2 2 2 2.15234375 3.92578125 C0.59977517 21.17340674 -9.0649575 34.98600342 -22 46 C-38.76354883 58.01914822 -56.68189283 63.91402384 -77.22265625 60.765625 C-80.17040459 59.9530249 -81.84578475 59.16444906 -84 57 C-84.25 53.3125 -84.25 53.3125 -84 50 C-80.83019061 48.09956508 -78.94640117 47.84834766 -75.3125 48.375 C-59.02413088 50.31917215 -44.31401833 47.07432141 -31.17578125 36.7890625 C-28.68470029 34.60703942 -26.32418641 32.35805434 -24 30 C-23.13955078 29.15501953 -23.13955078 29.15501953 -22.26171875 28.29296875 C-15.71052729 21.33550185 -11.89640051 12.18822835 -9.8359375 2.9609375 C-9 1 -9 1 -7.078125 -0.2890625 C-4.34877834 -1.22278636 -2.72496326 -0.86051471 0 0 Z " fill="#3E7EFF" transform="translate(479,623)"/>
<path d="M0 0 C1.74461854 0.8522723 3.46774059 1.74979743 5.16796875 2.6875 C6.13436279 3.21666016 7.10075684 3.74582031 8.09643555 4.29101562 C9.11648682 4.85498047 10.13653809 5.41894531 11.1875 6 C13.34338425 7.1777531 15.49963888 8.35482842 17.65625 9.53125 C18.72617188 10.11648438 19.79609375 10.70171875 20.8984375 11.3046875 C39.05837266 21.23089891 55.31756623 29.24106762 76.14941406 31.21557617 C79.81646715 31.59316467 81.87694359 31.91796239 85 34 C85.875 35.8125 85.875 35.8125 86 38 C84.875 40.6875 84.875 40.6875 83 43 C66.37697982 48.30587176 43.82166084 37.62915999 29.42993164 30.31787109 C24.24887881 27.61284735 19.11757356 24.82291107 14 22 C13.16936035 21.54737793 12.3387207 21.09475586 11.48291016 20.62841797 C6.94518333 18.15547689 2.45921307 15.6118248 -2 13 C-2.9796875 12.44828125 -3.959375 11.8965625 -4.96875 11.328125 C-10.76452057 7.85781793 -10.76452057 7.85781793 -11.875 3.8125 C-11 1 -11 1 -8.875 -1 C-5.11766788 -2.30689813 -3.65651648 -1.43136645 0 0 Z " fill="#3E7FFF" transform="translate(159,303)"/>
<path d="M0 0 C3.23470398 1.42011394 4.10468621 2.96640346 5.5625 6.125 C-0.16167478 12.18589094 -6.12679038 15.69430446 -13.8125 18.625 C-14.59979492 18.92688232 -15.38708984 19.22876465 -16.19824219 19.53979492 C-36.84611327 27.2527231 -58.9092915 30.5307254 -80.75 26.8125 C-81.79861206 26.63618042 -81.79861206 26.63618042 -82.8684082 26.45629883 C-86.90870236 25.68245715 -90.1860365 24.68901122 -93.4375 22.125 C-93.9375 18.5625 -93.9375 18.5625 -93.4375 15.125 C-89.97328565 12.81552377 -89.17249238 12.97555256 -85.1875 13.4375 C-84.27484375 13.53675781 -83.3621875 13.63601563 -82.421875 13.73828125 C-80.33000355 14.00934836 -78.24272983 14.3172455 -76.16015625 14.65234375 C-51.89376247 17.7333864 -26.76642635 12.5151085 -5.3125 0.9453125 C-3.4375 0.125 -3.4375 0.125 0 0 Z " fill="#3E7EFF" transform="translate(438.4375,686.875)"/>
<path d="M0 0 C2.13056973 1.61687505 4.01219444 3.1728891 5.9375 5 C6.45965088 5.48984375 6.98180176 5.9796875 7.51977539 6.484375 C27.53309089 25.75576675 31.70477938 56.22781659 34.21484375 82.671875 C34 85 34 85 32.69140625 86.8046875 C30.08348176 88.64770111 28.09973978 88.38746747 25 88 C22.43178487 86.23936054 22.01294867 85.05408595 21.27978516 81.99169922 C21.11784668 80.77498535 20.9559082 79.55827148 20.7890625 78.3046875 C20.59737337 76.9430863 20.40547072 75.58151515 20.21337891 74.2199707 C20.11776672 73.50974762 20.02215454 72.79952454 19.92364502 72.06777954 C17.1738741 51.87778469 13.75907755 29.75907755 -1.375 14.625 C-3.53795917 12.46204083 -5.42837973 10.33587427 -7.3125 7.9375 C-7.82425781 7.28652344 -8.33601563 6.63554687 -8.86328125 5.96484375 C-10 4 -10 4 -10 0 C-6.18088502 -2.64400268 -4.12645724 -1.75061822 0 0 Z " fill="#3E7DFF" transform="translate(417,446)"/>
<path d="M0 0 C12.35247422 8.629473 19.97115476 20.32708769 23.0625 35.0625 C23.80519309 42.11808432 21.94792288 48.88332483 17.75 54.625 C15.0625 57.0625 15.0625 57.0625 11.75 57.4375 C10.4196875 57.251875 10.4196875 57.251875 9.0625 57.0625 C7.875 55.4375 7.875 55.4375 7.0625 53.0625 C8.3125 50.0625 8.3125 50.0625 10.0625 47.0625 C12.53441181 42.63626081 12.78861461 39.05639029 12.0625 34.0625 C9.83355312 26.97039628 6.67966466 20.86693557 2.0625 15.0625 C1.24144728 25.35302745 3.31359252 33.43913878 9.0625 42.0625 C8.6875 44.75 8.6875 44.75 8.0625 47.0625 C5.5875 47.5575 5.5875 47.5575 3.0625 48.0625 C-4.0438077 40.63317831 -8.09128336 32.00140047 -8.0625 21.625 C-8.06636719 20.23474609 -8.06636719 20.23474609 -8.0703125 18.81640625 C-7.93846694 16.08254976 -7.72097303 13.68758494 -6.9375 11.0625 C-5.9475 10.4025 -4.9575 9.7425 -3.9375 9.0625 C-8.21781668 6.77966444 -11.92331252 6.95846657 -16.6328125 7.1875 C-18.9375 7.0625 -18.9375 7.0625 -21.9375 5.0625 C-22.125 2.4375 -22.125 2.4375 -21.9375 0.0625 C-14.21505582 -3.16887735 -7.55295306 -4.26180685 0 0 Z " fill="#3E7DFF" transform="translate(317.9375,490.9375)"/>
<path d="M0 0 C3.95046372 2.38865248 7.50401563 5.27562687 10.6875 8.625 C10.6875 9.285 10.6875 9.945 10.6875 10.625 C11.3475 10.625 12.0075 10.625 12.6875 10.625 C13.921875 11.8828125 13.921875 11.8828125 15.4375 13.75 C29.92355686 31.00316181 29.92355686 31.00316181 49.6875 40.625 C53.90781983 40.90839716 57.7924508 40.81433733 61.9375 39.9375 C64.6875 39.625 64.6875 39.625 67.5625 40.6875 C69.6875 42.625 69.6875 42.625 70.25 45.625 C69.6875 48.625 69.6875 48.625 68.1875 50.375 C60.1682639 54.38461805 52.32076673 54.6016789 43.875 52.0625 C25.46124751 45.4381815 10.42948394 28.93649952 -1.9453125 14.19140625 C-3.40570258 12.4466687 -3.40570258 12.4466687 -5.75 10.5 C-7.3125 8.625 -7.3125 8.625 -7.875 5.5625 C-7.3125 2.625 -7.3125 2.625 -5.125 0.625 C-2.3125 -0.375 -2.3125 -0.375 0 0 Z " fill="#3E7EFF" transform="translate(280.3125,603.375)"/>
<path d="M0 0 C2.09765625 2.12109375 2.09765625 2.12109375 2.09765625 6.12109375 C-1.02537149 7.12353086 -2.92928139 7.06385809 -6.0703125 6.1875 C-10.86834723 5.01913783 -15.29956444 4.92398444 -20.21484375 5.05859375 C-26.35546666 5.19827094 -32.32766975 4.95442267 -38.44555664 4.40356445 C-45.60858207 3.81823919 -52.78333485 3.50352174 -59.96484375 3.24609375 C-61.19000198 3.20124344 -61.19000198 3.20124344 -62.43991089 3.15548706 C-73.8182278 2.78264488 -83.83952366 3.25729398 -94.65625 7.1875 C-97.90234375 8.12109375 -97.90234375 8.12109375 -100.3671875 7.2734375 C-100.87378906 6.89316406 -101.38039062 6.51289063 -101.90234375 6.12109375 C-102.15234375 3.80859375 -102.15234375 3.80859375 -101.90234375 1.12109375 C-99.04353066 -1.54569403 -96.33252442 -2.52081309 -92.578125 -3.44921875 C-91.54880859 -3.70574219 -90.51949219 -3.96226562 -89.45898438 -4.2265625 C-88.38841797 -4.48308594 -87.31785156 -4.73960937 -86.21484375 -5.00390625 C-85.16361328 -5.26816406 -84.11238281 -5.53242188 -83.02929688 -5.8046875 C-59.75189545 -11.51177908 -21.10870953 -13.66526149 0 0 Z " fill="#3E7FFF" transform="translate(139.90234375,319.87890625)"/>
<path d="M0 0 C0.9178125 0.49757813 1.835625 0.99515625 2.78125 1.5078125 C17.30783227 8.82451019 33.65035781 10.98486191 49.72265625 12.12109375 C50.80305176 12.19827637 51.88344727 12.27545898 52.99658203 12.35498047 C55.10449719 12.49584887 57.2136681 12.61928394 59.32373047 12.72314453 C68.47341715 13.30866333 68.47341715 13.30866333 72.28125 17.6328125 C72.84375 20.1953125 72.84375 20.1953125 72.28125 22.6328125 C70.10658796 24.72774214 68.76096975 25.56904087 65.74682617 25.96972656 C39.75273587 25.32181582 8.76235427 23.29162806 -12.71875 6.6328125 C-14.09209311 3.23984717 -13.87991378 2.11630385 -12.71875 -1.3671875 C-8.38457123 -4.73821543 -4.43265515 -2.22906509 0 0 Z " fill="#5C6AFF" transform="translate(321.71875,703.3671875)"/>
<path d="M0 0 C5.875 2.875 5.875 2.875 7 4 C7.5 6.5625 7.5 6.5625 7 10 C5.40531338 12.12478849 3.63473986 13.9977113 1.81640625 15.93359375 C-7.50042294 26.53273921 -6.72047007 42.30392201 -7.67724609 55.58544922 C-7.85177441 57.97672618 -8.03500607 60.36722871 -8.21875 62.7578125 C-8.26777466 63.48090607 -8.31679932 64.20399963 -8.36730957 64.94900513 C-8.72060937 69.51707574 -9.42210588 73.69056276 -11 78 C-14 80 -14 80 -17.1875 79.625 C-18.115625 79.41875 -19.04375 79.2125 -20 79 C-22.46754527 73.41119411 -21.92177744 68.82875004 -21.25 62.9375 C-21.04381003 60.96879821 -20.83809294 59.00004684 -20.6328125 57.03125 C-20.47087402 55.53078125 -20.47087402 55.53078125 -20.30566406 54 C-20.01184765 51.11628105 -19.77227497 48.23412118 -19.5546875 45.34375 C-18.77852443 35.33768459 -17.51417982 26.45808552 -14 17 C-13.67 15.94425781 -13.34 14.88851563 -13 13.80078125 C-11.86904641 10.63322764 -10.59370199 9.10738287 -8 7 C-7.34 7 -6.68 7 -6 7 C-5.7525 6.360625 -5.505 5.72125 -5.25 5.0625 C-4 3 -4 3 -1.875 2.25 C-1.25625 2.1675 -0.6375 2.085 0 2 C0 1.34 0 0.68 0 0 Z " fill="#3D7DFF" transform="translate(245,478)"/>
<path d="M0 0 C0.93054199 0.44617676 0.93054199 0.44617676 1.87988281 0.90136719 C12.54864943 6.03324921 21.7555063 12.64564442 31 20 C31.91910156 20.70898438 32.83820313 21.41796875 33.78515625 22.1484375 C37.811052 25.40039562 37.811052 25.40039562 39 27 C39.1875 29.69140625 39.1875 29.69140625 39 32 C36.91796875 32.8125 36.91796875 32.8125 34 33 C31.54549234 31.41760678 29.50516015 29.88827441 27.3125 28 C26.05738473 26.96965232 24.80087004 25.941007 23.54296875 24.9140625 C22.93372559 24.41036133 22.32448242 23.90666016 21.69677734 23.38769531 C11.77405625 15.27247996 -5.65147888 2 -19 2 C-19 1.34 -19 0.68 -19 0 C-30.44615689 -2.15618987 -41.76819972 -4.0927787 -53.41796875 -4.65625 C-56 -5 -56 -5 -58 -7 C-57.625 -9.625 -57.625 -9.625 -57 -12 C-39.78563022 -17.73812326 -15.31766932 -7.63086813 0 0 Z " fill="#3F80FF" transform="translate(270,284)"/>
<path d="M0 0 C1.2065625 0.0309375 1.2065625 0.0309375 2.4375 0.0625 C6.2084109 7.1880652 9.2394484 14.40747812 11.9375 22 C12.32623291 23.08885498 12.71496582 24.17770996 13.11547852 25.29956055 C19.59373541 43.76076728 23.80688741 61.52837397 23.6875 81.1875 C23.69523437 82.49976563 23.70296875 83.81203125 23.7109375 85.1640625 C23.70835937 86.411875 23.70578125 87.6596875 23.703125 88.9453125 C23.70086914 90.07340332 23.69861328 91.20149414 23.69628906 92.36376953 C23.4375 95.0625 23.4375 95.0625 21.4375 97.0625 C18.8125 96.6875 18.8125 96.6875 16.4375 96.0625 C15.45614417 92.27295672 15.4025577 88.73512803 15.50366211 84.83520508 C16.108493 60.18771868 9.2148957 36.59233396 -0.71728516 14.19213867 C-2.68678999 9.67444239 -4.21511118 6.10613702 -3.5625 1.0625 C-2.5625 0.0625 -2.5625 0.0625 0 0 Z " fill="#5D6AFF" transform="translate(446.5625,468.9375)"/>
<path d="M0 0 C0.51175781 0.48855469 1.02351563 0.97710937 1.55078125 1.48046875 C1.17578125 3.41796875 1.17578125 3.41796875 0.55078125 5.48046875 C-1.82441903 6.66806889 -3.00190939 6.48787123 -5.63671875 6.35546875 C-14.01383835 6.27133699 -22.13997444 8.50129553 -30.265625 10.34765625 C-44.32303906 13.326523 -58.18349771 13.41985186 -72.38671875 11.23046875 C-73.12583496 11.12138184 -73.86495117 11.01229492 -74.62646484 10.89990234 C-79.2311485 10.08302868 -82.05920346 8.69136386 -85.44921875 5.48046875 C-80.92720991 2.83526358 -78.19352637 2.19990637 -73.01171875 2.79296875 C-56.27001217 4.26096076 -40.36906034 4.2456718 -24.06640625 -0.1640625 C-17.1658584 -1.9337602 -6.25631602 -3.88151026 0 0 Z " fill="#3E7FFF" transform="translate(103.44921875,326.51953125)"/>
<path d="M0 0 C0.90419678 0.42974121 0.90419678 0.42974121 1.82666016 0.86816406 C10.70853435 5.14689069 18.07667587 9.85173032 25 17 C25.71414063 17.71671875 26.42828125 18.4334375 27.1640625 19.171875 C31.95033157 24.24417609 31.95033157 24.24417609 32.1796875 27.734375 C32.09074219 28.85585938 32.09074219 28.85585938 32 30 C29.94921875 30.94140625 29.94921875 30.94140625 27 31 C24.26789787 28.9776811 22.08991603 26.44846752 19.8125 23.9375 C14.31142523 18.17570448 9.31306275 13.37610566 2 10 C0.86433594 9.47019531 -0.27132813 8.94039063 -1.44140625 8.39453125 C-14.77135195 2.16979335 -14.77135195 2.16979335 -29 3 C-29.99 2.34 -30.98 1.68 -32 1 C-31.25 -3.75 -31.25 -3.75 -29 -6 C-19.20163818 -8.85715525 -8.73883836 -4.19379088 0 0 Z " fill="#3F7FFF" transform="translate(277,379)"/>
<path d="M0 0 C3.03741029 1.77799627 3.43792676 3.29558009 4.640625 6.49609375 C7.59411584 12.91618188 12.53939064 17.05802046 18.9609375 19.7109375 C27.13559002 22.19033661 34.5811293 22.75890032 43.125 22.625 C44.22908203 22.61597656 45.33316406 22.60695313 46.47070312 22.59765625 C49.1682017 22.57430128 51.86523077 22.54155054 54.5625 22.5 C55.0575 24.48 55.0575 24.48 55.5625 26.5 C49.72923824 31.36105146 41.88167147 31.99216046 34.46484375 31.81640625 C21.03126318 30.35191093 8.27593238 26.30551886 -0.4375 15.5 C-3.35734166 11.35873943 -5.46700842 8.15247154 -5.375 3 C-4.13299622 -0.31201009 -3.4593632 -0.70961297 0 0 Z " fill="#5D6AFF" transform="translate(286.4375,713.5)"/>
<path d="M0 0 C2.3125 0.375 2.3125 0.375 3.3125 1.375 C3.68498676 5.26323895 3.18795025 7.16393245 0.75 10.1875 C0.19699219 10.87714844 -0.35601562 11.56679688 -0.92578125 12.27734375 C-1.50714844 12.96957031 -2.08851563 13.66179688 -2.6875 14.375 C-3.21730469 15.01566406 -3.74710937 15.65632812 -4.29296875 16.31640625 C-6.04760213 18.37945499 -7.85461856 20.38114693 -9.6875 22.375 C-10.40550781 23.17035156 -11.12351562 23.96570313 -11.86328125 24.78515625 C-19.46751625 32.83743129 -31.92501547 43.71716233 -43.375 44.6875 C-46.6875 44.375 -46.6875 44.375 -49.6875 42.375 C-49.875 39.75 -49.875 39.75 -49.6875 37.375 C-48.45 37.189375 -47.2125 37.00375 -45.9375 36.8125 C-28.07018439 32.7734208 -15.03723263 16.45818714 -4.50390625 2.4765625 C-2.6875 0.375 -2.6875 0.375 0 0 Z " fill="#3E7EFF" transform="translate(405.6875,607.625)"/>
<path d="M0 0 C2.21875 0.27734375 2.21875 0.27734375 4 1 C4 4.94592507 3.99955906 7.68277285 1.57421875 10.87890625 C-6.10353922 17.98440897 -16.3127858 23.39218853 -26.9140625 23.21484375 C-33.05949221 22.58188751 -37.04666097 19.50241389 -41 15 C-41.5775 14.401875 -42.155 13.80375 -42.75 13.1875 C-44.68387436 9.80321986 -44.81168727 6.89179636 -45 3 C-43 1 -43 1 -40.625 0.875 C-36.51700995 2.63556716 -35.67867212 6.04888964 -34 10 C-33.34166215 11.33746532 -32.67738774 12.6720813 -32 14 C-22.60395151 14.89962166 -15.85462221 13.3140735 -8 8 C-5.74415745 5.91002823 -3.69560017 3.79541862 -1.71875 1.44140625 C-1.1515625 0.96574219 -0.584375 0.49007812 0 0 Z " fill="#5B69FF" transform="translate(373,603)"/>
<path d="M0 0 C9.9805923 0.14226234 21.40046386 9.6445911 28.3671875 16.28125 C31.55105996 19.81716039 34.47316461 23.50691597 37.3671875 27.28125 C38.00398438 28.04179687 38.64078125 28.80234375 39.296875 29.5859375 C43.39591946 34.59168303 43.39591946 34.59168303 43.2421875 38.28125 C42.9534375 38.94125 42.6646875 39.60125 42.3671875 40.28125 C40.3871875 40.77625 40.3871875 40.77625 38.3671875 41.28125 C36.84200113 39.63944979 35.32230578 37.9925484 33.8046875 36.34375 C33.34505615 35.84447998 32.8854248 35.34520996 32.41186523 34.83081055 C29.71550998 31.8685444 27.2663755 28.85371472 24.9296875 25.59375 C18.16871717 16.74762059 8.25346999 11.89386917 -1.6328125 7.28125 C-2.96836064 6.61903146 -4.30263862 5.95419849 -5.6328125 5.28125 C-4.51927723 0.34987953 -4.51927723 0.34987953 0 0 Z " fill="#5D6CFF" transform="translate(334.6328125,371.71875)"/>
<path d="M0 0 C0.495 1.485 0.495 1.485 1 3 C-4.64139572 9.73327876 -11.52792495 10.94262321 -20 12 C-24.49883668 12.18351898 -28.99606166 12.18582428 -33.49804688 12.18530273 C-35.62650195 12.18750155 -37.75444795 12.20573742 -39.8828125 12.22460938 C-41.24739408 12.22754187 -42.61197809 12.22952763 -43.9765625 12.23046875 C-45.20455566 12.23457764 -46.43254883 12.23868652 -47.69775391 12.24291992 C-50.90354989 12.00709507 -53.11947787 11.37747783 -56 10 C-56 8.02 -56 6.04 -56 4 C-51.13217282 2.64616667 -46.53256771 3.15430491 -41.5625 3.5 C-30.06288632 4.1713581 -19.48327449 4.01882134 -8.35546875 0.6328125 C-5.51663357 -0.12985964 -2.924529 -0.23712397 0 0 Z " fill="#5D6CFF" transform="translate(390,686)"/>
<path d="M0 0 C2.0625 0.4375 2.0625 0.4375 4 1 C6.79952494 13.05400548 -3.0657513 26.05403125 -8.82080078 36.21337891 C-10.04248343 38.06436723 -11.42038623 39.45274431 -13 41 C-14.17574711 43.09989652 -14.17574711 43.09989652 -15 45 C-16.66611905 45.042721 -18.33382885 45.04063832 -20 45 C-21 44 -21 44 -21.375 40.8125 C-20.96736967 36.66825828 -20.07874806 35.82972674 -17.44824219 32.8449707 C-14.54334861 29.1443165 -12.56848228 24.86375238 -10.4375 20.6875 C-9.96892578 19.78837891 -9.50035156 18.88925781 -9.01757812 17.96289062 C-6.42253411 12.9433859 -4.00084634 7.88758492 -1.78149414 2.69067383 C-1 1 -1 1 0 0 Z " fill="#5D6AFF" transform="translate(512,614)"/>
<path d="M0 0 C10.64351252 4.37776402 21.42927189 10.24988731 28 20 C28.3125 22.875 28.3125 22.875 28 25 C26.02 25.99 26.02 25.99 24 27 C23.34 26.319375 22.68 25.63875 22 24.9375 C21.00210382 23.95618936 20.0018696 22.97725364 19 22 C18.46503906 21.45730469 17.93007813 20.91460937 17.37890625 20.35546875 C9.15113893 12.51697214 -1.31478197 8.38365238 -12 5 C-12.66 4.34 -13.32 3.68 -14 3 C-13.75 0.9375 -13.75 0.9375 -13 -1 C-8.96482578 -3.01758711 -4.15314213 -1.16466396 0 0 Z " fill="#3E82FF" transform="translate(263,341)"/>
<path d="M0 0 C1.28583984 -0.02126953 1.28583984 -0.02126953 2.59765625 -0.04296875 C4.9375 0.1875 4.9375 0.1875 7.9375 2.1875 C7.6075 3.8375 7.2775 5.4875 6.9375 7.1875 C5.97972656 7.29964844 5.02195313 7.41179687 4.03515625 7.52734375 C-5.20390491 8.8271178 -12.41262583 11.41253737 -20.38842773 16.31420898 C-25.47212028 19.33335852 -25.47212028 19.33335852 -29.05078125 18.44921875 C-30.04658203 17.82466797 -30.04658203 17.82466797 -31.0625 17.1875 C-30.5 13.8125 -30.5 13.8125 -29.0625 10.1875 C-26.74891197 9.45524369 -24.4110013 8.79858962 -22.0625 8.1875 C-19.8028924 7.05899932 -17.57226008 5.87054743 -15.375 4.625 C-9.93368143 1.54947211 -6.22316053 0.04693183 0 0 Z " fill="#3D7DFF" transform="translate(152.0625,292.8125)"/>
<path d="M0 0 C0.33 0 0.66 0 1 0 C1 5.28 1 10.56 1 16 C0.34 16.33 -0.32 16.66 -1 17 C-1.02684679 14.35409986 -1.04676357 11.70846904 -1.0625 9.0625 C-1.07087891 8.30775391 -1.07925781 7.55300781 -1.08789062 6.77539062 C-1.09652441 4.85005687 -1.05224333 2.92464419 -1 1 C-0.67 0.67 -0.34 0.34 0 0 Z " fill="#FFE500" transform="translate(908,120)"/>
</svg>
